<?xml version="1.0" encoding="utf-8"?>
<!-- Generator: Adobe Illustrator 24.1.3, SVG Export Plug-In . SVG Version: 6.00 Build 0)  -->
<svg version="1.1" id="black" xmlns="http://www.w3.org/2000/svg" xmlns:xlink="http://www.w3.org/1999/xlink" x="0px" y="0px"
	 viewBox="0 0 500 36" style="enable-background:new 0 0 500 36;" xml:space="preserve">
<style type="text/css">
	.st0{fill:none;stroke:#FFFFFF;stroke-width:1.5966;stroke-miterlimit:10;}
	.st1{fill:#FFFFFF;}
</style>
<g>
	<g id="unfinished_2_">
		<path class="st0" d="M3.3,1.8H12L9.4,18.1C9.2,19.3,9.1,20.3,9,21c-0.1,0.7-0.1,1.3-0.1,1.9c0,1.4,0.4,2.5,1.2,3.3
			c0.8,0.8,1.9,1.2,3.3,1.2c3.3,0,5.7-4.5,7.1-13.4l0-0.3l1.9-11.8h8.7l-2.9,18.5v0c-0.6,4-1.4,6.8-2.4,8.5
			c-1.2,2.1-2.9,3.7-5.1,4.8c-2.2,1.1-4.8,1.7-7.8,1.7c-3.9,0-7-0.9-9.3-2.8C1.2,30.6,0,28.1,0,25c0-0.9,0.1-2.1,0.3-3.7
			s0.4-3.5,0.8-5.7L3.3,1.8z"/>
		<path class="st0" d="M32.5,34.3l5.1-32.5h9.9l6.9,16.1c0.1,0.1,0.2,0.4,0.3,0.7c0.8,1.8,1.3,3.3,1.6,4.6v-0.8c0-0.6,0-1.2,0.1-2
			c0.1-0.7,0.2-1.6,0.3-2.6l2.5-16h8.7l-5.1,32.5h-9.6L46,17.7c-0.5-1.2-0.9-2.2-1.2-3c-0.3-0.8-0.5-1.6-0.7-2.4v0.9
			c0,0.6,0,1.2-0.1,1.9c-0.1,0.7-0.1,1.5-0.3,2.6l-2.5,16.5H32.5z"/>
		<path class="st0" d="M69.7,34.3l5.1-32.5h18.8l-1.2,7.5H82.3l-0.9,5.4h9.5l-1.1,7h-9.4l-2,12.7H69.7z"/>
		<path class="st0" d="M94.5,34.3l5.2-32.5h8.9l-5.2,32.5H94.5z"/>
		<path class="st0" d="M110.4,34.3l5.1-32.5h9.9l6.9,16.1c0.1,0.1,0.2,0.4,0.3,0.7c0.8,1.8,1.3,3.3,1.6,4.6v-0.8c0-0.6,0-1.2,0.1-2
			s0.2-1.6,0.3-2.6l2.5-16h8.7l-5.1,32.5h-9.6l-7.3-16.5c-0.5-1.2-0.9-2.2-1.2-3c-0.3-0.8-0.5-1.6-0.7-2.4v0.9c0,0.6,0,1.2-0.1,1.9
			c-0.1,0.7-0.1,1.5-0.3,2.6l-2.5,16.5H110.4z"/>
		<path class="st0" d="M147.7,34.3l5.2-32.5h8.9l-5.2,32.5H147.7z"/>
		<path class="st0" d="M166.6,23.1c1.4,1.5,2.7,2.5,3.9,3.2c1.2,0.7,2.5,1,3.8,1c1.1,0,2-0.3,2.6-0.8c0.7-0.5,1-1.2,1-2.1
			c0-1.2-1.3-2.5-4-3.8c-0.3-0.1-0.5-0.2-0.6-0.3c-2.6-1.3-4.3-2.6-5.3-3.8c-0.9-1.2-1.4-2.7-1.4-4.5c0-3.2,1.1-5.8,3.3-7.9
			c2.2-2,5-3.1,8.4-3.1c1.8,0,3.5,0.3,5.2,1s3.2,1.6,4.7,2.8l-3.7,6.4c-1.2-1-2.2-1.8-3.2-2.2c-1-0.5-1.9-0.7-2.7-0.7
			c-0.9,0-1.6,0.3-2.2,0.8c-0.6,0.5-0.9,1.1-0.9,1.9c0,0.9,1.1,1.9,3.3,3.1c0.8,0.4,1.4,0.7,1.8,1c2.3,1.3,3.9,2.5,4.8,3.9
			s1.3,3,1.3,4.9c0,3.5-1.2,6.3-3.6,8.3s-5.7,3.1-9.8,3.1c-2.2,0-4.2-0.5-6.1-1.4s-3.6-2.3-5.1-4.1L166.6,23.1z"/>
		<path class="st0" d="M189.8,34.3l5.1-32.5h8.8l-2,12.6H213l2-12.6h8.8l-5.2,32.5h-8.8L212,21h-11.3l-2.1,13.3H189.8z"/>
		<path class="st0" d="M235.4,27h10.1l-1.1,7.2h-18.7l5.1-32.5h18.7l-1.2,7.5h-10.1l-0.8,5.3h9.3l-1.1,7.1h-9.4L235.4,27z"/>
		<path class="st0" d="M250.4,34.3l5.1-32.5h5.6c4.2,0,7.2,0.1,8.9,0.3s3.2,0.6,4.3,1.2c2.4,1.2,4.3,3,5.5,5.3
			c1.3,2.3,1.9,5.1,1.9,8.4c0,3.1-0.6,5.9-1.7,8.2c-1.1,2.3-2.9,4.3-5.2,6c-1.6,1.1-3.6,1.9-5.8,2.4c-2.2,0.5-6,0.7-11.2,0.7h-1.2
			H250.4z M260.2,27c0.6,0,1.1,0.1,1.3,0.1c0.3,0,0.6,0,0.8,0c3.5,0,6.1-0.9,7.9-2.6c1.8-1.7,2.7-4.3,2.7-7.7c0-2.8-0.7-4.8-2-6
			s-3.5-1.9-6.4-1.9H263L260.2,27z"/>
	</g>
	<g id="business_2_">
		<path class="st1" d="M299.3,34.3l4.3-32.5h7c2.5,0,4.4,0.1,5.6,0.4c1.2,0.3,2.2,0.8,3,1.5c0.8,0.7,1.5,1.6,1.9,2.6
			c0.4,1,0.6,2.1,0.6,3.3c0,2.1-0.5,3.8-1.6,5.1s-2.5,2.2-4.4,2.6c1.8,0.5,3.2,1.4,4.2,2.6s1.5,2.7,1.5,4.5c0,1.7-0.3,3.2-1,4.6
			c-0.7,1.4-1.6,2.5-2.9,3.4c-1,0.7-2.2,1.2-3.7,1.4s-3.9,0.4-7.3,0.4H299.3z M305,29.8h3.3c1.5,0,2.6-0.1,3.3-0.2
			c0.7-0.1,1.4-0.3,1.9-0.5c0.9-0.4,1.6-1,2.1-1.9c0.5-0.8,0.8-1.8,0.8-2.9c0-1.7-0.5-2.9-1.6-3.6s-3.1-1-6.1-1h-2.4L305,29.8z
			 M308.1,6.1l-1.2,9.2h1.9c3.1,0,5.2-0.4,6.4-1.1c1.2-0.8,1.8-2,1.8-3.8c0-1.5-0.5-2.6-1.4-3.3s-2.8-0.9-5.6-0.9H308.1z"/>
		<path class="st1" d="M334.5,1.8L332,20.6c-0.1,0.7-0.2,1.3-0.2,1.9c0,0.6-0.1,1.1-0.1,1.5c0,2.1,0.6,3.7,1.8,4.8
			c1.2,1.1,2.9,1.7,5.1,1.7c1.6,0,3-0.3,4.2-0.8c1.2-0.5,2.2-1.4,3-2.5c1.1-1.5,1.9-4.1,2.3-7.9c0.1-0.4,0.1-0.7,0.1-1l2.2-16.5h5.1
			L353.2,20c-0.4,3.1-0.9,5.4-1.4,6.8c-0.5,1.4-1.2,2.6-2.1,3.7c-1.3,1.6-2.9,2.7-4.9,3.5c-2,0.8-4.3,1.2-6.8,1.2
			c-3.7,0-6.5-0.9-8.5-2.8s-2.9-4.5-2.9-8c0-0.8,0.1-1.8,0.2-3.2c0.1-1.4,0.3-2.9,0.5-4.6l2-14.9H334.5z"/>
		<path class="st1" d="M356.3,28.7l3.6-3c0.9,1.8,1.8,3.1,2.9,3.9c1,0.8,2.2,1.2,3.6,1.2c1.7,0,3.1-0.5,4.2-1.5
			c1.1-1,1.6-2.3,1.6-3.9c0-1.1-0.3-2.1-0.8-2.9s-1.6-1.6-3-2.4c-0.3-0.2-0.7-0.4-1.3-0.8c-2.4-1.3-4.1-2.5-4.9-3.4
			c-0.6-0.7-1.1-1.4-1.4-2.3c-0.3-0.9-0.5-1.8-0.5-2.8c0-2.9,0.9-5.2,2.8-7s4.2-2.7,7.2-2.7c2,0,3.8,0.4,5.3,1.2
			c1.5,0.8,2.7,2,3.7,3.6l-3.1,2.9c-0.7-1.2-1.5-2.1-2.4-2.6c-0.9-0.6-1.9-0.9-3-0.9c-1.6,0-2.9,0.5-3.9,1.4c-1,0.9-1.5,2.1-1.5,3.6
			c0,1.8,1.4,3.4,4.3,5c0.7,0.4,1.3,0.7,1.6,0.9c2.2,1.3,3.7,2.6,4.7,4c0.9,1.4,1.4,3,1.4,5c0,3.1-1,5.5-3,7.3
			c-2,1.8-4.7,2.7-8.1,2.7c-2.3,0-4.3-0.5-5.9-1.6C358.7,32.5,357.3,30.9,356.3,28.7z"/>
		<path class="st1" d="M382,34.3l4.3-32.5h5.2l-4.3,32.5H382z"/>
		<path class="st1" d="M394.6,34.3L399,0.5l17.7,20.3c0.6,0.7,1.2,1.4,1.7,2.1c0.5,0.7,1,1.3,1.4,2c0-0.7,0-1.4,0.1-2.2
			c0.1-0.8,0.2-1.7,0.3-2.9l2.4-18.1h4.8l-4.4,33.8l-17.8-20.3c-0.8-0.9-1.4-1.7-1.9-2.3c-0.5-0.6-0.9-1.2-1.3-1.8
			c0,1-0.2,2.5-0.4,4.6c0,0.2-0.1,0.4-0.1,0.5l-2.3,18.1H394.6z"/>
		<path class="st1" d="M430.7,34.3l4.3-32.5h18.3l-0.6,4.6h-13.2l-1,8.2h13.2l-0.6,4.6h-13.2l-1.4,10.5h13.2l-0.6,4.7H430.7z"/>
		<path class="st1" d="M453.5,28.7l3.6-3c0.9,1.8,1.8,3.1,2.9,3.9c1,0.8,2.2,1.2,3.6,1.2c1.7,0,3.1-0.5,4.2-1.5
			c1.1-1,1.6-2.3,1.6-3.9c0-1.1-0.3-2.1-0.8-2.9s-1.6-1.6-3-2.4c-0.3-0.2-0.7-0.4-1.3-0.8c-2.4-1.3-4.1-2.5-4.9-3.4
			c-0.6-0.7-1.1-1.4-1.4-2.3c-0.3-0.9-0.5-1.8-0.5-2.8c0-2.9,0.9-5.2,2.8-7s4.2-2.7,7.2-2.7c2,0,3.8,0.4,5.3,1.2
			c1.5,0.8,2.7,2,3.7,3.6l-3.1,2.9c-0.7-1.2-1.5-2.1-2.4-2.6s-1.9-0.9-3-0.9c-1.6,0-2.9,0.5-3.9,1.4s-1.5,2.1-1.5,3.6
			c0,1.8,1.4,3.4,4.3,5c0.7,0.4,1.3,0.7,1.6,0.9c2.2,1.3,3.7,2.6,4.7,4c0.9,1.4,1.4,3,1.4,5c0,3.1-1,5.5-3,7.3
			c-2,1.8-4.7,2.7-8.1,2.7c-2.3,0-4.3-0.5-5.9-1.6C455.8,32.5,454.5,30.9,453.5,28.7z"/>
		<path class="st1" d="M477.1,28.7l3.6-3c0.9,1.8,1.8,3.1,2.9,3.9s2.2,1.2,3.6,1.2c1.7,0,3.1-0.5,4.2-1.5c1.1-1,1.6-2.3,1.6-3.9
			c0-1.1-0.3-2.1-0.8-2.9c-0.6-0.8-1.6-1.6-3-2.4c-0.3-0.2-0.7-0.4-1.3-0.8c-2.4-1.3-4.1-2.5-4.9-3.4c-0.6-0.7-1.1-1.4-1.4-2.3
			c-0.3-0.9-0.5-1.8-0.5-2.8c0-2.9,0.9-5.2,2.8-7c1.8-1.8,4.2-2.7,7.2-2.7c2,0,3.8,0.4,5.3,1.2s2.7,2,3.7,3.6l-3.1,2.9
			c-0.7-1.2-1.5-2.1-2.4-2.6c-0.9-0.6-1.9-0.9-3-0.9c-1.6,0-2.9,0.5-3.9,1.4c-1,0.9-1.5,2.1-1.5,3.6c0,1.8,1.4,3.4,4.3,5
			c0.7,0.4,1.3,0.7,1.6,0.9c2.2,1.3,3.7,2.6,4.7,4c0.9,1.4,1.4,3,1.4,5c0,3.1-1,5.5-3,7.3c-2,1.8-4.7,2.7-8.1,2.7
			c-2.3,0-4.3-0.5-5.9-1.6C479.4,32.5,478.1,30.9,477.1,28.7z"/>
	</g>
</g>
</svg>
