<?xml version="1.0" encoding="utf-8"?>
<!-- Generator: Adobe Illustrator 24.1.3, SVG Export Plug-In . SVG Version: 6.00 Build 0)  -->
<svg version="1.1" id="Layer_1" xmlns="http://www.w3.org/2000/svg" xmlns:xlink="http://www.w3.org/1999/xlink" x="0px" y="0px"
	 viewBox="0 0 500 133.7" style="enable-background:new 0 0 500 133.7;" xml:space="preserve">
<style type="text/css">
	.st0{fill-rule:evenodd;clip-rule:evenodd;fill:#FFFFFF;}
</style>
<g>
	<g>
		<path class="st0" d="M242.9,1.6C242.8,2.3,211,82,211,82L180.5,2C204.4,16.9,222.6-6,242.9,1.6z"/>
		<path class="st0" d="M92.4,132.6h24.3c13,0,22.3-2.9,30.4-9.9c9.7-7.9,15.5-20.2,15.5-32.7c0-13-5.6-25-15.3-32.9
			c-8.1-6.7-18-9.8-30.6-9.8H92.3L92.4,132.6L92.4,132.6z M109,118.2V61.7h4.4c10.7,0,17.3,1.9,22.8,6.9c5.8,5.1,9.2,13,9.2,21.2
			s-3.5,16.4-9.2,21.5c-5.2,4.8-12,6.7-22.8,6.7L109,118.2L109,118.2z"/>
		<polygon class="st0" points="160,132.6 176.8,132.6 185.4,80 208,133.7 212.6,133.7 236,80 243.7,132.6 260.5,132.6 246.2,45.7 
			234.7,45.7 210.6,101.5 187.3,45.7 175.8,45.7 		"/>
		<polygon class="st0" points="312.3,61.6 312.3,47.2 265,47.2 265,132.6 312.3,132.6 312.3,118.2 281.7,118.2 281.7,95.1 
			311.1,95.1 311.1,80.7 281.7,80.7 281.7,61.6 		"/>
		<path class="st0" d="M317.9,132.6h24.3c13,0,22.2-2.9,30.4-9.9c9.7-7.9,15.5-20.2,15.5-32.7c0-13-5.7-25-15.3-32.9
			c-8.1-6.7-18-9.8-30.6-9.8h-24.5L317.9,132.6L317.9,132.6z M334.6,118.2V61.7h4.4c10.7,0,17.3,1.9,22.8,6.9
			c5.8,5.1,9.2,13,9.2,21.2s-3.5,16.4-9.2,21.5c-5.2,4.8-12,6.7-22.8,6.7L334.6,118.2L334.6,118.2z"/>
		<rect x="391.7" y="47.2" class="st0" width="16.6" height="85.4"/>
		<path class="st0" d="M69.6,99.6V61.1L41.1,99.7L69.6,99.6z M69.7,114.8l-38.2,0.2L18.3,133L0,132.6l63.7-85.2H86V133H69.8
			L69.7,114.8z"/>
		<path class="st0" d="M430.1,99.7l28,0.1l-28-38.6V99.7z M430.1,114.2l-0.1,18.9h-16l0.2-85.7h21.9l63.9,85.4l-18.3-0.1l-13.8-18.3
			L430.1,114.2z"/>
		<path class="st0" d="M449,49.1v6.7h1.2v-3h0.5c0.8,0,1,0.2,1.3,0.9l0.9,2.1h1.3l-1.2-2.5c-0.2-0.5-0.4-0.7-0.7-0.8
			c0.8-0.2,1.4-0.8,1.4-1.6c0-0.8-0.5-1.5-1.2-1.7c-0.5-0.2-0.8-0.2-1.6-0.2L449,49.1L449,49.1z M450.2,50.1h0.7
			c1.2,0,1.6,0.3,1.6,0.9c0,0.7-0.5,1-1.7,1h-0.5L450.2,50.1L450.2,50.1z M451.3,46.4c-3.4,0-6.1,2.8-6.1,6.1c0,3.4,2.8,6.2,6.1,6.2
			c3.4,0,6.1-2.8,6.1-6.2C457.4,49.1,454.7,46.4,451.3,46.4z M451.3,47.2c2.8,0,5.1,2.4,5.1,5.3c0,2.9-2.3,5.3-5.1,5.3
			s-5.2-2.4-5.2-5.3C446.1,49.6,448.4,47.2,451.3,47.2z"/>
	</g>
</g>
</svg>
