<?xml version="1.0" encoding="utf-8"?>
<!-- Generator: Adobe Illustrator 25.0.0, SVG Export Plug-In . SVG Version: 6.00 Build 0)  -->
<svg version="1.1" id="Ebene_1" xmlns="http://www.w3.org/2000/svg" xmlns:xlink="http://www.w3.org/1999/xlink" x="0px" y="0px"
	 viewBox="0 0 505.2 128.4" style="enable-background:new 0 0 505.2 128.4;" xml:space="preserve">
<style type="text/css">
	.st0{fill:#FFFFFF;}
</style>
<g>
	<g>
		<path class="st0" d="M349.2,60c5.3,0,10.6,0,15.9,0c0.9,0,1.1,0.3,1.1,1.2c0,6.9,0,13.8,0,20.7c0,0.8-0.2,1.3-1,1.8
			c-4.4,2.9-9.2,4.8-14.2,6.1c-3,0.7-6,1.2-9,1.6c-4.1,0.5-8.2,0.7-12.3,0.6c-4-0.1-8.1-0.5-12-1.5c-4.4-1-8.5-2.6-12.3-5
			c-4.1-2.7-7.5-6-9.9-10.4c-1.8-3.2-2.8-6.6-3.2-10.2c-0.4-4.2,0.1-8.4,1.8-12.3c2.1-5,5.4-8.9,9.8-12c3.8-2.6,7.9-4.4,12.4-5.6
			s9.2-1.9,13.9-2.1c2.7-0.1,5.3-0.2,8-0.1c5.4,0.2,10.7,0.9,15.6,3.3c5.5,2.7,9.4,6.9,11.5,12.6c0.1,0.2,0.2,0.4,0.3,0.7
			c0.3,0.6,0.1,0.8-0.6,0.9c-3.8,0.4-7.6,0.9-11.4,1.4c-0.9,0.1-1.9,0.3-2.8,0.4c-0.6,0.1-1.1-0.1-1.4-0.7c-1.4-2.4-3.3-4.4-5.6-5.9
			c-2.3-1.5-4.9-2.4-7.6-2.5c-5.3-0.2-10.5,0.2-15.5,2c-3.8,1.4-7.1,3.4-9.4,6.8c-1.2,1.8-1.8,3.9-2.1,6.1c-0.2,1.7-0.5,3.4-0.4,5.2
			c0.2,6,2.8,10.8,7.6,14.3c3.8,2.8,8.2,4,12.9,4.4c3.9,0.3,7.6,0,11.4-0.7c3.3-0.6,6.3-2,9.1-3.8c0.4-0.3,0.4-0.6,0.4-1.1
			c0-1.7,0-3.5,0-5.2c0-0.8-0.2-1-1-1c-5.3,0-10.6,0-15.8,0c-1,0-1.4-0.2-1.3-1.3c0.1-2.5,0.1-4.9,0-7.4c0-1,0.3-1.2,1.3-1.2
			C338.7,60,343.9,60,349.2,60z"/>
		<path class="st0" d="M252.7,90c-9.7,0-19.3,0-29,0c-1,0-1.3-0.2-1.3-1.2c0-18.2,0-36.5,0-54.7c0-1.1,0.3-1.3,1.3-1.3
			c18.8,0,37.6,0,56.5,0c1,0,1.3,0.3,1.3,1.3c-0.1,2.4-0.1,4.9,0,7.3c0,1-0.2,1.3-1.3,1.3c-10.1,0-20.3,0-30.4,0c-3.3,0-6.7,0-10,0
			c-0.9,0-1.1,0.3-1.1,1.2c0,3.4,0.1,6.7,0,10.1c0,0.9,0.2,1.1,1.1,1.1c12.5,0,25.1,0,37.6,0c1.3,0,1.3,0,1.3,1.3
			c0,2.6-0.1,5.3,0,7.9c0,1.1-0.3,1.3-1.3,1.3c-12.5,0-25,0-37.4,0c-1.4,0-1.4,0-1.4,1.4c0,4,0,8,0,11.9c0,1,0.2,1.3,1.3,1.3
			c13.8,0,27.7,0,41.5,0c1.6,0,1.4-0.2,1.4,1.5c0,2.4,0,4.9,0,7.3c0,0.9-0.3,1.1-1.2,1.1C272.1,90,262.4,90,252.7,90z"/>
		<path class="st0" d="M113,90c-9.6,0-19.3,0-28.9,0c-1.1,0-1.3-0.3-1.3-1.3c0-18.2,0-36.4,0-54.6c0-1,0.2-1.3,1.3-1.3
			c18.7,0,37.4,0,56.1,0c1,0,1.3,0.3,1.2,1.3c-0.1,2.5-0.1,5,0,7.5c0,0.9-0.3,1.1-1.2,1.1c-13.3,0-26.7,0-40,0
			c-1.6,0-1.4-0.2-1.4,1.4c0,3.2,0,6.4,0,9.6c0,1.4,0,1.4,1.4,1.4c12.4,0,24.9,0,37.3,0c1.4,0,1.4,0,1.4,1.4c0,2.6,0,5.3,0,7.9
			c0,0.9-0.2,1.2-1.2,1.2c-12.5,0-25,0-37.4,0c-1.7,0-1.5-0.2-1.5,1.5c0,4,0,8,0,12c0,0.9,0.3,1.1,1.2,1.1c13.9,0,27.8,0,41.7,0
			c1.3,0,1.3,0,1.3,1.3c0,2.4-0.1,4.9,0,7.3c0,1.1-0.4,1.3-1.3,1.3C132.2,90,122.6,90,113,90z"/>
		<path class="st0" d="M35.3,91.5c-5.5,0.1-10.8-0.6-15.9-2.5c-3.8-1.4-7.2-3.3-10.2-6c-3.5-3.1-6.1-6.8-7.7-11.2
			c-0.8-2.3-1.2-4.6-1.4-7.1c-0.4-4.1,0.1-8.1,1.3-12c1.4-4.5,4-8.4,7.5-11.5c3.6-3.1,7.7-5.2,12.2-6.6c3-0.9,6-1.5,9.1-1.9
			c3.6-0.4,7.2-0.7,10.8-0.6c5.4,0.2,10.6,1.2,15.5,3.6c2.7,1.3,5.2,2.8,7.4,4.8c2.2,2.1,3.9,4.6,5,7.5c0.6,1.4,0.6,1.5-1,1.8
			c-3.4,0.6-6.8,1.2-10.2,1.8c-1,0.2-1.9,0.4-2.9,0.6c-0.5,0.1-0.9,0-1.1-0.6c-2.1-5.4-6.1-8.3-11.8-9.1c-5.3-0.5-10.6-0.1-15.7,2.3
			C21.5,47,18.7,51,17.6,56c-0.8,3.5-0.7,7.1-0.1,10.7c0.3,1.8,0.8,3.6,1.5,5.2c1.3,2.8,3.4,5,6.2,6.5s5.9,2.4,9.1,2.7
			c4.5,0.4,8.9-0.1,13-2.1c2.6-1.3,4.2-3.5,5.4-6c0.3-0.7,0.8-1.5,0.9-2.3c0.2-1.1,0.8-1.2,1.8-1c4.3,0.8,8.6,1.6,13,2.5
			c1.6,0.3,1.6,0.3,1.1,1.9c-1.2,3.5-3,6.6-5.8,9.1c-2.3,2.2-5.1,3.6-8,4.8c-3.6,1.4-7.4,2.3-11.3,2.7
			C41.4,91.3,38.3,91.5,35.3,91.5z"/>
		<path class="st0" d="M505.2,38c-2.6,0-5.1,0-7.6,0c-0.7,0-1.5-0.1-2.2,0.2c-0.5,0.2-0.9,0-1.3-0.6c-2.2-3.8-4.7-7.3-7.7-10.5
			c-5.1-5.4-11-9.6-17.7-12.6c-4.4-1.9-9-3.3-13.9-3.9c-2.7-0.4-5.5-0.7-8.2-0.6c-5.2,0.2-10.3,0.9-15.3,2.4
			c-5.3,1.6-10.2,4-14.8,7.1c-3.8,2.6-7.3,5.7-10.3,9.3c-2.2,2.5-4.1,5.1-5.8,8c-0.1,0.3-0.5,0.5-0.3,0.8s0.6,0.1,0.9,0.1
			c14.4,0,28.8,0,43.2,0c1.8,0,1.8,0,1.8,1.8c0,2.1,0,4.3,0,6.4c0,0.8-0.2,1.1-1.1,1.1c-5.2,0-10.4,0-15.5,0c-14.4,0-28.7,0-43.1,0
			c-0.2,0-0.5,0-0.7,0c-0.2-2.5,5.2-14.3,8.5-19c9.4-13.3,21.9-22.5,37.8-26.2C467.3-6.4,495.2,14.5,505.2,38z"/>
		<path class="st0" d="M423.6,92.9c-7.1,0-14.2,0-21.3,0c-0.3,0-0.8-0.2-0.9,0.2c-0.1,0.3,0.2,0.5,0.4,0.8c2.4,3.6,5.1,7,8.3,9.9
			c5.5,5,11.7,8.8,18.7,11.3c3.8,1.3,7.6,2.3,11.5,2.8c2.3,0.3,4.7,0.5,7,0.4c7-0.2,13.8-1.4,20.3-3.9c4.5-1.8,8.7-4.1,12.5-7.1
			c4.5-3.5,8.5-7.6,11.7-12.4c0.4-0.6,0.8-1.1,1.1-1.7c0.2-0.3,0.5-0.5,0.9-0.5c3.3,0,6.6,0,9.9,0c0.8,0,0.6,0.4,0.4,0.8
			c-1.7,3.3-3.7,6.4-5.9,9.4c-2.3,3.1-4.9,5.9-7.7,8.5c-3.5,3.2-7.3,6-11.4,8.4c-6.3,3.6-13,6.1-20.1,7.5c-2.5,0.5-5.1,0.8-7.7,0.9
			c-1.9,0.1-3.8,0.2-5.6,0.1c-5.9-0.2-11.7-1.1-17.3-2.8c-4-1.2-7.8-2.8-11.5-4.7c-4-2.1-7.7-4.6-11.2-7.5
			c-5.7-4.7-10.3-10.3-14.1-16.7c-2.3-3.8-4.1-7.9-5.5-12.1c-0.1-0.4-0.1-0.5,0.3-0.5c0.3,0,0.6,0,0.9,0c11.1,0,22.1,0.2,33.2-0.1
			c8.1-0.2,16.2,0,24.2-0.2c1,0,1.3,0.3,1.2,1.3c-0.1,2.3-0.1,4.7,0,7c0,0.8-0.2,1-1,1C437.7,92.9,430.7,92.9,423.6,92.9z"/>
		<path class="st0" d="M155.6,61.4c0-9.1,0-18.2,0-27.3c0-1,0.3-1.2,1.3-1.2c17.1,0,34.3,0,51.4,0c1,0,1.3,0.2,1.3,1.2
			c-0.1,2.5-0.1,5.1,0,7.6c0,0.9-0.3,1.1-1.1,1.1c-11.7,0-23.4,0-35.1,0c-1,0-1.3,0.2-1.3,1.3c0.1,3.5,0,7.1,0,10.6
			c0,1.3,0,1.3,1.4,1.3c10.1,0,20.2,0,30.2,0c1.3,0,1.3,0,1.3,1.3c0,2.6,0,5.2,0,7.8c0,0.9-0.2,1.2-1.1,1.2c-10.1,0-20.3,0-30.4,0
			c-1.4,0-1.4,0-1.4,1.4c0,7.1,0,14.2,0,21.3c0,0.9-0.3,1.2-1.2,1.2c-4.7,0-9.4,0-14.1,0c-0.9,0-1.2-0.2-1.2-1.2
			C155.6,79.7,155.6,70.6,155.6,61.4z"/>
		<path class="st0" d="M414.8,52.8c9.9,0,19.9,0,29.8,0c1,0,1.3,0.3,1.2,1.3c-0.1,2.5-0.1,5.1,0,7.6c0,0.8-0.2,1-1,1
			c-7.2,0-14.3-0.2-21.5,0c-13,0.3-26,0-39.1,0.2c-1.4,0-1.6-0.1-1.4-1.5c0.3-2.1,0.2-4.1,0.6-6.2c0.1-0.6,0.2-1.3,0.2-1.9
			c0-0.4,0.2-0.5,0.5-0.5s0.6,0,0.9,0C395.1,52.8,405,52.8,414.8,52.8z"/>
		<path class="st0" d="M414.6,68.7c10,0,20,0,30,0c1,0,1.3,0.2,1.3,1.2c-0.1,2.3-0.1,4.6,0,6.9c0,1-0.3,1.2-1.2,1.2
			c-9,0-18.1,0-27.1,0c-10.7,0-21.3,0-32,0c-0.9,0-1.3-0.1-1.5-1.2c-0.3-2.3-0.6-4.6-0.7-7c-0.1-0.9,0.3-1.1,1.1-1.1
			C394.5,68.7,404.6,68.7,414.6,68.7z"/>
	</g>
</g>
</svg>
