<?xml version="1.0" encoding="utf-8"?>
<!-- Generator: Adobe Illustrator 24.1.3, SVG Export Plug-In . SVG Version: 6.00 Build 0)  -->
<svg version="1.1" id="Layer_1" xmlns="http://www.w3.org/2000/svg" xmlns:xlink="http://www.w3.org/1999/xlink" x="0px" y="0px"
	 viewBox="0 0 850.4 850.4" style="enable-background:new 0 0 850.4 850.4;" xml:space="preserve">
<style type="text/css">
	.st0{fill:#FFFFFF;}
</style>
<g id="Layer_1_1_">
	<path class="st0" d="M425.2,850.4c-57.4,0-113.1-11.2-165.5-33.4c-50.6-21.4-96.1-52.1-135.2-91.1c-39-39-69.7-84.5-91.1-135.2
		C11.2,538.3,0,482.6,0,425.2s11.2-113.1,33.4-165.5c21.4-50.6,52.1-96.1,91.1-135.2c39-39,84.5-69.7,135.2-91.1
		C312.1,11.2,367.8,0,425.2,0s113.1,11.2,165.5,33.4c50.6,21.4,96.1,52.1,135.2,91.1c39,39,69.7,84.5,91.1,135.2
		c22.2,52.4,33.4,108.1,33.4,165.5S839.1,538.3,817,590.7c-21.4,50.6-52.1,96.1-91.1,135.2c-39,39-84.5,69.7-135.2,91.1
		C538.3,839.1,482.6,850.4,425.2,850.4z M425.2,24C371,24,318.5,34.6,269,55.5c-47.8,20.2-90.7,49.1-127.5,86
		c-36.9,36.9-65.8,79.8-86,127.5C34.6,318.5,24,371,24,425.2s10.6,106.7,31.5,156.2c20.2,47.8,49.1,90.7,86,127.5
		c36.9,36.9,79.8,65.8,127.5,86c49.5,20.9,102,31.5,156.2,31.5s106.7-10.6,156.2-31.5c47.8-20.2,90.7-49.1,127.5-86
		c36.9-36.9,65.8-79.8,86-127.5c20.9-49.5,31.5-102,31.5-156.2S815.8,318.5,794.9,269c-20.2-47.8-49.1-90.7-86-127.5
		c-36.9-36.9-79.8-65.8-127.5-86C531.9,34.6,479.4,24,425.2,24z"/>
	<path class="st0" d="M596.1,254.3c-45.7-45.7-106.4-70.8-170.9-70.8c-64.6,0-125.3,25.1-170.9,70.8s-70.8,106.4-70.8,170.9
		c0,64.6,25.1,125.3,70.8,170.9c45.7,45.7,106.4,70.8,170.9,70.8c64.6,0,125.3-25.1,170.9-70.8c45.7-45.7,70.8-106.4,70.8-170.9
		C666.9,360.6,641.8,299.9,596.1,254.3z M416.2,416.2H201.7c1.6-40.8,14.1-79.7,36.1-113.3l178.4,58L416.2,416.2L416.2,416.2z
		 M416.2,434.2v56.6l-177.7,57.7c-22.4-33.8-35.2-73.1-36.8-114.4h214.5V434.2z M434.2,434.2h214.5c-1.6,41.3-14.4,80.5-36.8,114.4
		l-177.7-57.7V434.2z M434.2,416.2v-55.3l178.4-58c22,33.6,34.5,72.4,36.1,113.3H434.2z M601.6,287.6L434.2,342V201.7
		c56.4,2.2,109.1,25.2,149.2,65.3C589.9,273.5,596,280.4,601.6,287.6z M267,267c40.1-40.1,92.8-63.1,149.2-65.3V342l-167.4-54.4
		C254.4,280.4,260.5,273.5,267,267z M249.6,563.9l166.6-54.1v139c-56.4-2.2-109.1-25.2-149.2-65.3
		C260.8,577.2,255,570.7,249.6,563.9z M583.4,583.4c-40.1,40.1-92.8,63.1-149.2,65.3v-139l166.6,54.1
		C595.4,570.7,589.6,577.2,583.4,583.4z"/>
	<g>
		<path class="st0" d="M180.3,529c4,9.5,4.6,16.6,2.1,22.6c-2.8,6.8-7.2,10.7-18.4,15.4c-7.4,3.1-13.5,4.3-20.4,1.7
			c-2.1-0.8-4.1-2-5.9-3.8c-0.1,2.6-0.5,5.2-1.4,7.2c-2.9,6.9-8.6,10.6-18.2,14.7c-12.1,5.1-18.7,5.9-25.8,3.1
			c-6.2-2.5-11-7.8-15.1-17.5l-10.8-25.6l102.9-43.6L180.3,529z M120,543.3l-32.1,13.6l3.3,7.8c3.7,8.7,9.2,10.6,21.3,5.5
			c11.4-4.8,14.5-10.4,10.8-19.1L120,543.3z M161.6,525.6l-27.9,11.8l3.4,8.1c3.5,8.4,9.1,9.9,19,5.8c10.1-4.3,12.5-9.2,8.9-17.6
			L161.6,525.6z"/>
		<path class="st0" d="M156.3,692.8l-11.7-14.2l14.2-17.6l-16.5-20l-19.9,10.7l-11.8-14.3l103.8-49.9l10.9,13.2L156.3,692.8z
			 M156.8,633.7l12.2,14.8l30-37.1L156.8,633.7z"/>
		<path class="st0" d="M288.6,661c1.6,7.9-1.2,15.7-7.3,24.5l-14.5-9.9c2.8-4.1,4.8-7.6,4.5-11.4c-0.1-2.6-1.5-5-4.6-7.2
			c-3-2-5.5-2.2-8-1.7c-3,0.8-5.9,3.4-8.7,7.4c-5.1,7.5-5.6,10.6-0.9,17.7l7.9,11.9c7.9,12.1,6.9,19.9-3.7,35.5
			c-6.5,9.5-12.1,14.9-19.9,16.3c-6.2,1.1-14-0.6-22.2-6.2c-8-5.5-12.5-11.8-13.7-18.3c-1.4-7.4,1-14.2,7.6-23.9l14.5,9.9
			c-3.4,4.9-5,8.4-4.5,12.1c0.3,2.3,1.8,4.9,5.1,7.1c3.4,2.3,6.2,2.9,8.8,2.2c3.5-0.9,6.1-3.6,9.5-8.6c6.7-9.8,6.9-13.4,1.7-21.1
			l-7.9-12.1c-6.7-10.3-6.7-17.7,3-32c5.7-8.3,12.7-13.3,20.9-14.4c6.4-0.7,13,0.7,19.6,5.2C283.2,649.2,287.3,654.8,288.6,661z"/>
		<path class="st0" d="M337.3,725.1l4.3,70.3l-18.1-5.9l-2.9-49.3L307.2,754l-8.9,27.3l-16.7-5.5l34.7-106.3L333,675l-16.3,50
			l39.4-42.5L373,688L337.3,725.1z"/>
		<path class="st0" d="M438.1,707.8l-29.3-1.3l-1.3,31.2l25.3,1.1l-0.7,15.8l-25.3-1.1l-1.4,32.9l29.3,1.3l-0.7,15.8l-46.9-2
			l4.8-111.7l46.9,2L438.1,707.8z"/>
		<path class="st0" d="M510.3,695.4l-18.4,3.9l19.7,93.9l-17.2,3.6l-19.7-93.9l-18.3,3.8l-3.2-15.5l53.9-11.3L510.3,695.4z"/>
		<path class="st0" d="M547.9,661.2c9.2-4.8,16.2-5.9,22.4-3.9c7,2.2,11.3,6.4,16.8,17.1c3.7,7.1,5.4,13.1,3.3,20.2
			c-0.7,2.1-1.7,4.2-3.3,6.2c2.6-0.1,5.2,0.1,7.3,0.8c7.1,2.3,11.3,7.8,16.1,17c6.1,11.7,7.3,18.1,5.1,25.5
			c-2,6.4-6.9,11.6-16.2,16.4l-24.7,12.8l-51.5-99.2L547.9,661.2z M546,680.1l14,26.9l7.8-4.1c8.1-4.2,9.2-9.9,4.3-19.4
			c-5.1-9.8-10.2-11.7-18.2-7.5L546,680.1z M566.8,720.2l16.1,30.9l7.5-3.9c8.4-4.3,9.8-10.1,3.8-21.6c-5.7-11-11.5-13.7-19.9-9.3
			L566.8,720.2z"/>
		<path class="st0" d="M713.1,672.3L699.9,685l-18.6-12.8l-18.7,18l12.2,19l-13.3,12.9l-57.8-99.6l12.3-11.9L713.1,672.3z
			 M654.1,676.4l13.8-13.3l-39.4-27L654.1,676.4z"/>
		<path class="st0" d="M734.6,613.1l15.1-25.2l13.6,8.1l-24.1,40.3l-96-57.3l9-15.1L734.6,613.1z"/>
		<path class="st0" d="M771,532.2l8.4-28.1l15.2,4.6l-13.5,45L674,521.6l5-16.8L771,532.2z"/>
	</g>
	<g>
		<path class="st0" d="M125.5,205.7c7.4-1.9,16.2,0.2,24.6,5.3l-9.6,14.7c-3.5-2.1-7.3-3.8-10.5-3.7c-3-0.1-5.6,1.2-8,4.7
			c-2.3,3.6-2.2,6.6-1,9.3c2.6,5.8,11.8,12.4,28.9,23.5s26.8,16.9,33.2,16.9c3,0.1,5.8-1.1,8.1-4.7s2.4-6.5,1.1-9.2
			c-1.3-3.1-4.4-5.9-7.8-8.2l9.6-14.7c8.3,5.7,13.7,13.2,15,20.8c1.2,6.8,0,12.9-4.6,20c-5.6,8.7-12.8,12.1-19.8,12.9
			c-11.4,1.4-22.1-4.6-44.3-19.1s-32.1-21.8-35.4-32.8c-2.1-6.8-1.9-14.7,3.8-23.4C113.4,211.1,118.8,207.4,125.5,205.7z"/>
		<path class="st0" d="M278.2,202.8L264.7,214l-31.1-37.6l-16.8,13.9l31.1,37.6l-13.5,11.2L163,153l13.5-11.2l30,36.3l16.8-13.9
			l-30-36.3l13.5-11.2L278.2,202.8z"/>
		<path class="st0" d="M307.6,82.9l-27,11.5l12.2,28.8l23.3-9.9l6.2,14.6l-23.3,9.9l12.9,30.4l27-11.5l6.2,14.6l-43.2,18.3
			L258.1,86.7l43.2-18.3L307.6,82.9z"/>
		<path class="st0" d="M441.4,158l-17.5,1.4l-5.5-69.5l-11.6,46.9l-9.7,0.8l-18.4-43.7l5.4,68.7l-17.5,1.4l-8.8-111.4l15.8-1.2
			l26.2,56.8L416.6,48l16-1.3L441.4,158z"/>
		<path class="st0" d="M524.4,177.5l-15-4.1l-7.8-71l-17.6,64l-17-4.7L496.7,54l15.1,4.2l7.7,71l17.6-64l17,4.7L524.4,177.5z"/>
		<path class="st0" d="M564.4,199.4l-15.3-8.7l55.6-97l15.3,8.7L564.4,199.4z"/>
		<path class="st0" d="M689.3,177.6l-13.9-12.7l-64.8,70.7l-13-11.9l64.8-70.7l-13.8-12.6l10.7-11.7l40.6,37.2L689.3,177.6z"/>
		<path class="st0" d="M744.5,249.4l-86,19.2l16.4,25.5l-13.3,8.6l-26.3-41l11.1-7.1l86.1-19.1l-15.4-24l13.3-8.6l25.3,39.4
			L744.5,249.4z"/>
	</g>
</g>
</svg>
