<?xml version="1.0" encoding="utf-8"?>
<!-- Generator: Adobe Illustrator 24.2.1, SVG Export Plug-In . SVG Version: 6.00 Build 0)  -->
<svg version="1.1" id="Ebene_1" xmlns="http://www.w3.org/2000/svg" xmlns:xlink="http://www.w3.org/1999/xlink" x="0px" y="0px"
	 viewBox="0 0 56.7 28.1" style="enable-background:new 0 0 56.7 28.1;" xml:space="preserve">
<style type="text/css">
	.st0{fill-rule:evenodd;clip-rule:evenodd;fill:#FFFFFF;}
	.st1{fill:#FFFFFF;}
</style>
<g>
	<path class="st0" d="M0,24.8h0.4v-0.5H0V24.8z M0,27.9h0.4v-2.7H0V27.9z"/>
	<path class="st1" d="M1.1,27.9h0.4v-1.6c0-0.5,0.3-0.8,0.7-0.8c0.3,0,0.5,0.1,0.5,0.3c0,0.1,0,0.1,0,0.3v1.8h0.4v-1.6
		c0-0.3,0.1-0.5,0.2-0.6c0.1-0.1,0.3-0.2,0.5-0.2c0.3,0,0.5,0.1,0.5,0.4c0,0.1,0,0.1,0,0.3v1.8h0.4v-1.8c0-0.4,0-0.5-0.1-0.7
		c-0.1-0.2-0.4-0.3-0.7-0.3c-0.4,0-0.7,0.2-0.9,0.5c-0.1-0.3-0.4-0.5-0.8-0.5c-0.3,0-0.7,0.2-0.8,0.5v-0.5H1.1V27.9"/>
	<path class="st1" d="M5.3,27.9h0.4v-1.6c0-0.5,0.3-0.8,0.7-0.8c0.3,0,0.5,0.1,0.5,0.3c0,0.1,0,0.1,0,0.3v1.8h0.4v-1.6
		c0-0.3,0.1-0.5,0.2-0.6c0.1-0.1,0.3-0.2,0.5-0.2c0.3,0,0.5,0.1,0.5,0.4c0,0.1,0,0.1,0,0.3v1.8H9v-1.8c0-0.4,0-0.5-0.1-0.7
		c-0.1-0.2-0.4-0.3-0.7-0.3c-0.4,0-0.7,0.2-0.9,0.5c-0.1-0.3-0.4-0.5-0.8-0.5c-0.3,0-0.7,0.2-0.8,0.5v-0.5H5.3L5.3,27.9"/>
	<path class="st0" d="M10.7,25.5c0.5,0,0.8,0.3,0.8,0.9H9.9C9.9,25.8,10.2,25.5,10.7,25.5 M11.9,26.7c0-0.1,0-0.1,0-0.2
		c0-0.8-0.5-1.3-1.2-1.3c-0.7,0-1.2,0.6-1.2,1.4c0,0.9,0.5,1.4,1.3,1.4c0.4,0,0.7-0.1,0.9-0.4c0.1-0.1,0.2-0.3,0.3-0.5h-0.4
		c-0.1,0.4-0.4,0.5-0.7,0.5c-0.5,0-0.9-0.4-0.9-1l0,0L11.9,26.7L11.9,26.7z"/>
	<path class="st1" d="M12.3,27.9h0.4v-1.4c0-0.5,0.3-0.9,0.7-0.9c0,0,0.1,0,0.1,0v-0.4c-0.1,0-0.1,0-0.1,0c-0.4,0-0.7,0.2-0.8,0.6
		v-0.5h-0.4V27.9"/>
	<path class="st0" d="M16.4,25.5c0.5,0,0.8,0.4,0.8,1.1s-0.3,1.1-0.8,1.1c-0.5,0-0.8-0.4-0.8-1.1C15.5,25.9,15.8,25.5,16.4,25.5
		 M15.1,27.9h0.4v-0.5c0.1,0.2,0.1,0.3,0.3,0.4c0.1,0.1,0.3,0.1,0.5,0.1c0.7,0,1.1-0.6,1.1-1.5c0-0.8-0.5-1.4-1.1-1.4
		c-0.4,0-0.7,0.2-0.9,0.5v-1.4h-0.4C15.1,24.2,15.1,27.9,15.1,27.9z"/>
	<path class="st0" d="M19.1,25.5c0.5,0,0.8,0.3,0.8,0.9h-1.6C18.3,25.8,18.6,25.5,19.1,25.5 M20.3,26.7c0-0.1,0-0.1,0-0.2
		c0-0.8-0.5-1.3-1.2-1.3c-0.7,0-1.2,0.6-1.2,1.4c0,0.9,0.5,1.4,1.3,1.4c0.4,0,0.7-0.1,0.9-0.4c0.1-0.1,0.2-0.3,0.3-0.5h-0.4
		c-0.1,0.4-0.4,0.5-0.7,0.5c-0.5,0-0.9-0.4-0.9-1l0,0L20.3,26.7L20.3,26.7z"/>
	<path class="st1" d="M20.5,27.1c0,0.6,0.4,0.9,1.1,0.9c0.7,0,1.1-0.3,1.1-0.9c0-0.3-0.1-0.5-0.5-0.7c-0.1,0-0.1-0.1-0.3-0.1
		c-0.1,0-0.1,0-0.3-0.1h-0.1c-0.3-0.1-0.5-0.1-0.5-0.2c-0.1-0.1-0.1-0.1-0.1-0.3c0-0.3,0.3-0.4,0.6-0.4c0.4,0,0.6,0.2,0.6,0.5V26
		h0.4c0-0.5-0.4-0.9-1-0.9s-1,0.3-1,0.8c0,0.3,0.2,0.5,0.5,0.7c0.1,0,0.2,0.1,0.5,0.1l0.3,0.1c0.3,0.1,0.5,0.2,0.5,0.4
		c0,0.3-0.3,0.5-0.7,0.5c-0.5,0-0.7-0.2-0.7-0.6L20.5,27.1"/>
	<path class="st1" d="M22.9,27.1c0,0.6,0.4,0.9,1.1,0.9c0.7,0,1.1-0.3,1.1-0.9c0-0.3-0.1-0.5-0.5-0.7c-0.1,0-0.1-0.1-0.3-0.1
		c-0.1,0-0.1,0-0.3-0.1H24c-0.3-0.1-0.5-0.1-0.5-0.2c-0.1-0.1-0.1-0.1-0.1-0.3c0-0.3,0.3-0.4,0.6-0.4c0.4,0,0.6,0.2,0.6,0.5V26H25
		c0-0.5-0.4-0.9-1-0.9s-1,0.3-1,0.8c0,0.3,0.2,0.5,0.5,0.7c0.1,0,0.2,0.1,0.5,0.1l0.3,0.1c0.3,0.1,0.5,0.2,0.5,0.4
		c0,0.3-0.3,0.5-0.7,0.5c-0.5,0-0.7-0.2-0.7-0.6L22.9,27.1"/>
	<path class="st0" d="M26.6,25.5c0.5,0,0.8,0.3,0.8,0.9h-1.6C25.9,25.8,26.1,25.5,26.6,25.5 M27.8,26.7c0-0.1,0-0.1,0-0.2
		c0-0.8-0.5-1.3-1.2-1.3s-1.2,0.6-1.2,1.4c0,0.9,0.5,1.4,1.3,1.4c0.4,0,0.7-0.1,0.9-0.4c0.1-0.1,0.2-0.3,0.3-0.5h-0.4
		c-0.1,0.4-0.4,0.5-0.7,0.5c-0.5,0-0.9-0.4-0.9-1l0,0L27.8,26.7L27.8,26.7z"/>
	<path class="st1" d="M28.2,27.9h0.4v-1.4c0-0.5,0.3-0.9,0.7-0.9c0,0,0.1,0,0.1,0v-0.4c-0.1,0-0.1,0-0.1,0c-0.4,0-0.7,0.2-0.8,0.6
		v-0.5h-0.4V27.9"/>
	<path class="st1" d="M30.7,24.2l1,3.7h0.9l0.5-2.4c0-0.1,0.1-0.3,0.1-0.5c0,0.1,0,0.2,0,0.3c0,0.1,0,0.1,0.1,0.3l0.5,2.4h0.9l1-3.7
		h-0.8l-0.5,2.2c0,0.1,0,0.1-0.1,0.2c0,0.1,0,0.2-0.1,0.3c0-0.1,0-0.2,0-0.3c0-0.1,0-0.1-0.1-0.2l-0.5-2.2h-0.9l-0.5,2.2
		c0,0.1,0,0.1,0,0.2c0,0.1,0,0.2,0,0.3c0-0.1,0-0.2-0.1-0.3c0-0.1,0-0.1-0.1-0.2l-0.5-2.2L30.7,24.2"/>
	<path class="st0" d="M37.4,24.8c0.6,0,1,0.5,1,1.3c0,0.8-0.4,1.3-1,1.3s-1-0.5-1-1.3C36.4,25.2,36.8,24.8,37.4,24.8 M35.6,26.1
		c0,0.7,0.2,1.1,0.6,1.5c0.3,0.3,0.7,0.5,1.2,0.5c0.5,0,0.9-0.1,1.2-0.5c0.4-0.3,0.6-0.8,0.6-1.5c0-0.7-0.2-1.1-0.6-1.5
		c-0.3-0.3-0.7-0.5-1.2-0.5c-0.5,0-0.9,0.1-1.2,0.5C35.8,25,35.6,25.5,35.6,26.1"/>
	<polygon class="st1" points="39.5,27.9 40.3,27.9 40.3,26.3 41.7,26.3 41.7,27.9 42.5,27.9 42.5,24.2 41.7,24.2 41.7,25.7 
		40.3,25.7 40.3,24.2 39.5,24.2 	"/>
	<path class="st1" d="M42.9,27.9h0.8v-2.2c0-0.1,0-0.1-0.1-0.3c0-0.1,0-0.1-0.1-0.3c0-0.1,0-0.1-0.1-0.3c0.1,0.2,0.1,0.3,0.1,0.5
		c0.1,0.1,0.1,0.3,0.1,0.3l1.3,2.3H46v-3.7h-0.7v2.2c0,0.1,0.1,0.5,0.1,0.9c-0.1-0.2-0.1-0.3-0.1-0.5c-0.1-0.1-0.1-0.3-0.1-0.3
		l-1.3-2.2h-0.9V27.9"/>
	<polygon class="st1" points="46.4,27.9 49.2,27.9 49.2,27.3 47.2,27.3 47.2,26.3 48.9,26.3 48.9,25.7 47.2,25.7 47.2,24.9 
		49.2,24.9 49.2,24.2 46.4,24.2 	"/>
	<path class="st1" d="M49.5,27.9h0.8v-2.2c0-0.1,0-0.1-0.1-0.3c0-0.1,0-0.1-0.1-0.3c0-0.1,0-0.1-0.1-0.3c0.1,0.2,0.1,0.3,0.1,0.5
		c0.1,0.1,0.1,0.3,0.1,0.3l1.3,2.3h0.9v-3.7h-0.8v2.2c0,0.1,0.1,0.5,0.1,0.9c-0.1-0.2-0.1-0.3-0.1-0.5c-0.1-0.1-0.1-0.3-0.1-0.3
		l-1.3-2.2h-0.9L49.5,27.9"/>
	<path class="st0" d="M45.7,15.4c0.7,0,1.1,0.5,1.1,1.2h-2.2C44.6,15.8,45,15.4,45.7,15.4 M47.3,17c0-0.1,0-0.2,0-0.3
		c0-1.1-0.7-1.9-1.7-1.9s-1.8,0.8-1.8,2s0.7,2,1.8,2c0.5,0,0.9-0.2,1.3-0.5c0.2-0.2,0.3-0.3,0.3-0.7h-0.5c-0.2,0.5-0.5,0.8-1,0.8
		c-0.7,0-1.1-0.5-1.1-1.3l0,0h2.8V17z"/>
	<path class="st1" d="M52.6,15.1c-0.1-0.5-0.1-0.6-0.3-0.9c-0.4-0.5-0.9-0.7-1.8-0.7c-1.5,0-2.4,1.1-2.4,2.8c0,1.6,0.9,2.6,2.3,2.6
		c0.7,0,1.1-0.2,1.5-0.7c0.1-0.1,0.1-0.1,0.2-0.3v0.9h0.5v-2.7h-2.2v0.5h1.6c-0.1,1.1-0.7,1.8-1.6,1.8c-1.1,0-1.8-0.8-1.8-2.2
		s0.7-2.2,1.8-2.2c0.5,0,1,0.2,1.3,0.6c0.1,0.1,0.1,0.3,0.2,0.5L52.6,15.1"/>
	<path class="st1" d="M4.9,15.3c-0.1-0.3-0.1-0.5-0.2-0.7c-0.1-0.3-0.3-0.5-0.5-0.7c-0.4-0.3-0.9-0.5-1.5-0.5
		c-1.5,0-2.6,1.1-2.6,2.7s1,2.7,2.6,2.7c1,0,1.8-0.5,2.2-1.3C4.9,17.3,4.9,17.2,5,17H3.8c-0.1,0.6-0.5,1-1.1,1
		c-0.9,0-1.3-0.7-1.3-1.8c0-1.1,0.5-1.8,1.4-1.8c0.6,0,1,0.3,1.1,0.9L4.9,15.3"/>
	<path class="st0" d="M7.2,15c0.1-0.3,0.1-0.3,0.1-0.5c0,0.3,0,0.3,0.1,0.5l0.5,1.8H6.7L7.2,15 M4.9,18.8h1.2l0.3-1.1h1.8l0.3,1.1
		h1.2l-1.8-5.1H6.7L4.9,18.8z"/>
	<path class="st1" d="M9.2,13.7l1.4,5.1h1.2l0.7-3.3c0.1-0.2,0.1-0.5,0.1-0.7c0,0.2,0,0.3,0.1,0.4c0,0.1,0,0.2,0.1,0.3l0.7,3.3h1.2
		l1.4-5.1h-1.1l-0.7,3.1c0,0.1-0.1,0.2-0.1,0.3c0,0.1-0.1,0.3-0.1,0.5c0-0.2,0-0.3,0-0.5c0-0.1-0.1-0.2-0.1-0.3l-0.7-3.1h-1.3
		l-0.7,3.1c0,0.1,0,0.2-0.1,0.3c0,0.1,0,0.3,0,0.5c0-0.2,0-0.3-0.1-0.5c0-0.1-0.1-0.2-0.1-0.3l-0.7-3.1H9.2"/>
	<path class="st1" d="M20.9,15.3c-0.1-0.5-0.2-0.7-0.4-1c-0.4-0.5-1-0.8-1.8-0.8c-1.5,0-2.6,1.1-2.6,2.8c0,1.5,1,2.7,2.4,2.7
		c0.8,0,1.3-0.3,1.5-0.9l0.1,0.7h0.7V16h-2.4v0.9h1.3c-0.1,0.7-0.6,1.1-1.3,1.1c-0.9,0-1.4-0.7-1.4-1.8c0-1.1,0.5-1.8,1.5-1.8
		c0.4,0,0.7,0.1,1,0.5c0.1,0.1,0.1,0.2,0.2,0.4L20.9,15.3"/>
	<g>
		<path class="st1" d="M32.4,0c-5.9,0-10.8,4.8-10.8,10.8c0,6,4.8,10.8,10.8,10.8s10.8-4.8,10.8-10.8C43.2,4.8,38.4,0,32.4,0z
			 M37.4,4.4c0,0,0.8,0.9,0.8,1.6c0,0.6-0.5,1.3-0.7,1.6v1.8h-0.2V7.6c-0.2-0.3-0.7-1-0.7-1.6C36.7,5.3,37.4,4.4,37.4,4.4z
			 M36.4,7.3c0.5,0.5,0.7,1.8,0.7,1.8S35.8,9,35.3,8.4c-0.5-0.5-0.5-1.7-0.5-1.7S36,6.8,36.4,7.3z M39.8,16.5l-3.7,2.4l-3.7-2.4
			l-3.7,2.4L25,16.5v-5.7V5l3.7-2.4L32.4,5v5.7l3.7,2.4l3.7-2.4V16.5z M39.6,8.4c-0.5,0.5-1.8,0.7-1.8,0.7s0.1-1.3,0.7-1.8
			c0.5-0.5,1.7-0.5,1.7-0.5S40.1,7.9,39.6,8.4z"/>
		<polygon class="st1" points="32.4,10.8 28.7,8.4 25,10.8 28.7,13.1 		"/>
	</g>
	<path class="st0" d="M54.6,11.6v-0.7h0.2c0.3,0,0.5,0.1,0.4,0.4c0,0.3-0.1,0.4-0.5,0.4L54.6,11.6 M54.2,12.8h0.4v-1.1l0.7,1.1h0.4
		l-0.7-1h0.1c0.3-0.1,0.5-0.3,0.5-0.7c0-0.1-0.1-0.3-0.2-0.3c-0.1-0.1-0.3-0.1-0.5-0.1h-0.6L54.2,12.8L54.2,12.8z M53.3,11.6
		c0-0.4,0.2-0.9,0.5-1.1c0.6-0.6,1.6-0.6,2.3,0c0.6,0.7,0.6,1.7,0,2.4c-0.6,0.6-1.6,0.6-2.3,0C53.4,12.5,53.3,12.1,53.3,11.6
		 M52.9,11.6c0,1.1,0.9,2,1.9,2s1.9-0.9,1.9-2c0-0.5-0.2-1-0.5-1.3c-0.7-0.7-2-0.7-2.7,0C53.1,10.7,52.9,11.2,52.9,11.6"/>
</g>
</svg>
