<?xml version="1.0" encoding="utf-8"?>
<!-- Generator: Adobe Illustrator 24.2.1, SVG Export Plug-In . SVG Version: 6.00 Build 0)  -->
<svg version="1.1" id="Ebene_1" xmlns="http://www.w3.org/2000/svg" xmlns:xlink="http://www.w3.org/1999/xlink" x="0px" y="0px"
	 viewBox="0 0 141.7 24.6" style="enable-background:new 0 0 141.7 24.6;" xml:space="preserve">
<style type="text/css">
	.st0{fill:#FFFFFF;}
</style>
<g>
	<path class="st0" d="M18.2,8.3c-0.3-2.9-1.5-5.5-3.3-7.6l-6,0.7C9,1.5,9.2,1.6,9.3,1.7c0.9,0.7,1.7,1.8,2.2,3.2L8,6.1
		C7.7,5.1,7.2,4.5,6.4,4S4.8,3.4,3.9,3.5C2.6,3.6,1.6,4.2,0.8,5.2S-0.1,7.8,0.1,10c0.3,2.2,0.8,3.8,1.8,4.8c0.9,0.8,2.1,1.2,3.4,1.1
		c0.9-0.1,1.8-0.5,2.4-1.2c0.7-0.7,1-1.7,1.2-3.1l3.6,0.7c-0.4,2.1-1.1,3.5-2.2,4.7c-1.1,1.1-2.7,1.8-4.7,2s-3.6-0.2-5.1-1.1L1,23.4
		c1.6,0.4,3.2,0.5,4.8,0.4C13.4,22.9,19,16,18.2,8.3 M17.6,0.5c1.6,2.1,2.5,4.8,2.9,7.6c0.7,7.1-3.3,13.7-9.4,16.5l13.3-1.4L22,0
		L17.6,0.5z"/>
	<g>
		<path class="st0" d="M45.1,13.2c0,1-0.2,1.6-0.5,2.1c-0.5,0.8-1.3,1.2-2.4,1.2c-1.1,0-1.9-0.4-2.3-1c-0.4-0.6-0.5-1.3-0.5-2.5V9.5
			c0-1.4,0.2-2.2,0.7-2.7C40.5,6.2,41.3,6,42.3,6c1.2,0,2,0.5,2.4,1.3C44.9,7.7,45,8.2,45.1,9h-1.7c-0.1-1.2-0.3-1.6-1-1.6
			c-0.7,0-1,0.6-1,2.2v3.1c0,1.7,0.3,2.2,1,2.2c0.7,0,1.1-0.5,1.1-1.8H45.1z"/>
		<path class="st0" d="M46.5,6.1h1.9v4.4h2.1V6.1h1.9v10.4h-1.9v-4.5h-2.1v4.5h-1.9V6.1z"/>
		<path class="st0" d="M53.9,6.1h5v1.5h-3.1v2.8h2.6v1.5h-2.6v2.9H59v1.5h-5L53.9,6.1L53.9,6.1z"/>
		<path class="st0" d="M60.3,6.1h1.8l1.9,5.6l1.9-5.6h1.8v10.4h-1.8v-6.2l-1.3,4h-1.2l-1.3-4v6.2h-1.8L60.3,6.1L60.3,6.1z"/>
		<path class="st0" d="M69.3,6.1h1.9l2.5,6.6V6.1h1.8v10.4h-1.9l-2.6-6.7v6.7h-1.8L69.3,6.1L69.3,6.1z"/>
		<path class="st0" d="M77,6.1h1.9v10.4H77V6.1z"/>
		<path class="st0" d="M81.9,7.6H80V6.1h5.5v1.5h-1.9v8.9h-1.9L81.9,7.6L81.9,7.6z"/>
		<path class="st0" d="M86.3,15.4l3.3-7.8h-3V6.1h4.9v1l-3.3,7.8h3.4v1.5h-5.4L86.3,15.4L86.3,15.4z"/>
		<path class="st0" d="M95.2,15.4l3.3-7.8h-2.9V6.1h4.9v1l-3.3,7.8h3.4v1.5h-5.4V15.4z"/>
		<path class="st0" d="M101.8,6.1h1.9v10.4h-1.9V6.1z"/>
		<path class="st0" d="M105.4,6.1h5v1.5h-3.1v2.8h2.6v1.5h-2.6v2.9h3.2v1.5h-5L105.4,6.1L105.4,6.1z"/>
		<path class="st0" d="M111.8,6.1h1.9v4.4h2.1V6.1h1.9v10.4h-1.9v-4.5h-2.1v4.5h-1.9V6.1z"/>
		<path class="st0" d="M120.6,7.6h-1.9V6.1h5.5v1.5h-1.9v8.9h-1.9L120.6,7.6L120.6,7.6z"/>
		<path class="st0" d="M129.6,14.4l-0.5,2.1h-2.1L130,6.1h1.6l2.9,10.4h-2.1l-0.5-2.1H129.6z M130.8,8.6l-0.9,4.3h1.9L130.8,8.6z"/>
		<path class="st0" d="M135.6,6.1h1.9l2.5,6.6V6.1h1.8v10.4H140l-2.6-6.7v6.7h-1.8V6.1z"/>
	</g>
</g>
</svg>
