<?xml version="1.0" encoding="utf-8"?>
<!-- Generator: Adobe Illustrator 24.1.3, SVG Export Plug-In . SVG Version: 6.00 Build 0)  -->
<svg version="1.1" id="Ebene_1" xmlns="http://www.w3.org/2000/svg" xmlns:xlink="http://www.w3.org/1999/xlink" x="0px" y="0px"
	 viewBox="0 0 500 201.9" style="enable-background:new 0 0 500 201.9;" xml:space="preserve">
<style type="text/css">
	.st0{fill:#FFFFFF;}
</style>
<g>
	<path class="st0" d="M234.5,78.8c0-23.8-12.7-40.7-35-40.7c-12.4,0-20.8,5.7-25.6,14.5V51c0-7.5-5.1-12.1-11.8-12.1
		c-6.6,0-11.8,4.5-11.8,12.1v66.1c0,6.6,5.4,11.8,11.8,11.8c6.6,0,11.8-5.4,11.8-11.8V80c0-10.6,5.4-20.5,18.7-20.5
		c12.4,0,18.1,9.1,18.1,20.5v36.8c0,6.6,5.4,11.8,11.8,11.8c6.6,0,11.8-5.4,11.8-11.8v-38H234.5z"/>
	<path class="st0" d="M314.7,102c0-17.8-13.6-23.5-32.3-28.7c-12.7-3.3-16.6-5.1-16.6-10.3c0-4.8,4.8-6.6,12.4-6.6
		c4.8,0,9.4,0.9,14.8,3.3c3.9,1.5,7.2,3.6,10.6,3.6c6.6,0,9.1-3.6,9.1-8.8c0-5.4-5.1-9.7-12.1-12.7c-6.6-3.3-14.2-4.5-21.7-4.5
		c-23.5,0-35.6,11.2-35.6,25.6c0,13.9,7.2,23.8,32.6,30.5c11.8,3.3,16.3,5.1,16.3,10c0,4.5-4.8,7.2-12.4,7.2c-8.4,0-14.8-3.3-19-6
		c-2.7-1.8-5.4-3.3-9.4-3.3c-4.8,0-8.8,3.3-8.8,7.8c0,3.6,1.5,7.2,5.1,10.3c7.5,5.4,19,9.1,31.4,9.1
		C301.4,128.8,314.7,118,314.7,102"/>
	<path class="st0" d="M45.3,128.8c13.6,0,22.3-3.6,29-7.8c4.2-2.7,8.4-6.3,8.4-11.8c0-4.8-3.6-8.8-9.7-8.8c-3.6,0-6,1.8-8.8,3.9
		c-4.5,3.6-10.9,5.7-18.4,5.7c-13.6,0-20.2-8.4-21.4-18.7h52.8c6,0,8.4-3.9,8.4-7.8c0-26-16.6-45.6-41.3-45.6C19,37.7,0,57,0,83.3
		C0,108,15.4,128.8,45.3,128.8 M45,57c10.6,0,16.9,8.1,18.7,17.2H25.3C26.6,64,34.1,57,45,57"/>
	<path class="st0" d="M124.9,0c-8.1,0-14.8,6.6-14.8,14.8s6.6,14.8,14.8,14.8c8.1,0,14.8-6.6,14.8-14.8S133.1,0,124.9,0"/>
	<path class="st0" d="M136.7,50.1c0-7.8-5.4-12.1-11.8-12.1c-1.2,0-2.7,0.3-3.9,0.9l-24.1,7.2c-5.1,1.5-7.8,5.1-7.8,10.3
		c0,6.6,5.4,11.2,11.2,11.2c0.9,0,1.5-0.3,2.4-0.3L136.4,57v-6.9H136.7z"/>
	<path class="st0" d="M112.9,69.7v47.4c0,6.6,5.4,11.8,11.8,11.8c6.6,0,11.8-5.4,11.8-11.8V62.8L112.9,69.7z"/>
	<path class="st0" d="M182,158.7c-8.8,0-14.8,6.9-14.8,15.1c0,7.8,5.7,15.1,15.1,15.1c5.1,0,9.7-2.4,11.8-5.4
		c0.3-0.3,0.3-0.6,0.3-1.2c0-0.9-0.6-1.5-1.5-1.5c-0.6,0-1.2,0.6-1.5,0.9c-2.4,2.7-5.1,4.2-9.1,4.2c-6.9,0-10.9-5.1-11.2-10.6H194
		c0.9,0,1.5-0.6,1.5-1.5C195.5,165.1,189.8,158.7,182,158.7 M171.1,172c0.6-5.4,4.8-10,10.6-10c5.7,0,9.7,4.2,10.3,10H171.1z
		 M159,148.2c-1.5,0-2.4,1.2-2.4,2.4c0,1.5,1.2,2.4,2.4,2.4c1.5,0,2.4-1.2,2.4-2.4C161.7,149.4,160.5,148.2,159,148.2 M147.3,159
		c-1.2,0-2.1,0.9-2.1,2.1v3.9c-1.8-2.7-5.7-6-11.5-6c-8.1,0-14.8,5.7-14.8,14.8c0,9.1,6.6,14.8,14.8,14.8c4.8,0,9.4-2.4,11.5-6v4.2
		c0,6.6-3,11.8-11.2,11.8c-3.9,0-6.9-0.9-9.7-2.4c-0.6-0.3-1.2-0.6-1.8-0.6c-0.9,0-1.5,0.6-1.5,1.5s0.6,1.5,1.2,1.8
		c2.7,1.5,6.6,3,11.8,3c10.6,0,15.1-6.3,15.1-15.1V162C149.1,159.9,148.2,159,147.3,159 M134,184.7c-6.6,0-11.2-4.5-11.2-11.5
		c0-6.9,4.5-11.5,11.2-11.5c6.3,0,11.2,5.1,11.2,11.5C145.1,179.5,140.3,184.7,134,184.7 M82.4,158.7c-8.8,0-14.8,6.9-14.8,15.1
		c0,7.8,5.7,15.1,15.1,15.1c5.1,0,9.7-2.4,11.8-5.4c0.3-0.3,0.3-0.6,0.3-1.2c0-0.9-0.6-1.5-1.5-1.5c-0.6,0-1.2,0.6-1.5,0.9
		c-2.4,2.7-5.4,4.2-9.1,4.2c-6.9,0-10.9-5.1-11.2-10.6h22.9c0.9,0,1.5-0.6,1.5-1.5C96.3,165.1,90.5,158.7,82.4,158.7 M71.8,172
		c0.6-5.4,4.8-10,10.6-10c5.7,0,9.7,4.2,10.3,10H71.8z M49.5,158.7c-4.8,0-8.8,2.1-10.9,5.7v-3.3c0-1.2-0.9-2.1-2.1-2.1
		c-1.2,0-2.1,0.9-2.1,2.1v25.6c0,1.2,0.9,2.1,2.1,2.1s2.1-0.9,2.1-2.1v-13.9c0-6.3,4.2-10.6,10-10.6c6,0,9.4,3.6,9.4,9.7v14.8
		c0,1.2,0.9,2.1,2.1,2.1s2.1-0.9,2.1-2.1V172C61.9,164.5,57.3,158.7,49.5,158.7 M14.8,158.7C6,158.7,0,165.7,0,173.8
		c0,7.8,5.7,15.1,15.1,15.1c5.1,0,9.4-2.4,11.8-5.4c0.3-0.3,0.3-0.6,0.3-1.2c0-0.9-0.6-1.5-1.5-1.5c-0.6,0-1.2,0.6-1.5,0.9
		c-2.4,2.7-5.4,4.2-9.1,4.2c-6.9,0-10.9-5.1-11.2-10.6h23.2c0.9,0,1.5-0.6,1.5-1.5C28.7,165.1,22.9,158.7,14.8,158.7 M4.2,172
		c0.6-5.4,4.8-10,10.6-10s9.7,4.2,10.3,10H4.2z M115.9,159c-4.8,0-8.1,2.7-9.7,6.6v-4.5c0-1.2-0.9-2.1-2.1-2.1
		c-1.2,0-2.1,0.9-2.1,2.1v25.6c0,1.2,0.9,2.1,2.1,2.1c1.2,0,2.1-0.9,2.1-2.1v-11.5c0-7.5,3.9-12.7,9.7-12.7c1.2,0,2.1-0.6,2.1-1.8
		C118,159.6,117.1,159,115.9,159 M159,159c-1.2,0-2.1,0.9-2.1,2.1v25.6c0,1.2,0.9,2.1,2.1,2.1c1.2,0,2.1-0.9,2.1-2.1v-25.6
		C161.1,159.9,160.2,159,159,159 M325.6,158.7c-4.5,0-7.5,0.9-10,2.1c-0.6,0.3-0.9,0.9-0.9,1.5c0,1.2,0.6,1.5,1.8,1.5
		c0.3,0,0.6,0,0.9-0.3c2.7-0.9,4.8-1.8,8.1-1.8c6.3,0,9.7,2.7,9.7,9.1v3.9c-1.5-1.8-4.8-3.6-9.4-3.6c-7.2,0-12.1,3.6-12.1,8.8
		c0,4.8,4.5,8.8,11.5,8.8c3.9,0,7.5-1.2,10-3.6v1.5c0,1.2,0.6,2.1,2.1,2.1c1.2,0,2.1-0.9,2.1-2.1v-15.7
		C338.9,163.2,334,158.7,325.6,158.7 M325.6,186.2c-4.8,0-8.1-2.1-8.1-5.7c0-3.6,3.3-5.7,8.4-5.7c4.5,0,9.1,2.1,9.1,5.7
		C334.9,183.8,330.4,186.2,325.6,186.2 M392.3,158.7c-4.8,0-8.8,2.1-10.9,5.7v-18.7c0-1.2-0.9-2.1-2.1-2.1c-1.2,0-2.1,0.9-2.1,2.1
		v41c0,1.2,0.9,2.1,2.1,2.1c1.2,0,2.1-0.9,2.1-2.1v-13.9c0-6.3,4.2-10.6,10-10.6c6,0,9.4,3.6,9.4,9.7v14.8c0,1.2,0.9,2.1,2.1,2.1
		s2.1-0.9,2.1-2.1V172C404.6,164.5,400.1,158.7,392.3,158.7 M487.3,158.7c-4.8,0-8.8,2.1-10.9,5.7v-3.3c0-1.2-0.9-2.1-2.1-2.1
		c-1.2,0-2.1,0.9-2.1,2.1v25.6c0,1.2,0.9,2.1,2.1,2.1c1.2,0,2.1-0.9,2.1-2.1v-13.9c0-6.3,4.2-10.6,10-10.6c6,0,9.4,3.6,9.4,9.7v14.8
		c0,1.2,0.9,2.1,2.1,2.1s2.1-0.9,2.1-2.1V172C499.7,164.5,494.9,158.7,487.3,158.7 M452.6,158.7c-8.8,0-14.8,6.9-14.8,15.1
		c0,7.8,5.7,15.1,15.1,15.1c5.1,0,9.7-2.4,11.8-5.4c0.3-0.3,0.3-0.6,0.3-1.2c0-0.9-0.6-1.5-1.5-1.5c-0.6,0-1.2,0.6-1.5,0.9
		c-2.4,2.7-5.4,4.2-9.1,4.2c-6.9,0-10.9-5.1-11.2-10.6h22.9c0.9,0,1.5-0.6,1.5-1.5C466.5,165.1,460.8,158.7,452.6,158.7 M442.1,172
		c0.6-5.4,4.8-10,10.6-10c5.7,0,9.7,4.2,10.3,10H442.1z M422.8,172c-6.3-1.8-8.1-3-8.1-5.7c0-3,3-4.2,7.5-4.2c2.7,0,5.4,0.9,7.5,2.1
		c0.6,0.3,1.2,0.6,1.5,0.6c0.9,0,1.5-0.6,1.5-1.5c0-0.9-0.6-1.5-1.8-2.1c-2.7-1.5-6-2.4-9.1-2.4c-6.9,0-11.5,2.4-11.5,7.5
		c0,4.2,2.7,6.9,11.5,9.4c4.2,1.2,7.5,2.1,7.5,5.4c0,3-2.7,4.8-7.5,4.8c-3.3,0-6.6-1.2-9.1-3c-0.3-0.3-0.9-0.6-1.5-0.6
		c-0.9,0-1.5,0.6-1.5,1.5c0,0.6,0.3,1.2,0.9,1.5c2.7,2.4,6.6,3.6,11.2,3.6c7.2,0,11.5-3.3,11.5-7.8
		C433.9,175.6,429.4,174.1,422.8,172 M359.7,162c3.9,0,6.3,1.2,8.8,4.2c0.3,0.3,0.6,0.9,1.5,0.9c0.9,0,1.8-0.6,1.8-1.5
		c0-0.6,0-0.9-0.3-1.2c-2.1-3-6.3-5.4-11.5-5.4c-8.8,0-15.1,6.3-15.1,15.1c0,8.8,6.3,15.1,15.1,15.1c5.4,0,9.7-2.7,11.5-5.4
		c0.3-0.3,0.3-0.6,0.3-1.2c0-0.9-0.9-1.5-1.8-1.5c-0.6,0-1.2,0.3-1.5,0.9c-2.4,2.7-4.8,4.2-8.8,4.2c-6.3,0-11.2-5.1-11.2-11.8
		C348.5,167.5,353.3,162,359.7,162 M247.4,158.7c-4.8,0-8.8,2.1-10.9,5.7v-3.3c0-1.2-0.9-2.1-2.1-2.1c-1.2,0-2.1,0.9-2.1,2.1v25.6
		c0,1.2,0.9,2.1,2.1,2.1c1.2,0,2.1-0.9,2.1-2.1v-13.9c0-6.3,4.2-10.6,10-10.6c6,0,9.4,3.6,9.4,9.7v14.8c0,1.2,0.9,2.1,2.1,2.1
		s2.1-0.9,2.1-2.1V172C259.8,164.5,255.3,158.7,247.4,158.7 M223,148.2c-1.5,0-2.4,1.2-2.4,2.4c0,1.5,1.2,2.4,2.4,2.4
		c1.5,0,2.4-1.2,2.4-2.4C225.4,149.4,224.2,148.2,223,148.2 M297.8,172c-6.3-1.8-8.1-3-8.1-5.7c0-3,3-4.2,7.5-4.2
		c2.7,0,5.4,0.9,7.5,2.1c0.6,0.3,0.9,0.6,1.5,0.6c1.2,0,1.8-0.6,1.8-1.5c0-0.9-0.6-1.5-1.8-2.1c-2.7-1.5-6-2.4-9.1-2.4
		c-6.9,0-11.5,2.4-11.5,7.5c0,4.2,2.7,6.9,11.5,9.4c4.2,1.2,7.5,2.1,7.5,5.4c0,3-2.7,4.8-7.2,4.8c-3.3,0-6.6-1.2-9.1-3
		c-0.3-0.3-0.9-0.6-1.5-0.6c-0.9,0-1.5,0.6-1.5,1.5c0,0.6,0.3,1.2,0.9,1.5c2.7,2.4,6.6,3.6,11.2,3.6c7.2,0,11.5-3.3,11.5-7.8
		C309,175.6,304.5,174.1,297.8,172 M223,159c-1.2,0-2.1,0.9-2.1,2.1v25.6c0,1.2,0.9,2.1,2.1,2.1c1.2,0,2.1-0.9,2.1-2.1v-25.6
		C224.8,159.9,224.2,159,223,159"/>
</g>
</svg>
