<?xml version="1.0" encoding="utf-8"?>
<!-- Generator: Adobe Illustrator 24.3.0, SVG Export Plug-In . SVG Version: 6.00 Build 0)  -->
<svg version="1.1" id="Ebene_1" xmlns="http://www.w3.org/2000/svg" xmlns:xlink="http://www.w3.org/1999/xlink" x="0px" y="0px"
	 viewBox="0 0 453.5 233.9" style="enable-background:new 0 0 453.5 233.9;" xml:space="preserve">
<style type="text/css">
	.st0{fill:#FFFFFF;}
	.st1{fill-rule:evenodd;clip-rule:evenodd;fill:#FFFFFF;}
</style>
<g>
	<path class="st0" d="M108.7,187.9h13.2l-1.4,4.8c-1.1,3.5-2.6,5.7-4.6,6.7c-1.9,1-5.8,1.5-11.4,1.5c-5.2,0-8.4-0.7-9.6-2
		c-1.3-1.3-1.2-4.1,0-8.2c1.6-5.3,3-8.6,4.2-10c1.3-1.7,2.9-2.8,4.9-3.5c1.8-0.6,4.9-0.9,8.9-0.9c5.4,0,8.6,0.5,10,1.3
		c1.3,0.9,1.4,2.9,0.4,6.1h-5.8c0.4-1.6,0.3-2.5-0.4-2.9c-0.6-0.4-2.4-0.6-5.5-0.6c-3.4,0-5.5,0.3-6.6,1c-1.1,0.7-2,2.2-2.7,4.7
		l-0.8,2.4l-0.9,3c-0.7,2.4-0.8,4-0.1,4.6c0.7,0.6,2.6,1,5.8,1c3.1,0,5.2-0.3,6.2-0.8c1-0.5,1.8-1.8,2.4-4l0.3-1h-7.5L108.7,187.9
		L108.7,187.9z M127.2,183.9h5.1l-0.9,2.6h0.1c1.6-1.8,4.1-2.8,7.3-2.8c3.8,0,5.6,1,5.4,3.1h0.1c1.6-2,4.1-3.1,7.4-3.1
		c4.9,0,6.7,1.9,5.5,5.9l-3.5,11.2h-5.1l3.3-10.3c0.7-2.4-0.1-3.6-2.5-3.6c-3,0-5,1.3-5.9,4l-3,9.9h-5.1l3.3-10.5
		c0.4-1.4,0.5-2.3,0.2-2.7c-0.3-0.4-1.2-0.7-2.7-0.7c-3,0-5.1,1.3-5.9,4.1l-3,9.8H122L127.2,183.9L127.2,183.9z M158.7,200.8
		l7.5-24.2h5.1l-3,9.6h0.1c1.4-1.8,3.9-2.6,7.4-2.6c3,0,4.9,0.6,5.7,1.7c0.7,1.2,0.6,3.4-0.4,6.6c-1.1,3.5-2.4,5.9-4,7.1
		c-1.5,1.2-3.9,1.8-7.1,1.8s-5.1-0.9-5.6-2.8h-0.1l-0.6,2.6h-5V200.8z M173,186.9c-3.3,0-5.4,1.6-6.4,4.9c-0.8,2.5-1,4.2-0.7,4.9
		c0.3,0.7,1.5,1.1,3.5,1.1c2,0,3.5-0.3,4.3-1c0.8-0.7,1.5-2.2,2.2-4.6c0.7-2.2,0.8-3.7,0.5-4.4C176,187.2,174.9,186.9,173,186.9
		L173,186.9z M215.6,176.6l-7.5,24.2h-5.7l3.3-10.5h-14.1l-3.3,10.5h-5.7l7.5-24.2h5.7l-3,9.9h14l3-9.9H215.6L215.6,176.6z
		 M248.1,189.1h4.9l-0.2,0.8l-0.7,2.1c-0.3,1-0.8,2.1-1.5,3.3l3.4,2.9l-3.6,2.6l-2.8-2.4c-1.8,1.7-5.2,2.6-10.1,2.6
		c-5.4,0-8.7-0.5-10.1-1.5s-1.5-3-0.5-6.3c1.1-3.7,3.7-5.7,7.6-6.1c-1.3-1.1-1.6-2.6-1.1-4.4c0.7-2.2,1.8-3.8,3.5-4.6
		s4.2-1.3,7.7-1.3c3.8,0,6.1,0.4,7.2,1.3c1.1,0.9,1.2,2.5,0.5,4.9l-0.4,1.2h-5.1l0.2-0.7c0.4-1.4,0.5-2.3,0.1-2.7
		c-0.4-0.4-1.5-0.5-3.5-0.5c-2.8,0-4.5,0.8-5,2.5c-0.3,1.1,0,2.2,1.2,3.3l7.2,6.3c0.3-0.6,0.6-1.2,0.7-1.7
		C247.8,190.3,248,189.7,248.1,189.1L248.1,189.1z M236.7,189.2c-2.3,0.3-3.9,1.6-4.6,4c-0.6,1.8-0.6,3,0,3.6s2.2,0.7,5,0.7
		c2.3,0,4-0.1,4.7-0.3c0.7-0.2,1.6-0.6,2.6-1.4L236.7,189.2L236.7,189.2z M288.4,192.2h5.7l-0.3,0.8c-1,3.4-2.4,5.5-4.3,6.5
		c-1.8,1-5.4,1.5-10.6,1.5c-5.9,0-9.3-0.8-10.3-2.3c-0.9-1.5-0.3-5.7,1.8-12.5c1.2-4,2.9-6.6,5.2-7.8c2.2-1.2,6.3-1.9,12.2-1.9
		c4.3,0,7,0.5,8.1,1.5c1.1,1,1.2,3,0.2,6.1l-0.1,0.5h-5.7l0.2-0.6c0.5-1.5,0.4-2.5-0.2-3c-0.6-0.4-2.2-0.7-4.9-0.7
		c-3.6,0-5.8,0.3-6.7,1c-0.9,0.7-1.9,2.7-2.9,6.2c-1.4,4.6-1.9,7.3-1.6,8.2c0.4,0.8,2.3,1.3,5.8,1.3c2.8,0,4.8-0.2,5.7-0.7
		c1-0.5,1.7-1.5,2.2-3.1L288.4,192.2L288.4,192.2z M309.4,183.7c4.1,0,6.6,0.5,7.5,1.5c0.9,1,0.9,3.3-0.2,6.6
		c-1.1,3.8-2.5,6.2-4.2,7.4c-1.6,1.1-4.4,1.7-8.3,1.7c-4.3,0-6.9-0.5-7.8-1.6c-0.9-1.1-0.8-3.5,0.3-7.1c1.1-3.6,2.4-5.9,4.1-6.9
		C302.4,184.3,305.2,183.7,309.4,183.7L309.4,183.7z M308.4,186.9c-2.1,0-3.6,0.3-4.3,0.9c-0.7,0.6-1.5,2-2.1,4.3
		c-0.8,2.5-1,4.2-0.7,4.8c0.3,0.6,1.6,0.9,3.8,0.9c2.1,0,3.6-0.3,4.3-1c0.7-0.7,1.5-2.3,2.3-4.9c0.7-2.1,0.8-3.6,0.4-4.2
		C311.6,187.2,310.4,186.9,308.4,186.9L308.4,186.9z M324.3,196.5l-1.3,4.4h-5.1l1.3-4.4H324.3L324.3,196.5z M352.4,176.6l-3,9.9
		h2.6l13-9.9h7.1l-15.7,11.7l9.5,12.4h-7.3l-7.7-10.5h-2.7l-3.3,10.5h-5.7l7.5-24.2h5.7V176.6z M383.6,187.9h13.2l-1.4,4.8
		c-1.1,3.5-2.6,5.7-4.6,6.7s-5.8,1.5-11.4,1.5c-5.2,0-8.4-0.7-9.6-2s-1.2-4.1,0-8.2c1.6-5.3,3-8.6,4.2-10c1.3-1.7,2.9-2.8,4.9-3.5
		c1.8-0.6,4.9-0.9,8.9-0.9c5.4,0,8.6,0.5,10,1.3c1.3,0.9,1.4,2.9,0.4,6.1h-5.8c0.4-1.6,0.3-2.5-0.4-2.9c-0.6-0.4-2.4-0.6-5.5-0.6
		c-3.4,0-5.5,0.3-6.6,1c-1.1,0.7-2,2.2-2.7,4.7l-0.8,2.4l-0.9,3c-0.7,2.4-0.8,4-0.1,4.6c0.7,0.6,2.6,1,5.8,1c3.1,0,5.2-0.3,6.2-0.8
		s1.8-1.8,2.4-4l0.3-1h-7.5L383.6,187.9L383.6,187.9z"/>
	<path class="st0" d="M157.2,32.5l-3.1,9.4h22.8l-1.7,5.1h-22.8l-3.5,10.4h24.2l-1.9,5.9h-33.4l12.1-36.6H183l-1.9,5.9h-23.9V32.5z
		 M200.5,26.6L190.5,57h22.8l-2,6.2h-31.9l12.1-36.6H200.5L200.5,26.6z M235.4,32.5l-3.1,9.4H255l-1.7,5.1h-22.8L227,57.4h24.2
		l-1.9,5.9H216L228,26.7h33.2l-1.9,5.9h-24V32.5z M278.6,26.6l-5,14.9h4.4l21.1-14.9h11.5L285,44.4l15.4,18.8h-11.8l-12.5-15.8h-4.4
		l-5.3,15.8h-9.2l12.1-36.6H278.6L278.6,26.6z M334.6,32.9l-10.1,30.4h-9.2l10.1-30.4h-13.9l2-6.2h37.7l-2,6.2H334.6L334.6,32.9z
		 M344.8,63.3l12.1-36.6h23.9c5.9,0,9.8,0.8,11.5,2.3c1.7,1.5,1.9,4.4,0.6,8.4c-1.2,3.7-2.6,6.2-4.2,7.6c-1.6,1.3-4.2,2.3-7.8,2.8
		l-0.1,0.2c5.3,0.3,7.2,2.6,5.7,7.1l-2.6,8h-9.2l2.2-6.7c1.2-3.8-0.6-5.7-5.5-5.7h-13.2L354,63.2h-9.2V63.3z M360,45.1h13.2
		c3.1,0,5.4-0.4,6.7-1.3c1.3-0.8,2.3-2.5,3.3-5.1c0.9-2.6,1-4.3,0.3-5.1c-0.6-0.7-2.4-1.1-5.5-1.1h-13.8L360,45.1L360,45.1z
		 M425.1,26.3c8.8,0,14.1,1.1,15.9,3.4c1.8,2.2,1.4,7.1-1.1,14.8c-2.7,8.4-5.8,13.7-9,15.8s-9.8,3.3-19.6,3.3
		c-8.8,0-14.1-1.1-16-3.3c-1.8-2.1-1.6-6.9,0.8-14.2c2.8-8.7,6-14.2,9.2-16.5C408.6,27.4,415.2,26.3,425.1,26.3L425.1,26.3z
		 M422.5,32.3c-6.2,0-10,0.6-11.4,1.8c-1.4,1.2-3.4,5.4-5.7,12.5c-1.7,5.3-2.2,8.4-1.3,9.4c0.8,1.1,4.3,1.6,10.3,1.6
		c5.7,0,9.3-0.6,10.9-1.8c1.5-1.2,3.4-4.9,5.4-11s2.7-9.8,2-10.9C431.7,32.8,428.5,32.3,422.5,32.3L422.5,32.3z"/>
	<path class="st1" d="M55.8,164l27.4-74.9c3.3-8.7,5.7-13.4,18-13.4h17.1l-26.6,75.4c-2.3,6.5-4.9,12.7-20.5,12.9L55.8,164L55.8,164
		z M235.9,136.9l17.1-47.4c4.5-12.5,11.5-13.7,20.2-13.7h16l-28,75.1c-3.5,9.1-12.7,13.3-21.8,13.3H192l0,0h-11.2
		c-11.1,0-13.9-10-10.1-20.8l19.3-53.8c3.4-9.2,4.9-13.6,20.3-13.7h11l-22.2,66.6h30.1C232,142.5,234.7,140,235.9,136.9L235.9,136.9
		z M102.1,143.3l13.3-37.2h52.3l-7.7,24.5h-23.7l-4.3,11.7h34.1l-6.9,21.7H112C101.1,164,98.2,154.1,102.1,143.3L102.1,143.3z
		 M118.2,98.2l3.1-8.7c2.3-6.5,8-13.4,23.4-13.6l42.6-0.1l-7.1,22.4H118.2L118.2,98.2z M272.2,143.3l13.3-37.2h52.3l-7.7,24.5h-23.7
		l-4.3,11.7h34.1l-6.9,21.7h-47.2C271.2,164,268.4,154.1,272.2,143.3L272.2,143.3z M288.4,98.2l3.1-8.7c2.3-6.5,8-13.6,23.4-13.7
		h42.6l-7.1,22.4H288.4L288.4,98.2z M339.9,142.3l13-36.2h28.3l-11.5,36.2h16.6l4.4-12h-5.4l5.2-16.2h30.7l-15.8,49.8h-54.1
		C340.1,164,335.6,154.3,339.9,142.3L339.9,142.3z M355.7,98.2l3.1-8.7c2.3-6.5,8-13.6,23.4-13.7h46.1l-7.1,22.4H355.7L355.7,98.2z
		 M26.5,133.9L48.1,89c4.3-8.7,7.2-13.4,19.5-13.4h17.1l-40.4,75.4c-3.5,6.4-10.1,13.2-22,13.2H0c2.7-25.3,5.4-50.6,8.2-75.9
		c0.9-8.4,6.7-12.4,12.8-12.4h15L26.5,133.9L26.5,133.9z M206.8,138.2L224,86.9c2.1-6.3,7.7-11.3,16.4-11.3h11.8l-18.3,48.8
		c-2.6,7.1-9,13.5-20.1,13.7L206.8,138.2L206.8,138.2z"/>
	<polygon class="st1" points="118.7,0 122.5,0 98.5,64.8 94.8,64.8 	"/>
	<polygon class="st1" points="139.7,0 143.4,0 119.5,64.8 115.7,64.8 	"/>
	<polygon class="st1" points="56,170.3 59.7,170.3 35.9,233.9 32.1,233.9 	"/>
	<polygon class="st1" points="76.9,170.3 80.7,170.3 56.8,233.9 53,233.9 	"/>
	<polygon class="st1" points="129.2,0 133,0 109,64.8 105.2,64.8 	"/>
	<polygon class="st1" points="66.4,170.3 70.2,170.3 46.3,233.9 42.6,233.9 	"/>
	<g>
		<path class="st0" d="M431.4,86.8c0-6.1,5-11.1,11.1-11.1s11.1,5,11.1,11.1c0,6.2-4.9,11.1-11.1,11.1C436.4,98,431.4,93,431.4,86.8
			z M451.6,86.8c0-5-4.1-9.1-9.1-9.1c-5.1,0-9.1,4.1-9.1,9.1c0,5.1,4.1,9.1,9.1,9.1C447.6,96.1,451.6,91.9,451.6,86.8z M440.2,87.7
			v5.6h-2v-13h4.2c2.3,0,4.9,0.6,4.9,3.6c0,1.5-0.9,2.6-2.6,3v0.1c1.8,0.3,2,1.1,2.2,2.5c0.2,1.2,0.3,2.6,0.8,3.8H445
			c-0.1-0.7-0.3-1.5-0.4-2.3c-0.1-1.1-0.1-2.1-0.7-2.7c-0.5-0.5-1.2-0.5-1.9-0.5L440.2,87.7L440.2,87.7z M442.4,85.6
			c1.9-0.1,2.3-0.8,2.3-1.8c0-1-0.4-1.5-2-1.5h-2.4v3.4H442.4z"/>
	</g>
</g>
</svg>
