<?xml version="1.0" encoding="utf-8"?>
<!-- Generator: Adobe Illustrator 25.0.1, SVG Export Plug-In . SVG Version: 6.00 Build 0)  -->
<svg version="1.1" id="Ebene_1" xmlns="http://www.w3.org/2000/svg" xmlns:xlink="http://www.w3.org/1999/xlink" x="0px" y="0px"
	 viewBox="0 0 1497.2 887.5" style="enable-background:new 0 0 1497.2 887.5;" xml:space="preserve">
<style type="text/css">
	.st0{fill:#FFFFFF;}
</style>
<g>
	<path class="st0" d="M161.5,825.3c-11.4,0-22.8-4.8-30.7-14.2c-84.6-99.9-131.2-227-131.2-358c0-87.7,21-175.1,60.8-252.6
		C98.9,125.5,155,59.2,222.7,8.7c17.8-13.3,43-9.6,56.3,8.2s9.6,43-8.2,56.3C149.6,163.6,80.1,302.1,80.1,453.1
		c0,112,39.8,220.6,112.1,305.9c14.4,17,12.3,42.3-4.7,56.7C179.9,822.1,170.6,825.3,161.5,825.3"/>
	<path class="st0" d="M553.7,888.2c-239.9,0-435.1-195.2-435.1-435.1c0-105.2,38-206.7,107.1-285.9c9.6-11,26.3-12.2,37.4-2.5
		c11,9.6,12.2,26.3,2.5,37.3c-60.7,69.5-94.1,158.7-94.1,251.1c0,210.7,171.4,382.1,382.1,382.1c87.9,0,173.8-30.6,241.7-86.1
		c11.3-9.3,28-7.6,37.2,3.7c9.2,11.3,7.6,28-3.7,37.2C751.5,853.3,653.8,888.2,553.7,888.2"/>
	<path class="st0" d="M261.9,608.3c-7.2,0-14-4.1-17.3-11c-21.2-45.3-31.9-93.8-31.9-144.2c0-188,153-341,341-341
		c103.9,0,200.8,46.5,265.9,127.5c6.6,8.2,5.3,20.2-2.9,26.8c-8.2,6.6-20.2,5.3-26.8-2.9C732,191.5,646,150.2,553.7,150.2
		c-167,0-302.8,135.9-302.8,302.8c0,44.7,9.5,87.8,28.3,128c4.5,9.5,0.3,20.9-9.2,25.3C267.3,607.7,264.6,608.3,261.9,608.3"/>
	<polygon class="st0" points="429.7,393.7 429.7,433.8 514.3,433.8 514.3,483.8 429.7,483.8 429.7,571.9 373.6,571.9 373.6,343.7 
		528.7,343.7 528.7,393.7 	"/>
	<path class="st0" d="M698,406.5c-5.1-7.7-12.8-12.8-26.9-12.8h-24.7v128.2h24.7c14.1,0,21.8-5.1,26.9-12.8
		c4.5-6.4,6.1-12.5,6.1-51.3C704.1,419.4,702.5,412.9,698,406.5 M736.4,549.5c-15.7,15.7-37.8,22.4-61.5,22.4h-84.6V343.7h84.6
		c23.7,0,45.8,6.7,61.5,22.4c26.6,26.6,23.7,55.8,23.7,91.7C760.2,493.7,763.1,522.9,736.4,549.5"/>
	<polygon class="st0" points="899.6,359.1 899.6,571.9 882.3,571.9 882.3,359.1 814.3,359.1 814.3,343.7 967.9,343.7 967.9,359.1 	
		"/>
	<path class="st0" d="M1091.6,455.9c-6.7-16-22.4-26-40.1-26c-17.6,0-33.3,9.9-40.1,26c-3.8,9.6-4.8,14.4-5.5,29.2h91
		C1096.4,470.3,1095.4,465.5,1091.6,455.9L1091.6,455.9L1091.6,455.9z M1006,498.2c0,39.1,17.6,60.9,50.3,60.9
		c18.3,0,29.5-5.5,42.6-18.6l12.2,9.6c-15.7,15.7-30.1,23.7-55.8,23.7c-42.6,0-65.7-27.6-65.7-79.2c0-49.7,23.1-79.2,61.9-79.2
		c38.5,0,61.9,28.2,61.9,75.3v7.4L1006,498.2L1006,498.2z"/>
	<path class="st0" d="M1253.2,573.9c-42,0-68-30.1-68-79.2c0-49,26-79.2,68-79.2c21.2,0,34.3,5.4,51,23.7l-11.2,10.3
		c-13.1-14.7-23.4-19.6-39.8-19.6c-17.3,0-31.7,7.1-41,20.5c-7.7,11.2-10.6,23.4-10.6,44.2c0,20.8,2.9,33,10.6,44.2
		c9.3,13.5,23.7,20.5,41,20.5c16.4,0,26.6-4.8,39.8-19.6l11.2,10.3C1287.5,568.4,1274.3,573.9,1253.2,573.9"/>
	<path class="st0" d="M1480.4,571.9v-95.8c0-29.8-15.1-46.2-42.6-46.2c-27.6,0-43.6,17-43.6,46.2v95.8h-16.3V343.7h16.3v92
		c11.5-13.5,26.9-20.2,45.5-20.2c35.3,0,57.1,22.1,57.1,57.7v98.7H1480.4L1480.4,571.9z"/>
	<polygon class="st0" points="378,617.7 378,632.5 395.7,632.5 395.7,636.4 378,636.4 378,654.2 373.7,654.2 373.7,613.8 
		398.7,613.8 398.7,617.7 	"/>
	<path class="st0" d="M430.4,654.5c-8.2,0-14-5.6-14-13.7v-27h4.3v26.7c0,6.1,3.9,10.1,9.7,10.1c5.9,0,9.8-4,9.8-10.1v-26.7h4.3v27
		C444.5,648.9,438.5,654.5,430.4,654.5"/>
	<polygon class="st0" points="477.8,617.7 477.8,654.2 473.4,654.2 473.4,617.7 461.8,617.7 461.8,613.8 489.4,613.8 489.4,617.7 	
		"/>
	<path class="st0" d="M520.8,654.5c-8.2,0-14-5.6-14-13.7v-27h4.3v26.7c0,6.1,3.9,10.1,9.7,10.1c5.9,0,9.8-4,9.8-10.1v-26.7h4.3v27
		C534.9,648.9,528.9,654.5,520.8,654.5"/>
	<path class="st0" d="M571.4,617.7h-10.8v14.8h10.8c4.7,0,8-2.4,8-7.4C579.4,620.2,576.1,617.7,571.4,617.7L571.4,617.7L571.4,617.7
		z M579.5,654.2l-9.2-17.9h-9.7v17.9h-4.3v-40.3h15.5c7,0,12,4.3,12,11.2c0,5.9-3.6,9.7-8.8,10.8l9.6,18.3H579.5L579.5,654.2z"/>
	<polygon class="st0" points="603.8,654.2 603.8,613.8 628.9,613.8 628.9,617.7 608.1,617.7 608.1,631.9 625.8,631.9 625.8,635.7 
		608.1,635.7 608.1,650.3 628.9,650.3 628.9,654.2 	"/>
	<path class="st0" d="M693.6,620.6c-2.1-2.2-4.8-2.9-7.9-2.9h-8.8v32.6h8.8c3.1,0,5.8-0.8,7.9-2.9c2.8-2.9,2.7-8.9,2.7-13.8
		C696.2,628.6,696.4,623.5,693.6,620.6 M696.6,650.4c-2.4,2.4-6,3.7-10.2,3.7h-13.8v-40.3h13.8c4.2,0,7.8,1.3,10.2,3.7
		c4.2,4.2,4,10.4,4,16C700.5,639.1,700.8,646.2,696.6,650.4"/>
	<path class="st0" d="M736.1,617.7h-10.8v14.8h10.8c4.7,0,8-2.4,8-7.4C744.1,620.2,740.8,617.7,736.1,617.7L736.1,617.7L736.1,617.7
		z M744.2,654.2l-9.2-17.9h-9.7v17.9H721v-40.3h15.5c7,0,12,4.3,12,11.2c0,5.9-3.6,9.7-8.8,10.8l9.6,18.3H744.2L744.2,654.2z"/>
	<rect x="768.5" y="613.8" class="st0" width="4.3" height="40.3"/>
	<polygon class="st0" points="806.2,654.2 802.7,654.2 789.4,613.8 794,613.8 804.4,646.4 814.9,613.8 819.5,613.8 	"/>
	<rect x="836.1" y="613.8" class="st0" width="4.3" height="40.3"/>
	<polygon class="st0" points="888.1,654.2 866.7,621.8 866.7,654.2 862.4,654.2 862.4,613.8 866.4,613.8 887.9,646.1 887.9,613.8 
		892.2,613.8 892.2,654.2 	"/>
	<path class="st0" d="M937.5,649.8c-2.8,3.1-6.6,4.6-10.8,4.6c-4,0-7.6-1.5-10.3-4.2c-3.8-3.8-3.8-7.8-3.8-16.3
		c0-8.6,0-12.5,3.8-16.3c2.7-2.7,6.3-4.2,10.3-4.2c7.7,0,12.9,5,14.1,12.1h-4.3c-1.1-5.1-4.8-8.2-9.8-8.2c-2.7,0-5.2,1.1-7,2.9
		c-2.6,2.6-2.8,5.3-2.8,13.8c0,8.4,0.3,11.2,2.8,13.8c1.8,1.8,4.3,2.8,7,2.8c2.9,0,5.8-1.2,7.6-3.5c1.6-2,2.3-4.2,2.3-7.3v-3.1h-9.9
		v-3.8h14.2v6.4C941,644.1,940,647.2,937.5,649.8"/>
	<polygon class="st0" points="997.6,617.7 997.6,654.2 993.3,654.2 993.3,617.7 981.6,617.7 981.6,613.8 1009.3,613.8 1009.3,617.7 
			"/>
	<polygon class="st0" points="1027.1,654.2 1027.1,613.8 1052.2,613.8 1052.2,617.7 1031.4,617.7 1031.4,631.9 1049.1,631.9 
		1049.1,635.7 1031.4,635.7 1031.4,650.3 1052.2,650.3 1052.2,654.2 	"/>
	<path class="st0" d="M1084,654.5c-4,0-7.6-1.5-10.3-4.2c-3.8-3.8-3.8-7.8-3.8-16.3c0-8.6,0-12.5,3.8-16.3c2.7-2.7,6.3-4.2,10.3-4.2
		c7.3,0,12.6,4.4,14,12h-4.4c-1.1-4.9-4.5-8.2-9.6-8.2c-2.7,0-5.2,1-7,2.8c-2.6,2.6-2.8,5.4-2.8,13.8c0,8.4,0.3,11.2,2.8,13.8
		c1.8,1.8,4.3,2.8,7,2.8c5,0,8.6-3.2,9.7-8.2h4.3C1096.7,650.1,1091.2,654.5,1084,654.5"/>
	<polygon class="st0" points="1141.3,654.2 1141.3,635.7 1122.2,635.7 1122.2,654.2 1117.9,654.2 1117.9,613.8 1122.2,613.8 
		1122.2,631.9 1141.3,631.9 1141.3,613.8 1145.6,613.8 1145.6,654.2 	"/>
	<polygon class="st0" points="1193.4,654.2 1171.9,621.8 1171.9,654.2 1167.6,654.2 1167.6,613.8 1171.7,613.8 1193.1,646.1 
		1193.1,613.8 1197.4,613.8 1197.4,654.2 	"/>
	<path class="st0" d="M1239,620.2c-1.8-1.8-4.3-2.9-7-2.9s-5.2,1.1-7,2.9c-2.6,2.6-2.8,5.3-2.8,13.8c0,8.4,0.3,11.2,2.8,13.8
		c1.8,1.8,4.3,2.9,7,2.9s5.2-1.1,7-2.9c2.5-2.6,2.8-5.3,2.8-13.8C1241.8,625.5,1241.5,622.8,1239,620.2 M1242.3,650.3
		c-2.7,2.7-6.3,4.2-10.3,4.2s-7.6-1.5-10.3-4.2c-3.8-3.8-3.8-7.8-3.8-16.3c0-8.6,0-12.5,3.8-16.3c2.7-2.7,6.3-4.2,10.3-4.2
		s7.6,1.5,10.3,4.2c3.8,3.8,3.8,7.8,3.8,16.3S1246.1,646.5,1242.3,650.3"/>
	<polygon class="st0" points="1266.6,654.2 1266.6,613.8 1270.9,613.8 1270.9,650.3 1291.5,650.3 1291.5,654.2 	"/>
	<path class="st0" d="M1326.9,620.2c-1.8-1.8-4.3-2.9-7-2.9s-5.2,1.1-7,2.9c-2.6,2.6-2.8,5.3-2.8,13.8c0,8.4,0.3,11.2,2.8,13.8
		c1.8,1.8,4.3,2.9,7,2.9s5.2-1.1,7-2.9c2.5-2.6,2.8-5.3,2.8-13.8C1329.7,625.5,1329.4,622.8,1326.9,620.2 M1330.2,650.3
		c-2.7,2.7-6.3,4.2-10.3,4.2s-7.6-1.5-10.3-4.2c-3.8-3.8-3.8-7.8-3.8-16.3c0-8.6,0-12.5,3.8-16.3c2.7-2.7,6.3-4.2,10.3-4.2
		s7.6,1.5,10.3,4.2c3.8,3.8,3.8,7.8,3.8,16.3S1334,646.5,1330.2,650.3"/>
	<path class="st0" d="M1377.8,649.8c-2.8,3.1-6.6,4.6-10.8,4.6c-4,0-7.6-1.5-10.3-4.2c-3.8-3.8-3.8-7.8-3.8-16.3
		c0-8.6,0-12.5,3.8-16.3c2.7-2.7,6.3-4.2,10.3-4.2c7.7,0,12.9,5,14.1,12.1h-4.3c-1.1-5.1-4.8-8.2-9.8-8.2c-2.7,0-5.2,1.1-7,2.9
		c-2.6,2.6-2.8,5.3-2.8,13.8c0,8.4,0.3,11.2,2.8,13.8c1.8,1.8,4.3,2.8,7,2.8c2.9,0,5.8-1.2,7.6-3.5c1.6-2,2.3-4.2,2.3-7.3v-3.1h-9.9
		v-3.8h14.2v6.4C1381.3,644.1,1380.3,647.2,1377.8,649.8"/>
	<rect x="1401.7" y="613.8" class="st0" width="4.3" height="40.3"/>
	<polygon class="st0" points="1427.9,654.2 1427.9,613.8 1453,613.8 1453,617.7 1432.3,617.7 1432.3,631.9 1449.9,631.9 
		1449.9,635.7 1432.3,635.7 1432.3,650.3 1453,650.3 1453,654.2 	"/>
	<path class="st0" d="M1482.6,654.5c-6.1,0-10-1.5-13.8-5.3l2.9-2.9c3.3,3.3,6.5,4.4,11,4.4c5.9,0,9.5-2.8,9.5-7.5
		c0-2.1-0.6-3.9-1.9-5s-2.3-1.5-5.3-1.9l-4.7-0.7c-3.2-0.5-5.7-1.5-7.4-3.1c-2-1.8-3.1-4.3-3.1-7.5c0-6.9,4.9-11.4,12.9-11.4
		c5.2,0,8.6,1.3,12,4.4l-2.8,2.8c-2.5-2.3-5.2-3.5-9.4-3.5c-5.4,0-8.5,3-8.5,7.5c0,2,0.6,3.6,1.8,4.6c1.2,1.1,3.3,1.9,5.4,2.2
		l4.4,0.7c3.8,0.6,5.7,1.4,7.4,2.8c2.2,1.9,3.4,4.6,3.4,8C1496.6,650.1,1491,654.5,1482.6,654.5"/>
</g>
</svg>
