<?xml version="1.0" encoding="utf-8"?>
<!-- Generator: Adobe Illustrator 25.0.0, SVG Export Plug-In . SVG Version: 6.00 Build 0)  -->
<svg version="1.1" id="Ebene_1" xmlns="http://www.w3.org/2000/svg" xmlns:xlink="http://www.w3.org/1999/xlink" x="0px" y="0px"
	 viewBox="0 0 283.5 168" style="enable-background:new 0 0 283.5 168;" xml:space="preserve">
<style type="text/css">
	.st0{fill-rule:evenodd;clip-rule:evenodd;fill:#FFFFFF;}
	.st1{clip-path:url(#SVGID_4_);fill:#FFFFFF;}
	.st2{clip-path:url(#SVGID_8_);fill:#FFFFFF;}
	.st3{clip-path:url(#SVGID_12_);fill:#FFFFFF;}
	.st4{clip-path:url(#SVGID_16_);fill:#FFFFFF;}
	.st5{clip-path:url(#SVGID_20_);fill:#FFFFFF;}
	.st6{clip-path:url(#SVGID_24_);fill:#FFFFFF;}
	.st7{clip-path:url(#SVGID_28_);fill:#FFFFFF;}
	.st8{clip-path:url(#SVGID_32_);fill:#FFFFFF;}
	.st9{clip-path:url(#SVGID_36_);fill:#FFFFFF;}
	.st10{clip-path:url(#SVGID_40_);fill:#FFFFFF;}
	.st11{clip-path:url(#SVGID_44_);fill:#FFFFFF;}
	.st12{clip-path:url(#SVGID_48_);fill:#FFFFFF;}
	.st13{clip-path:url(#SVGID_52_);fill:#FFFFFF;}
	.st14{clip-path:url(#SVGID_56_);fill:#FFFFFF;}
	.st15{clip-path:url(#SVGID_60_);fill:#FFFFFF;}
	.st16{clip-path:url(#SVGID_64_);fill:#FFFFFF;}
	.st17{clip-path:url(#SVGID_68_);fill:#FFFFFF;}
	.st18{fill:#FFFFFF;}
	.st19{clip-path:url(#SVGID_70_);fill:#FFFFFF;}
	.st20{clip-path:url(#SVGID_72_);fill:#FFFFFF;}
	.st21{clip-path:url(#SVGID_74_);fill:#FFFFFF;}
	.st22{clip-path:url(#SVGID_76_);fill:#FFFFFF;}
	.st23{clip-path:url(#SVGID_78_);fill:#FFFFFF;}
	.st24{clip-path:url(#SVGID_80_);fill:#FFFFFF;}
	.st25{clip-path:url(#SVGID_82_);fill:#FFFFFF;}
	.st26{clip-path:url(#SVGID_84_);fill:#FFFFFF;}
	.st27{clip-path:url(#SVGID_86_);fill:#FFFFFF;}
	.st28{clip-path:url(#SVGID_88_);fill:#FFFFFF;}
	.st29{clip-path:url(#SVGID_90_);fill:#FFFFFF;}
	.st30{clip-path:url(#SVGID_92_);fill:#FFFFFF;}
	.st31{clip-path:url(#SVGID_94_);fill:#FFFFFF;}
	.st32{clip-path:url(#SVGID_96_);fill:#FFFFFF;}
	.st33{clip-path:url(#SVGID_98_);fill:#FFFFFF;}
	.st34{clip-path:url(#SVGID_100_);fill:#FFFFFF;}
	.st35{clip-path:url(#SVGID_102_);fill:#FFFFFF;}
</style>
<g>
	<g>
		<g>
			<path id="SVGID_1_" class="st0" d="M30.7,156.1c-2.2,0-4.3-0.9-5.8-2.7C8.8,134.5,0,110.5,0,85.7C0,69,4,52.5,11.5,37.8
				c7.3-14.2,17.9-26.8,30.7-36.3c3.4-2.5,8.1-1.8,10.7,1.6s1.8,8.1-1.6,10.7C28.4,30.8,15.2,57.1,15.2,85.7
				c0,21.2,7.5,41.8,21.2,57.9c2.7,3.2,2.3,8-0.9,10.7C34.1,155.5,32.4,156.1,30.7,156.1"/>
		</g>
		<g>
			<defs>
				<path id="SVGID_2_" d="M30.7,156.1c-2.2,0-4.3-0.9-5.8-2.7C8.8,134.5,0,110.5,0,85.7C0,69,4,52.5,11.5,37.8
					c7.3-14.2,17.9-26.8,30.7-36.3c3.4-2.5,8.1-1.8,10.7,1.6s1.8,8.1-1.6,10.7C28.4,30.8,15.2,57.1,15.2,85.7
					c0,21.2,7.5,41.8,21.2,57.9c2.7,3.2,2.3,8-0.9,10.7C34.1,155.5,32.4,156.1,30.7,156.1"/>
			</defs>
			<clipPath id="SVGID_4_">
				<use xlink:href="#SVGID_2_"  style="overflow:visible;"/>
			</clipPath>
			<rect x="-0.9" y="-0.9" class="st1" width="56.3" height="158"/>
		</g>
	</g>
	<g>
		<g>
			<path id="SVGID_3_" class="st0" d="M104.9,168c-45.4,0-82.4-37-82.4-82.4c0-19.9,7.2-39.1,20.3-54.1c1.8-2.1,5-2.3,7.1-0.5
				c2.1,1.8,2.3,5,0.5,7.1c-11.5,13.2-17.8,30-17.8,47.5c0,39.9,32.5,72.3,72.3,72.3c16.6,0,32.9-5.8,45.8-16.3
				c2.1-1.8,5.3-1.4,7,0.7c1.7,2.1,1.4,5.3-0.7,7C142.4,161.4,123.9,168,104.9,168"/>
		</g>
		<g>
			<defs>
				<path id="SVGID_6_" d="M104.9,168c-45.4,0-82.4-37-82.4-82.4c0-19.9,7.2-39.1,20.3-54.1c1.8-2.1,5-2.3,7.1-0.5
					c2.1,1.8,2.3,5,0.5,7.1c-11.5,13.2-17.8,30-17.8,47.5c0,39.9,32.5,72.3,72.3,72.3c16.6,0,32.9-5.8,45.8-16.3
					c2.1-1.8,5.3-1.4,7,0.7c1.7,2.1,1.4,5.3-0.7,7C142.4,161.4,123.9,168,104.9,168"/>
			</defs>
			<clipPath id="SVGID_8_">
				<use xlink:href="#SVGID_6_"  style="overflow:visible;"/>
			</clipPath>
			<rect x="21.6" y="28.9" class="st2" width="138.2" height="140.1"/>
		</g>
	</g>
	<g>
		<g>
			<path id="SVGID_5_" class="st0" d="M49.7,115c-1.4,0-2.7-0.8-3.3-2.1c-4-8.6-6-17.8-6-27.3c0-35.6,29-64.6,64.6-64.6
				c19.7,0,38,8.8,50.3,24.1c1.2,1.6,1,3.8-0.5,5.1c-1.6,1.2-3.8,1-5.1-0.5c-11-13.6-27.2-21.5-44.7-21.5
				c-31.6,0-57.3,25.7-57.3,57.3c0,8.5,1.8,16.6,5.4,24.2c0.9,1.8,0.1,4-1.7,4.8C50.7,114.9,50.2,115,49.7,115"/>
		</g>
		<g>
			<defs>
				<path id="SVGID_10_" d="M49.7,115c-1.4,0-2.7-0.8-3.3-2.1c-4-8.6-6-17.8-6-27.3c0-35.6,29-64.6,64.6-64.6
					c19.7,0,38,8.8,50.3,24.1c1.2,1.6,1,3.8-0.5,5.1c-1.6,1.2-3.8,1-5.1-0.5c-11-13.6-27.2-21.5-44.7-21.5
					c-31.6,0-57.3,25.7-57.3,57.3c0,8.5,1.8,16.6,5.4,24.2c0.9,1.8,0.1,4-1.7,4.8C50.7,114.9,50.2,115,49.7,115"/>
			</defs>
			<clipPath id="SVGID_12_">
				<use xlink:href="#SVGID_10_"  style="overflow:visible;"/>
			</clipPath>
			<rect x="39.4" y="20.1" class="st3" width="117.6" height="95.8"/>
		</g>
	</g>
	<g>
		<g>
			<polygon id="SVGID_7_" class="st0" points="81.4,74.4 81.4,82 97.4,82 97.4,91.5 81.4,91.5 81.4,108.1 70.8,108.1 70.8,64.9 
				100.2,64.9 100.2,74.4 			"/>
		</g>
		<g>
			<defs>
				<polygon id="SVGID_14_" points="81.4,74.4 81.4,82 97.4,82 97.4,91.5 81.4,91.5 81.4,108.1 70.8,108.1 70.8,64.9 100.2,64.9 
					100.2,74.4 				"/>
			</defs>
			<clipPath id="SVGID_16_">
				<use xlink:href="#SVGID_14_"  style="overflow:visible;"/>
			</clipPath>
			<rect x="69.9" y="64" class="st4" width="31.3" height="45.1"/>
		</g>
	</g>
	<g>
		<g>
			<path id="SVGID_9_" class="st0" d="M132.2,76.8c-1-1.5-2.4-2.4-5.1-2.4h-4.7v24.3h4.7c2.7,0,4.1-1,5.1-2.4
				c0.9-1.2,1.2-2.4,1.2-9.7C133.4,79.3,133.1,78,132.2,76.8 M139.5,103.9c-3,3-7.2,4.2-11.6,4.2h-16V64.9h16
				c4.5,0,8.7,1.3,11.6,4.2c5,5,4.5,10.6,4.5,17.4C144,93.3,144.6,98.9,139.5,103.9"/>
		</g>
		<g>
			<defs>
				<path id="SVGID_18_" d="M132.2,76.8c-1-1.5-2.4-2.4-5.1-2.4h-4.7v24.3h4.7c2.7,0,4.1-1,5.1-2.4c0.9-1.2,1.2-2.4,1.2-9.7
					C133.4,79.3,133.1,78,132.2,76.8 M139.5,103.9c-3,3-7.2,4.2-11.6,4.2h-16V64.9h16c4.5,0,8.7,1.3,11.6,4.2c5,5,4.5,10.6,4.5,17.4
					C144,93.3,144.6,98.9,139.5,103.9"/>
			</defs>
			<clipPath id="SVGID_20_">
				<use xlink:href="#SVGID_18_"  style="overflow:visible;"/>
			</clipPath>
			<rect x="110.9" y="64" class="st5" width="34.1" height="45.1"/>
		</g>
	</g>
	<g>
		<g>
			<polygon id="SVGID_11_" class="st0" points="170.4,67.9 170.4,108.1 167.1,108.1 167.1,67.9 154.2,67.9 154.2,64.9 183.3,64.9 
				183.3,67.9 			"/>
		</g>
		<g>
			<defs>
				<polygon id="SVGID_22_" points="170.4,67.9 170.4,108.1 167.1,108.1 167.1,67.9 154.2,67.9 154.2,64.9 183.3,64.9 183.3,67.9 
									"/>
			</defs>
			<clipPath id="SVGID_24_">
				<use xlink:href="#SVGID_22_"  style="overflow:visible;"/>
			</clipPath>
			<rect x="153.3" y="64" class="st6" width="31" height="45.1"/>
		</g>
	</g>
	<g>
		<g>
			<path id="SVGID_13_" class="st0" d="M206.7,86.2c-1.3-3-4.2-4.9-7.6-4.9c-3.3,0-6.3,1.9-7.6,4.9c-0.7,1.8-0.9,2.7-1,5.5h17.2
				C207.7,88.9,207.5,88,206.7,86.2L206.7,86.2L206.7,86.2z M190.5,94.2c0,7.4,3.3,11.5,9.5,11.5c3.5,0,5.6-1,8.1-3.5l2.3,1.8
				c-3,3-5.7,4.5-10.6,4.5c-8.1,0-12.4-5.2-12.4-15c0-9.4,4.4-15,11.7-15c7.3,0,11.7,5.3,11.7,14.3v1.4L190.5,94.2L190.5,94.2z"/>
		</g>
		<g>
			<defs>
				<path id="SVGID_26_" d="M206.7,86.2c-1.3-3-4.2-4.9-7.6-4.9c-3.3,0-6.3,1.9-7.6,4.9c-0.7,1.8-0.9,2.7-1,5.5h17.2
					C207.7,88.9,207.5,88,206.7,86.2L206.7,86.2L206.7,86.2z M190.5,94.2c0,7.4,3.3,11.5,9.5,11.5c3.5,0,5.6-1,8.1-3.5l2.3,1.8
					c-3,3-5.7,4.5-10.6,4.5c-8.1,0-12.4-5.2-12.4-15c0-9.4,4.4-15,11.7-15c7.3,0,11.7,5.3,11.7,14.3v1.4L190.5,94.2L190.5,94.2z"/>
			</defs>
			<clipPath id="SVGID_28_">
				<use xlink:href="#SVGID_26_"  style="overflow:visible;"/>
			</clipPath>
			<rect x="186.5" y="77.6" class="st7" width="25.3" height="31.9"/>
		</g>
	</g>
	<g>
		<g>
			<path id="SVGID_15_" class="st0" d="M237.3,108.5c-8,0-12.9-5.7-12.9-15c0-9.3,4.9-15,12.9-15c4,0,6.5,1,9.7,4.5l-2.1,2
				c-2.5-2.8-4.4-3.7-7.5-3.7c-3.3,0-6,1.3-7.8,3.9c-1.5,2.1-2,4.4-2,8.4c0,3.9,0.5,6.2,2,8.4c1.8,2.6,4.5,3.9,7.8,3.9
				c3.1,0,5-0.9,7.5-3.7l2.1,2C243.8,107.5,241.3,108.5,237.3,108.5"/>
		</g>
		<g>
			<defs>
				<path id="SVGID_30_" d="M237.3,108.5c-8,0-12.9-5.7-12.9-15c0-9.3,4.9-15,12.9-15c4,0,6.5,1,9.7,4.5l-2.1,2
					c-2.5-2.8-4.4-3.7-7.5-3.7c-3.3,0-6,1.3-7.8,3.9c-1.5,2.1-2,4.4-2,8.4c0,3.9,0.5,6.2,2,8.4c1.8,2.6,4.5,3.9,7.8,3.9
					c3.1,0,5-0.9,7.5-3.7l2.1,2C243.8,107.5,241.3,108.5,237.3,108.5"/>
			</defs>
			<clipPath id="SVGID_32_">
				<use xlink:href="#SVGID_30_"  style="overflow:visible;"/>
			</clipPath>
			<rect x="223.5" y="77.6" class="st8" width="24.4" height="31.9"/>
		</g>
	</g>
	<g>
		<g>
			<path id="SVGID_17_" class="st0" d="M280.4,108.1V90c0-5.6-2.9-8.7-8.1-8.7c-5.2,0-8.3,3.2-8.3,8.7v18.1H261V64.9h3.1v17.4
				c2.2-2.6,5.1-3.8,8.6-3.8c6.7,0,10.8,4.2,10.8,10.9v18.7H280.4L280.4,108.1z"/>
		</g>
		<g>
			<defs>
				<path id="SVGID_34_" d="M280.4,108.1V90c0-5.6-2.9-8.7-8.1-8.7c-5.2,0-8.3,3.2-8.3,8.7v18.1H261V64.9h3.1v17.4
					c2.2-2.6,5.1-3.8,8.6-3.8c6.7,0,10.8,4.2,10.8,10.9v18.7H280.4L280.4,108.1z"/>
			</defs>
			<clipPath id="SVGID_36_">
				<use xlink:href="#SVGID_34_"  style="overflow:visible;"/>
			</clipPath>
			<rect x="260" y="64" class="st9" width="24.4" height="45.1"/>
		</g>
	</g>
	<g>
		<g>
			<polygon id="SVGID_19_" class="st0" points="71.6,116.8 71.6,119.6 75,119.6 75,120.4 71.6,120.4 71.6,123.7 70.8,123.7 
				70.8,116.1 75.6,116.1 75.6,116.8 			"/>
		</g>
		<g>
			<defs>
				<polygon id="SVGID_38_" points="71.6,116.8 71.6,119.6 75,119.6 75,120.4 71.6,120.4 71.6,123.7 70.8,123.7 70.8,116.1 
					75.6,116.1 75.6,116.8 				"/>
			</defs>
			<clipPath id="SVGID_40_">
				<use xlink:href="#SVGID_38_"  style="overflow:visible;"/>
			</clipPath>
			<rect x="69.9" y="115.1" class="st10" width="6.6" height="9.5"/>
		</g>
	</g>
	<g>
		<g>
			<path id="SVGID_21_" class="st0" d="M81.6,123.8c-1.6,0-2.7-1.1-2.7-2.6v-5.1h0.8v5.1c0,1.2,0.7,1.9,1.8,1.9
				c1.1,0,1.9-0.8,1.9-1.9v-5.1h0.8v5.1C84.2,122.7,83.1,123.8,81.6,123.8"/>
		</g>
		<g>
			<defs>
				<path id="SVGID_42_" d="M81.6,123.8c-1.6,0-2.7-1.1-2.7-2.6v-5.1h0.8v5.1c0,1.2,0.7,1.9,1.8,1.9c1.1,0,1.9-0.8,1.9-1.9v-5.1h0.8
					v5.1C84.2,122.7,83.1,123.8,81.6,123.8"/>
			</defs>
			<clipPath id="SVGID_44_">
				<use xlink:href="#SVGID_42_"  style="overflow:visible;"/>
			</clipPath>
			<rect x="77.9" y="115.1" class="st11" width="7.2" height="9.6"/>
		</g>
	</g>
	<g>
		<g>
			<polygon id="SVGID_23_" class="st0" points="90.5,116.8 90.5,123.7 89.7,123.7 89.7,116.8 87.5,116.8 87.5,116.1 92.7,116.1 
				92.7,116.8 			"/>
		</g>
		<g>
			<defs>
				<polygon id="SVGID_46_" points="90.5,116.8 90.5,123.7 89.7,123.7 89.7,116.8 87.5,116.8 87.5,116.1 92.7,116.1 92.7,116.8 				
					"/>
			</defs>
			<clipPath id="SVGID_48_">
				<use xlink:href="#SVGID_46_"  style="overflow:visible;"/>
			</clipPath>
			<rect x="86.6" y="115.1" class="st12" width="7.1" height="9.5"/>
		</g>
	</g>
	<g>
		<g>
			<path id="SVGID_25_" class="st0" d="M98.7,123.8c-1.6,0-2.7-1.1-2.7-2.6v-5.1h0.8v5.1c0,1.2,0.7,1.9,1.8,1.9
				c1.1,0,1.9-0.8,1.9-1.9v-5.1h0.8v5.1C101.3,122.7,100.2,123.8,98.7,123.8"/>
		</g>
		<g>
			<defs>
				<path id="SVGID_50_" d="M98.7,123.8c-1.6,0-2.7-1.1-2.7-2.6v-5.1h0.8v5.1c0,1.2,0.7,1.9,1.8,1.9c1.1,0,1.9-0.8,1.9-1.9v-5.1h0.8
					v5.1C101.3,122.7,100.2,123.8,98.7,123.8"/>
			</defs>
			<clipPath id="SVGID_52_">
				<use xlink:href="#SVGID_50_"  style="overflow:visible;"/>
			</clipPath>
			<rect x="95.1" y="115.1" class="st13" width="7.2" height="9.6"/>
		</g>
	</g>
	<g>
		<g>
			<path id="SVGID_27_" class="st0" d="M108.3,116.8h-2v2.8h2c0.9,0,1.5-0.5,1.5-1.4C109.8,117.3,109.1,116.8,108.3,116.8
				L108.3,116.8L108.3,116.8z M109.8,123.7l-1.7-3.4h-1.8v3.4h-0.8v-7.6h2.9c1.3,0,2.3,0.8,2.3,2.1c0,1.1-0.7,1.8-1.7,2l1.8,3.5
				H109.8L109.8,123.7z"/>
		</g>
		<g>
			<defs>
				<path id="SVGID_54_" d="M108.3,116.8h-2v2.8h2c0.9,0,1.5-0.5,1.5-1.4C109.8,117.3,109.1,116.8,108.3,116.8L108.3,116.8
					L108.3,116.8z M109.8,123.7l-1.7-3.4h-1.8v3.4h-0.8v-7.6h2.9c1.3,0,2.3,0.8,2.3,2.1c0,1.1-0.7,1.8-1.7,2l1.8,3.5H109.8
					L109.8,123.7z"/>
			</defs>
			<clipPath id="SVGID_56_">
				<use xlink:href="#SVGID_54_"  style="overflow:visible;"/>
			</clipPath>
			<rect x="104.5" y="115.1" class="st14" width="7.2" height="9.5"/>
		</g>
	</g>
	<g>
		<g>
			<polygon id="SVGID_29_" class="st0" points="114.4,123.7 114.4,116.1 119.1,116.1 119.1,116.8 115.2,116.8 115.2,119.5 
				118.6,119.5 118.6,120.2 115.2,120.2 115.2,123 119.1,123 119.1,123.7 			"/>
		</g>
		<g>
			<defs>
				<polygon id="SVGID_58_" points="114.4,123.7 114.4,116.1 119.1,116.1 119.1,116.8 115.2,116.8 115.2,119.5 118.6,119.5 
					118.6,120.2 115.2,120.2 115.2,123 119.1,123 119.1,123.7 				"/>
			</defs>
			<clipPath id="SVGID_60_">
				<use xlink:href="#SVGID_58_"  style="overflow:visible;"/>
			</clipPath>
			<rect x="113.4" y="115.1" class="st15" width="6.6" height="9.5"/>
		</g>
	</g>
	<g>
		<g>
			<path id="SVGID_31_" class="st0" d="M131.4,117.4c-0.4-0.4-0.9-0.5-1.5-0.5h-1.7v6.2h1.7c0.6,0,1.1-0.2,1.5-0.5
				c0.5-0.5,0.5-1.7,0.5-2.6C131.9,118.9,131.9,117.9,131.4,117.4 M132,123c-0.5,0.5-1.1,0.7-1.9,0.7h-2.6v-7.6h2.6
				c0.8,0,1.5,0.2,1.9,0.7c0.8,0.8,0.8,2,0.8,3C132.7,120.9,132.8,122.2,132,123"/>
		</g>
		<g>
			<defs>
				<path id="SVGID_62_" d="M131.4,117.4c-0.4-0.4-0.9-0.5-1.5-0.5h-1.7v6.2h1.7c0.6,0,1.1-0.2,1.5-0.5c0.5-0.5,0.5-1.7,0.5-2.6
					C131.9,118.9,131.9,117.9,131.4,117.4 M132,123c-0.5,0.5-1.1,0.7-1.9,0.7h-2.6v-7.6h2.6c0.8,0,1.5,0.2,1.9,0.7
					c0.8,0.8,0.8,2,0.8,3C132.7,120.9,132.8,122.2,132,123"/>
			</defs>
			<clipPath id="SVGID_64_">
				<use xlink:href="#SVGID_62_"  style="overflow:visible;"/>
			</clipPath>
			<rect x="126.5" y="115.1" class="st16" width="7.2" height="9.5"/>
		</g>
	</g>
	<g>
		<g>
			<path id="SVGID_33_" class="st0" d="M139.4,116.8h-2v2.8h2c0.9,0,1.5-0.5,1.5-1.4C141,117.3,140.3,116.8,139.4,116.8L139.4,116.8
				L139.4,116.8z M141,123.7l-1.7-3.4h-1.8v3.4h-0.8v-7.6h2.9c1.3,0,2.3,0.8,2.3,2.1c0,1.1-0.7,1.8-1.7,2l1.8,3.5H141L141,123.7z"/>
		</g>
		<g>
			<defs>
				<path id="SVGID_66_" d="M139.4,116.8h-2v2.8h2c0.9,0,1.5-0.5,1.5-1.4C141,117.3,140.3,116.8,139.4,116.8L139.4,116.8
					L139.4,116.8z M141,123.7l-1.7-3.4h-1.8v3.4h-0.8v-7.6h2.9c1.3,0,2.3,0.8,2.3,2.1c0,1.1-0.7,1.8-1.7,2l1.8,3.5H141L141,123.7z"
					/>
			</defs>
			<clipPath id="SVGID_68_">
				<use xlink:href="#SVGID_66_"  style="overflow:visible;"/>
			</clipPath>
			<rect x="135.6" y="115.1" class="st17" width="7.2" height="9.5"/>
		</g>
	</g>
	<g>
		<g>
			<rect id="SVGID_35_" x="145.6" y="116.1" class="st18" width="0.8" height="7.6"/>
		</g>
		<g>
			<defs>
				<rect id="SVGID_69_" x="145.6" y="116.1" width="0.8" height="7.6"/>
			</defs>
			<clipPath id="SVGID_70_">
				<use xlink:href="#SVGID_69_"  style="overflow:visible;"/>
			</clipPath>
			<rect x="144.6" y="115.1" class="st19" width="2.7" height="9.5"/>
		</g>
	</g>
	<g>
		<g>
			<polygon id="SVGID_37_" class="st0" points="152.7,123.7 152.1,123.7 149.5,116.1 150.4,116.1 152.4,122.2 154.4,116.1 
				155.2,116.1 			"/>
		</g>
		<g>
			<defs>
				<polygon id="SVGID_71_" points="152.7,123.7 152.1,123.7 149.5,116.1 150.4,116.1 152.4,122.2 154.4,116.1 155.2,116.1 				"/>
			</defs>
			<clipPath id="SVGID_72_">
				<use xlink:href="#SVGID_71_"  style="overflow:visible;"/>
			</clipPath>
			<rect x="148.6" y="115.1" class="st20" width="7.6" height="9.5"/>
		</g>
	</g>
	<g>
		<g>
			<rect id="SVGID_39_" x="158.4" y="116.1" class="st18" width="0.8" height="7.6"/>
		</g>
		<g>
			<defs>
				<rect id="SVGID_73_" x="158.4" y="116.1" width="0.8" height="7.6"/>
			</defs>
			<clipPath id="SVGID_74_">
				<use xlink:href="#SVGID_73_"  style="overflow:visible;"/>
			</clipPath>
			<rect x="157.4" y="115.1" class="st21" width="2.7" height="9.5"/>
		</g>
	</g>
	<g>
		<g>
			<polygon id="SVGID_41_" class="st0" points="168.2,123.7 164.2,117.6 164.2,123.7 163.4,123.7 163.4,116.1 164.1,116.1 
				168.2,122.2 168.2,116.1 169,116.1 169,123.7 			"/>
		</g>
		<g>
			<defs>
				<polygon id="SVGID_75_" points="168.2,123.7 164.2,117.6 164.2,123.7 163.4,123.7 163.4,116.1 164.1,116.1 168.2,122.2 
					168.2,116.1 169,116.1 169,123.7 				"/>
			</defs>
			<clipPath id="SVGID_76_">
				<use xlink:href="#SVGID_75_"  style="overflow:visible;"/>
			</clipPath>
			<rect x="162.4" y="115.1" class="st22" width="7.5" height="9.5"/>
		</g>
	</g>
	<g>
		<g>
			<path id="SVGID_43_" class="st0" d="M177.6,122.9c-0.5,0.6-1.2,0.9-2,0.9c-0.8,0-1.4-0.3-2-0.8c-0.7-0.7-0.7-1.5-0.7-3.1
				c0-1.6,0-2.4,0.7-3.1c0.5-0.5,1.2-0.8,2-0.8c1.5,0,2.4,0.9,2.7,2.3h-0.8c-0.2-1-0.9-1.6-1.9-1.6c-0.5,0-1,0.2-1.3,0.5
				c-0.5,0.5-0.5,1-0.5,2.6c0,1.6,0.1,2.1,0.5,2.6c0.3,0.3,0.8,0.5,1.3,0.5c0.5,0,1.1-0.2,1.4-0.7c0.3-0.4,0.4-0.8,0.4-1.4v-0.6
				h-1.9v-0.7h2.7v1.2C178.2,121.8,178,122.4,177.6,122.9"/>
		</g>
		<g>
			<defs>
				<path id="SVGID_77_" d="M177.6,122.9c-0.5,0.6-1.2,0.9-2,0.9c-0.8,0-1.4-0.3-2-0.8c-0.7-0.7-0.7-1.5-0.7-3.1
					c0-1.6,0-2.4,0.7-3.1c0.5-0.5,1.2-0.8,2-0.8c1.5,0,2.4,0.9,2.7,2.3h-0.8c-0.2-1-0.9-1.6-1.9-1.6c-0.5,0-1,0.2-1.3,0.5
					c-0.5,0.5-0.5,1-0.5,2.6c0,1.6,0.1,2.1,0.5,2.6c0.3,0.3,0.8,0.5,1.3,0.5c0.5,0,1.1-0.2,1.4-0.7c0.3-0.4,0.4-0.8,0.4-1.4v-0.6
					h-1.9v-0.7h2.7v1.2C178.2,121.8,178,122.4,177.6,122.9"/>
			</defs>
			<clipPath id="SVGID_78_">
				<use xlink:href="#SVGID_77_"  style="overflow:visible;"/>
			</clipPath>
			<rect x="171.9" y="115.1" class="st23" width="7.3" height="9.7"/>
		</g>
	</g>
	<g>
		<g>
			<polygon id="SVGID_45_" class="st0" points="189,116.8 189,123.7 188.1,123.7 188.1,116.8 185.9,116.8 185.9,116.1 191.2,116.1 
				191.2,116.8 			"/>
		</g>
		<g>
			<defs>
				<polygon id="SVGID_79_" points="189,116.8 189,123.7 188.1,123.7 188.1,116.8 185.9,116.8 185.9,116.1 191.2,116.1 191.2,116.8 
									"/>
			</defs>
			<clipPath id="SVGID_80_">
				<use xlink:href="#SVGID_79_"  style="overflow:visible;"/>
			</clipPath>
			<rect x="185" y="115.1" class="st24" width="7.1" height="9.5"/>
		</g>
	</g>
	<g>
		<g>
			<polygon id="SVGID_47_" class="st0" points="194.5,123.7 194.5,116.1 199.3,116.1 199.3,116.8 195.4,116.8 195.4,119.5 
				198.7,119.5 198.7,120.2 195.4,120.2 195.4,123 199.3,123 199.3,123.7 			"/>
		</g>
		<g>
			<defs>
				<polygon id="SVGID_81_" points="194.5,123.7 194.5,116.1 199.3,116.1 199.3,116.8 195.4,116.8 195.4,119.5 198.7,119.5 
					198.7,120.2 195.4,120.2 195.4,123 199.3,123 199.3,123.7 				"/>
			</defs>
			<clipPath id="SVGID_82_">
				<use xlink:href="#SVGID_81_"  style="overflow:visible;"/>
			</clipPath>
			<rect x="193.6" y="115.1" class="st25" width="6.6" height="9.5"/>
		</g>
	</g>
	<g>
		<g>
			<path id="SVGID_49_" class="st0" d="M205.3,123.8c-0.8,0-1.4-0.3-2-0.8c-0.7-0.7-0.7-1.5-0.7-3.1c0-1.6,0-2.4,0.7-3.1
				c0.5-0.5,1.2-0.8,2-0.8c1.4,0,2.4,0.8,2.7,2.3h-0.8c-0.2-0.9-0.9-1.6-1.8-1.6c-0.5,0-1,0.2-1.3,0.5c-0.5,0.5-0.5,1-0.5,2.6
				c0,1.6,0.1,2.1,0.5,2.6c0.3,0.3,0.8,0.5,1.3,0.5c0.9,0,1.6-0.6,1.8-1.6h0.8C207.7,122.9,206.7,123.8,205.3,123.8"/>
		</g>
		<g>
			<defs>
				<path id="SVGID_83_" d="M205.3,123.8c-0.8,0-1.4-0.3-2-0.8c-0.7-0.7-0.7-1.5-0.7-3.1c0-1.6,0-2.4,0.7-3.1c0.5-0.5,1.2-0.8,2-0.8
					c1.4,0,2.4,0.8,2.7,2.3h-0.8c-0.2-0.9-0.9-1.6-1.8-1.6c-0.5,0-1,0.2-1.3,0.5c-0.5,0.5-0.5,1-0.5,2.6c0,1.6,0.1,2.1,0.5,2.6
					c0.3,0.3,0.8,0.5,1.3,0.5c0.9,0,1.6-0.6,1.8-1.6h0.8C207.7,122.9,206.7,123.8,205.3,123.8"/>
			</defs>
			<clipPath id="SVGID_84_">
				<use xlink:href="#SVGID_83_"  style="overflow:visible;"/>
			</clipPath>
			<rect x="201.7" y="115.1" class="st26" width="7.2" height="9.7"/>
		</g>
	</g>
	<g>
		<g>
			<polygon id="SVGID_51_" class="st0" points="216.2,123.7 216.2,120.2 212.5,120.2 212.5,123.7 211.7,123.7 211.7,116.1 
				212.5,116.1 212.5,119.5 216.2,119.5 216.2,116.1 217,116.1 217,123.7 			"/>
		</g>
		<g>
			<defs>
				<polygon id="SVGID_85_" points="216.2,123.7 216.2,120.2 212.5,120.2 212.5,123.7 211.7,123.7 211.7,116.1 212.5,116.1 
					212.5,119.5 216.2,119.5 216.2,116.1 217,116.1 217,123.7 				"/>
			</defs>
			<clipPath id="SVGID_86_">
				<use xlink:href="#SVGID_85_"  style="overflow:visible;"/>
			</clipPath>
			<rect x="210.8" y="115.1" class="st27" width="7.2" height="9.5"/>
		</g>
	</g>
	<g>
		<g>
			<polygon id="SVGID_53_" class="st0" points="226,123.7 222,117.6 222,123.7 221.1,123.7 221.1,116.1 221.9,116.1 226,122.2 
				226,116.1 226.8,116.1 226.8,123.7 			"/>
		</g>
		<g>
			<defs>
				<polygon id="SVGID_87_" points="226,123.7 222,117.6 222,123.7 221.1,123.7 221.1,116.1 221.9,116.1 226,122.2 226,116.1 
					226.8,116.1 226.8,123.7 				"/>
			</defs>
			<clipPath id="SVGID_88_">
				<use xlink:href="#SVGID_87_"  style="overflow:visible;"/>
			</clipPath>
			<rect x="220.2" y="115.1" class="st28" width="7.5" height="9.5"/>
		</g>
	</g>
	<g>
		<g>
			<path id="SVGID_55_" class="st0" d="M234.7,117.3c-0.3-0.3-0.8-0.5-1.3-0.5s-1,0.2-1.3,0.5c-0.5,0.5-0.5,1-0.5,2.6
				c0,1.6,0.1,2.1,0.5,2.6c0.3,0.3,0.8,0.5,1.3,0.5s1-0.2,1.3-0.5c0.5-0.5,0.5-1,0.5-2.6C235.2,118.3,235.1,117.8,234.7,117.3
				 M235.3,123c-0.5,0.5-1.2,0.8-2,0.8c-0.8,0-1.4-0.3-2-0.8c-0.7-0.7-0.7-1.5-0.7-3.1c0-1.6,0-2.4,0.7-3.1c0.5-0.5,1.2-0.8,2-0.8
				c0.8,0,1.4,0.3,2,0.8c0.7,0.7,0.7,1.5,0.7,3.1C236,121.5,236,122.3,235.3,123"/>
		</g>
		<g>
			<defs>
				<path id="SVGID_89_" d="M234.7,117.3c-0.3-0.3-0.8-0.5-1.3-0.5s-1,0.2-1.3,0.5c-0.5,0.5-0.5,1-0.5,2.6c0,1.6,0.1,2.1,0.5,2.6
					c0.3,0.3,0.8,0.5,1.3,0.5s1-0.2,1.3-0.5c0.5-0.5,0.5-1,0.5-2.6C235.2,118.3,235.1,117.8,234.7,117.3 M235.3,123
					c-0.5,0.5-1.2,0.8-2,0.8c-0.8,0-1.4-0.3-2-0.8c-0.7-0.7-0.7-1.5-0.7-3.1c0-1.6,0-2.4,0.7-3.1c0.5-0.5,1.2-0.8,2-0.8
					c0.8,0,1.4,0.3,2,0.8c0.7,0.7,0.7,1.5,0.7,3.1C236,121.5,236,122.3,235.3,123"/>
			</defs>
			<clipPath id="SVGID_90_">
				<use xlink:href="#SVGID_89_"  style="overflow:visible;"/>
			</clipPath>
			<rect x="229.7" y="115.1" class="st29" width="7.2" height="9.7"/>
		</g>
	</g>
	<g>
		<g>
			<polygon id="SVGID_57_" class="st0" points="239.9,123.7 239.9,116.1 240.7,116.1 240.7,123 244.6,123 244.6,123.7 			"/>
		</g>
		<g>
			<defs>
				<polygon id="SVGID_91_" points="239.9,123.7 239.9,116.1 240.7,116.1 240.7,123 244.6,123 244.6,123.7 				"/>
			</defs>
			<clipPath id="SVGID_92_">
				<use xlink:href="#SVGID_91_"  style="overflow:visible;"/>
			</clipPath>
			<rect x="238.9" y="115.1" class="st30" width="6.6" height="9.5"/>
		</g>
	</g>
	<g>
		<g>
			<path id="SVGID_59_" class="st0" d="M251.3,117.3c-0.3-0.3-0.8-0.5-1.3-0.5s-1,0.2-1.3,0.5c-0.5,0.5-0.5,1-0.5,2.6
				c0,1.6,0.1,2.1,0.5,2.6c0.3,0.3,0.8,0.5,1.3,0.5s1-0.2,1.3-0.5c0.5-0.5,0.5-1,0.5-2.6C251.8,118.3,251.8,117.8,251.3,117.3
				 M251.9,123c-0.5,0.5-1.2,0.8-2,0.8c-0.8,0-1.4-0.3-2-0.8c-0.7-0.7-0.7-1.5-0.7-3.1c0-1.6,0-2.4,0.7-3.1c0.5-0.5,1.2-0.8,2-0.8
				c0.8,0,1.4,0.3,2,0.8c0.7,0.7,0.7,1.5,0.7,3.1C252.6,121.5,252.6,122.3,251.9,123"/>
		</g>
		<g>
			<defs>
				<path id="SVGID_93_" d="M251.3,117.3c-0.3-0.3-0.8-0.5-1.3-0.5s-1,0.2-1.3,0.5c-0.5,0.5-0.5,1-0.5,2.6c0,1.6,0.1,2.1,0.5,2.6
					c0.3,0.3,0.8,0.5,1.3,0.5s1-0.2,1.3-0.5c0.5-0.5,0.5-1,0.5-2.6C251.8,118.3,251.8,117.8,251.3,117.3 M251.9,123
					c-0.5,0.5-1.2,0.8-2,0.8c-0.8,0-1.4-0.3-2-0.8c-0.7-0.7-0.7-1.5-0.7-3.1c0-1.6,0-2.4,0.7-3.1c0.5-0.5,1.2-0.8,2-0.8
					c0.8,0,1.4,0.3,2,0.8c0.7,0.7,0.7,1.5,0.7,3.1C252.6,121.5,252.6,122.3,251.9,123"/>
			</defs>
			<clipPath id="SVGID_94_">
				<use xlink:href="#SVGID_93_"  style="overflow:visible;"/>
			</clipPath>
			<rect x="246.4" y="115.1" class="st31" width="7.2" height="9.7"/>
		</g>
	</g>
	<g>
		<g>
			<path id="SVGID_61_" class="st0" d="M260.9,122.9c-0.5,0.6-1.2,0.9-2,0.9c-0.8,0-1.4-0.3-2-0.8c-0.7-0.7-0.7-1.5-0.7-3.1
				c0-1.6,0-2.4,0.7-3.1c0.5-0.5,1.2-0.8,2-0.8c1.5,0,2.4,0.9,2.7,2.3h-0.8c-0.2-1-0.9-1.6-1.9-1.6c-0.5,0-1,0.2-1.3,0.5
				c-0.5,0.5-0.5,1-0.5,2.6c0,1.6,0.1,2.1,0.5,2.6c0.3,0.3,0.8,0.5,1.3,0.5c0.5,0,1.1-0.2,1.4-0.7c0.3-0.4,0.4-0.8,0.4-1.4v-0.6
				h-1.9v-0.7h2.7v1.2C261.6,121.8,261.4,122.4,260.9,122.9"/>
		</g>
		<g>
			<defs>
				<path id="SVGID_95_" d="M260.9,122.9c-0.5,0.6-1.2,0.9-2,0.9c-0.8,0-1.4-0.3-2-0.8c-0.7-0.7-0.7-1.5-0.7-3.1
					c0-1.6,0-2.4,0.7-3.1c0.5-0.5,1.2-0.8,2-0.8c1.5,0,2.4,0.9,2.7,2.3h-0.8c-0.2-1-0.9-1.6-1.9-1.6c-0.5,0-1,0.2-1.3,0.5
					c-0.5,0.5-0.5,1-0.5,2.6c0,1.6,0.1,2.1,0.5,2.6c0.3,0.3,0.8,0.5,1.3,0.5c0.5,0,1.1-0.2,1.4-0.7c0.3-0.4,0.4-0.8,0.4-1.4v-0.6
					h-1.9v-0.7h2.7v1.2C261.6,121.8,261.4,122.4,260.9,122.9"/>
			</defs>
			<clipPath id="SVGID_96_">
				<use xlink:href="#SVGID_95_"  style="overflow:visible;"/>
			</clipPath>
			<rect x="255.3" y="115.1" class="st32" width="7.3" height="9.7"/>
		</g>
	</g>
	<g>
		<g>
			<rect id="SVGID_63_" x="265.5" y="116.1" class="st18" width="0.8" height="7.6"/>
		</g>
		<g>
			<defs>
				<rect id="SVGID_97_" x="265.5" y="116.1" width="0.8" height="7.6"/>
			</defs>
			<clipPath id="SVGID_98_">
				<use xlink:href="#SVGID_97_"  style="overflow:visible;"/>
			</clipPath>
			<rect x="264.5" y="115.1" class="st33" width="2.7" height="9.5"/>
		</g>
	</g>
	<g>
		<g>
			<polygon id="SVGID_65_" class="st0" points="270.4,123.7 270.4,116.1 275.2,116.1 275.2,116.8 271.3,116.8 271.3,119.5 
				274.6,119.5 274.6,120.2 271.3,120.2 271.3,123 275.2,123 275.2,123.7 			"/>
		</g>
		<g>
			<defs>
				<polygon id="SVGID_99_" points="270.4,123.7 270.4,116.1 275.2,116.1 275.2,116.8 271.3,116.8 271.3,119.5 274.6,119.5 
					274.6,120.2 271.3,120.2 271.3,123 275.2,123 275.2,123.7 				"/>
			</defs>
			<clipPath id="SVGID_100_">
				<use xlink:href="#SVGID_99_"  style="overflow:visible;"/>
			</clipPath>
			<rect x="269.5" y="115.1" class="st34" width="6.6" height="9.5"/>
		</g>
	</g>
	<g>
		<g>
			<path id="SVGID_67_" class="st0" d="M280.8,123.8c-1.2,0-1.9-0.3-2.6-1l0.5-0.5c0.6,0.6,1.2,0.8,2.1,0.8c1.1,0,1.8-0.5,1.8-1.4
				c0-0.4-0.1-0.7-0.4-0.9c-0.2-0.2-0.4-0.3-1-0.4l-0.9-0.1c-0.6-0.1-1.1-0.3-1.4-0.6c-0.4-0.3-0.6-0.8-0.6-1.4
				c0-1.3,0.9-2.2,2.4-2.2c1,0,1.6,0.2,2.3,0.8l-0.5,0.5c-0.5-0.4-1-0.7-1.8-0.7c-1,0-1.6,0.6-1.6,1.4c0,0.4,0.1,0.7,0.3,0.9
				c0.2,0.2,0.6,0.4,1,0.4l0.8,0.1c0.7,0.1,1.1,0.3,1.4,0.5c0.4,0.4,0.6,0.9,0.6,1.5C283.4,122.9,282.4,123.8,280.8,123.8"/>
		</g>
		<g>
			<defs>
				<path id="SVGID_101_" d="M280.8,123.8c-1.2,0-1.9-0.3-2.6-1l0.5-0.5c0.6,0.6,1.2,0.8,2.1,0.8c1.1,0,1.8-0.5,1.8-1.4
					c0-0.4-0.1-0.7-0.4-0.9c-0.2-0.2-0.4-0.3-1-0.4l-0.9-0.1c-0.6-0.1-1.1-0.3-1.4-0.6c-0.4-0.3-0.6-0.8-0.6-1.4
					c0-1.3,0.9-2.2,2.4-2.2c1,0,1.6,0.2,2.3,0.8l-0.5,0.5c-0.5-0.4-1-0.7-1.8-0.7c-1,0-1.6,0.6-1.6,1.4c0,0.4,0.1,0.7,0.3,0.9
					c0.2,0.2,0.6,0.4,1,0.4l0.8,0.1c0.7,0.1,1.1,0.3,1.4,0.5c0.4,0.4,0.6,0.9,0.6,1.5C283.4,122.9,282.4,123.8,280.8,123.8"/>
			</defs>
			<clipPath id="SVGID_102_">
				<use xlink:href="#SVGID_101_"  style="overflow:visible;"/>
			</clipPath>
			<rect x="277.2" y="115.1" class="st35" width="7.2" height="9.7"/>
		</g>
	</g>
</g>
</svg>
