<?xml version="1.0" encoding="utf-8"?>
<!-- Generator: Adobe Illustrator 24.1.3, SVG Export Plug-In . SVG Version: 6.00 Build 0)  -->
<svg version="1.1"
	 id="svg2816" inkscape:version="0.47 r22583" sodipodi:docname="Neues Dokument 2" xmlns:cc="http://creativecommons.org/ns#" xmlns:dc="http://purl.org/dc/elements/1.1/" xmlns:inkscape="http://www.inkscape.org/namespaces/inkscape" xmlns:rdf="http://www.w3.org/1999/02/22-rdf-syntax-ns#" xmlns:sodipodi="http://sodipodi.sourceforge.net/DTD/sodipodi-0.dtd" xmlns:svg="http://www.w3.org/2000/svg"
	 xmlns="http://www.w3.org/2000/svg" xmlns:xlink="http://www.w3.org/1999/xlink" x="0px" y="0px" viewBox="0 0 777.5 143.2"
	 style="enable-background:new 0 0 777.5 143.2;" xml:space="preserve">
<style type="text/css">
	.st0{fill:#FFFFFF;}
</style>
<defs>
	
		<inkscape:perspective  id="perspective2824" inkscape:persp3d-origin="0.5 : 0.33333333 : 1" inkscape:vp_x="0 : 0.5 : 1" inkscape:vp_y="0 : 1000 : 0" inkscape:vp_z="1 : 0.5 : 1" sodipodi:type="inkscape:persp3d">
		</inkscape:perspective>
</defs>
<sodipodi:namedview  bordercolor="#666666" borderlayer="true" borderopacity="1" gridtolerance="10" guidetolerance="10" id="namedview2818" inkscape:current-layer="g2826" inkscape:cx="95" inkscape:cy="17.5" inkscape:pageopacity="0" inkscape:pageshadow="2" inkscape:showpageshadow="false" inkscape:window-height="988" inkscape:window-maximized="1" inkscape:window-width="1680" inkscape:window-x="-8" inkscape:window-y="-8" inkscape:zoom="8.4" objecttolerance="10" pagecolor="#ffffff" showgrid="false">
	</sodipodi:namedview>
<g id="g2826" transform="matrix(0,1.25,1.25,0,0,-708.75)" inkscape:groupmode="layer" inkscape:label="Freie Presse">
	<g id="g2828">
		<g>
			<g id="g2830" transform="translate(424.43857,-316.75693)">
				<path id="path2852" class="st0" d="M170.1,419.7c-6.1,0-7.5,0.5-7.5,6.6c0,9.5,7,17.9,15.4,22.9l-1.2,2.8l-17.7-4.7V398h3
					c0,6,2,8.1,8.3,8.1h43.5c6.3,0,8.3-2.1,8.3-8.1h3v29.8h-3c0-6-2-8.1-8.3-8.1h-20.3v4.7c0,6.3,3.3,10.3,11.3,11.1v3.2h-26.2v-3.2
					c7.6-1.8,10.7-4.8,10.7-11.9v-4H170.1"/>
				<path id="path2854" class="st0" d="M196.3,465.2c-1.7,1-6,4.2-6,6.1c0,1.8,2.3,4.6,2.3,7.1c0,3-2.8,5.2-6,5.2
					c-3.4,0-7-2.3-7-5.6c0-5.1,6.7-9.9,10.7-12.8h-10.4l5.5-17.9h2.8c0.6,4.8,3.9,5.9,8.7,5.9h18.1c6.9,0,7.4-2.1,7.4-5.8h2.8v23.7
					h-2.8c0-3.6-0.9-5.7-5.9-5.9H196.3"/>
				<path id="path2856" class="st0" d="M203.2,523.5c-12.7,0.2-22.7-7.6-22.7-19.2c0-6.1,2.6-11.5,7.8-15.4
					c4.6-3.5,10.5-5.4,16.3-5.4c13.2,0,21.6,10,21.6,21.4c0,8.1-3.5,13.7-10.1,18.9l-1.9-2c3.6-3.2,6.6-7.5,6.6-12.2
					c0-8.7-9.2-14.1-17.6-14.1L203.2,523.5L203.2,523.5z M199.3,495.3c-5.9,0.1-14.9,2.2-14.9,9.4c0,6.6,6.1,8.1,14.9,8.1V495.3"/>
				<path id="path2858" class="st0" d="M225.1,550.3h-2.8c0-2.5-0.5-5.2-5.9-5.3h-36.8l5.5-17.9h2.8c0.6,4.8,3.9,5.9,8.7,5.9h18.3
					c7,0,7.4-2.5,7.4-5.5h2.8V550.3z M165,531.4c4.2,0,7.6,3.2,7.6,7c0,3.9-3.3,7-7.6,7c-4.2,0-7.6-3.1-7.6-7
					C157.4,534.6,160.8,531.4,165,531.4"/>
				<path id="path2860" class="st0" d="M203.2,593.2c-12.7,0.2-22.7-7.6-22.7-19.2c0-6.1,2.6-11.5,7.8-15.4
					c4.6-3.5,10.5-5.4,16.3-5.4c13.2,0,21.6,10,21.6,21.4c0,8.1-3.5,13.7-10.1,18.9l-1.9-2c3.6-3.2,6.6-7.5,6.6-12.2
					c0-8.7-9.2-14.1-17.6-14.1L203.2,593.2L203.2,593.2z M199.3,565.1c-5.9,0.1-14.9,2.2-14.9,9.4c0,6.6,6.1,8.1,14.9,8.1V565.1"/>
				<path id="path2862" class="st0" d="M171.5,623.7c-6.2,0-8.9,0-8.9,6.7c0,7.8,4.2,12.7,14.1,12.7c10.7,0,14.6-4.7,14.6-14.5v-4.9
					H171.5z M194.8,630.8c0,11.9-1.7,26.8-18.3,26.8c-8.9,0-17.4-7.1-17.4-25.7V602h3c0,6,2,8.1,8.3,8.1h43.5c6.3,0,8.3-2.1,8.3-8.1
					h3v29.7h-3c0-6-2-8.1-8.3-8.1h-19.1V630.8"/>
				<path id="path2864" class="st0" d="M196.3,674.3c-1.7,1-6,4.2-6,6.1c0,1.8,2.3,4.6,2.3,7.1c0,3-2.8,5.2-6,5.2
					c-3.4,0-7-2.3-7-5.6c0-5.1,6.7-9.9,10.7-12.8h-10.4l5.5-17.9h2.8c0.6,4.8,3.9,5.9,8.7,5.9h18.1c6.9,0,7.4-2.1,7.4-5.8h2.8v23.7
					h-2.8c0-3.6-0.9-5.6-5.9-5.9L196.3,674.3"/>
				<path id="path2866" class="st0" d="M203.2,732.1c-12.7,0.3-22.7-7.6-22.7-19.2c0-6.1,2.6-11.5,7.8-15.4
					c4.6-3.5,10.5-5.4,16.3-5.4c13.2,0,21.6,10,21.6,21.4c0,8.1-3.5,13.7-10.1,18.9l-1.9-2c3.6-3.2,6.6-7.5,6.6-12.2
					c0-8.7-9.2-14.1-17.6-14.1L203.2,732.1L203.2,732.1z M199.3,703.9c-5.9,0.1-14.9,2.2-14.9,9.4c0,6.6,6.1,8.1,14.9,8.1V703.9"/>
				<path id="path2868" class="st0" d="M179.6,767.1c1.5-1.7,2.7-4,2.7-6.1c0-2.6-1.8-6.6-1.8-10c0-7.6,6.1-14.1,14.6-14.1
					c10.4,0,12.9,9.6,14.6,17.2c0.9,3.8,2.3,9.6,7.7,9.6c3.8,0,5.4-3.5,5.4-6.5c0-7.6-6.6-13.8-12.6-18.2l1-3l15.6,4.2
					c-1.3,2.3-1.8,5-1.8,7.6c0,1.7,0.6,3.2,0.9,4.9c1.2,7.2,0,11.9-3.2,15.5c-2.8,3.1-7.1,5-12.1,5c-10,0-12.9-8.6-14.3-16.1
					c-0.6-3.6-1.2-11.9-6.7-11.9c-3.6,0-5.6,3.4-5.6,6.4c0,6.6,6.4,12.5,11.6,16.4l-1.3,3.2L179.6,767.1"/>
				<path id="path2870" class="st0" d="M179.6,807.9c1.5-1.7,2.7-4,2.7-6.1c0-2.6-1.8-6.6-1.8-10c0-7.6,6.1-14.1,14.6-14.1
					c10.4,0,12.9,9.6,14.6,17.2c0.9,3.8,2.3,9.6,7.7,9.6c3.8,0,5.4-3.5,5.4-6.5c0-7.6-6.6-13.8-12.6-18.2l1-3l15.6,4.2
					c-1.3,2.3-1.8,5-1.8,7.6c0,1.7,0.6,3.2,0.9,4.9c1.2,7.2,0,11.9-3.2,15.5c-2.8,3.1-7.1,5-12.1,5c-10,0-12.9-8.6-14.3-16.1
					c-0.6-3.6-1.2-11.9-6.7-11.9c-3.6,0-5.6,3.4-5.6,6.4c0,6.6,6.4,12.5,11.6,16.4l-1.3,3.2L179.6,807.9"/>
				<path id="path2872" class="st0" d="M203.2,857c-12.7,0.2-22.7-7.6-22.7-19.2c0-6.1,2.6-11.5,7.8-15.4c4.6-3.5,10.5-5.4,16.3-5.4
					c13.2,0,21.6,10,21.6,21.4c0,8.1-3.5,13.7-10.1,18.9l-1.9-2c3.6-3.2,6.6-7.5,6.6-12.2c0-8.7-9.2-14.1-17.6-14.1L203.2,857
					L203.2,857z M199.3,828.9c-5.9,0.1-14.9,2.2-14.9,9.4c0,6.6,6.1,8.1,14.9,8.1V828.9"/>
				<path id="path2874" class="st0" d="M242.5,791.6h13.8v147.1h-13.8V791.6z"/>
				<path id="path2876" class="st0" d="M242.5,316.7h13.8v146.1h-13.8V316.7z"/>
				<path id="path2878" class="st0" d="M256.2,485.6c0-1.6-0.3-2.6-0.4-3c-0.1-0.4-0.2-0.7-0.5-0.7c-1-0.1-2.1-0.2-3-0.3
					c-0.3,0-0.3,0.7,0,0.7c2.1,0.3,3.2,1.3,3.2,3c0,1.8-1.1,2.9-2.5,2.9c-1.4,0-2.1-0.8-2.8-2.7c-1.1-2.9-2.3-3.7-4.1-3.7
					c-2.5,0-3.6,1.9-3.6,3.8c0,1.1,0.2,2.1,0.3,2.5c0.1,0.6,0.1,1.1,0.6,1.1c1.1,0,1.8,0,2.8,0c0.2,0,0.2-0.6,0-0.6
					c-1.9-0.3-3-1.1-3-2.8c0-1.7,1-2.5,2.2-2.5c1.2,0,1.9,0.6,2.6,2.5c1.1,2.7,1.9,4.1,4.4,4.1C254.8,489.9,256.2,487.9,256.2,485.6
					"/>
				<path id="path2880" class="st0" d="M255.9,501.8v-2.9c0-0.3-0.6-0.3-0.6,0c0,0.3-0.1,0.7-0.1,0.9c-0.1,0.6-0.4,0.8-2.7,0
					c-0.6-0.2-1.3-0.5-1.7-0.7v-3.8c0-0.3,0.1-0.4,0.6-0.6c0.6-0.2,1.5-0.6,2-0.7c1-0.2,1.7-0.3,1.9,0.5c0,0.2,0.1,0.6,0.1,0.9
					c0,0.3,0.6,0.1,0.6-0.2v-4.2c0-0.3-0.5-0.3-0.6,0c-0.1,1.1-0.2,1.4-1.4,1.9c-2,0.8-10.4,4.3-11.4,4.5c-0.1,0.2-0.1,0.6,0,0.7
					c3,1.2,10.4,4,11.2,4.4c1.1,0.5,1.6,0.8,1.6,1.9c0,0.3,0.7,0.4,0.7,0C255.9,503.8,255.9,502.7,255.9,501.8 M245.4,497.1
					c1.1-0.4,3.6-1.4,4.1-1.6c0.6-0.3,0.7-0.2,0.7,0.6c0,0.6,0,2.5,0,2.8L245.4,497.1"/>
				<path id="path2882" class="st0" d="M246.7,516.6c0.3,0,0.3-0.6,0.1-0.6c-1.6-0.3-3.7-0.8-3.7-4.1c0-3.3,2.7-4.9,6.1-4.9
					c3.7,0,6.3,1.7,6.3,4.8c0,2.4-1.3,4-3.8,4.4c-0.3,0.1-0.2,0.5,0.1,0.5c0.8,0,2.7-0.2,2.9-0.3c0.2-0.1,0.8-1.2,1.1-2
					c0.3-0.8,0.5-1.9,0.5-3c0-3.9-2.6-6.8-6.8-6.8c-4.2,0-7,2.8-7,6.9c0,1.3,0.4,2.5,0.6,3.4c0.1,0.5,0.3,1.1-0.2,1.2
					c-0.3,0.1-0.2,0.6,0.1,0.6C244.2,516.6,245.8,516.6,246.7,516.6"/>
				<path id="path2884" class="st0" d="M255.9,529.8c0-0.9,0-1.8,0.1-2.9c0-0.3-0.6-0.2-0.7,0c0,0.3,0,1.5-0.2,1.7
					c-0.2,0.1-2,0.2-5.8,0.2v-6.3c3.7,0,5.7,0,5.8,0c0.1,0.1,0.1,1.5,0.1,1.9c0,0.2,0.7,0.2,0.7,0c-0.1-0.6-0.1-2-0.1-2.9
					c0-0.9,0-1.8,0-2.9c0-0.2-0.7-0.2-0.7,0c0,0.5,0,1.4-0.2,1.6c-0.3,0.3-3,0.3-6,0.3c-2.1,0-5.4,0-5.5-0.1
					c-0.2-0.3-0.2-1.1-0.2-1.6c0-0.2-0.7-0.2-0.7,0c0,0.8,0.1,1.8,0.1,2.7c0,0.9-0.1,2.4-0.1,2.9c0,0.2,0.7,0.2,0.7,0
					c0-0.4,0-1.4,0.2-1.6c0.3-0.3,0.8-0.3,5.2-0.3v6.3c-3.9,0-5,0-5.2-0.2c-0.2-0.2-0.2-1.3-0.2-1.7c0-0.2-0.7-0.2-0.7,0
					c0,0.6,0.1,2,0.1,2.9c0,0.9-0.1,2.3-0.1,2.7c0,0.2,0.7,0.2,0.7,0c0-0.5,0-1.2,0.2-1.4c0.3-0.3,1.4-0.3,5.5-0.3
					c3.1,0,5.8,0,6,0.2c0.2,0.2,0.3,1.3,0.3,1.7c0,0.2,0.7,0.2,0.7,0C255.9,532.2,255.9,530.7,255.9,529.8"/>
				<path id="path2886" class="st0" d="M256.2,538.8c0-1.6-0.3-2.6-0.4-3c-0.1-0.4-0.2-0.7-0.5-0.7c-1-0.1-2.1-0.2-3-0.3
					c-0.3,0-0.3,0.7,0,0.7c2.1,0.3,3.2,1.3,3.2,3c0,1.8-1.1,2.9-2.5,2.9c-1.4,0-2.1-0.8-2.8-2.7c-1.1-2.9-2.3-3.7-4.1-3.7
					c-2.5,0-3.6,1.9-3.6,3.8c0,1.1,0.2,2.1,0.3,2.5c0.1,0.6,0.1,1.1,0.6,1.1c1.1,0,1.8,0,2.8,0c0.2,0,0.2-0.6,0-0.6
					c-1.9-0.3-3-1.1-3-2.8c0-1.7,1-2.5,2.2-2.5c1.2,0,1.9,0.6,2.6,2.5c1.1,2.7,1.9,4.1,4.4,4.1C254.8,543.2,256.2,541.1,256.2,538.8
					"/>
				<path id="path2888" class="st0" d="M255.9,556.2c0.2-1.1,0-4.2,0-8.4c0-0.9,0-2.2,0-2.9c0-0.3-0.6-0.3-0.6,0
					c0,0.6,0,1.4-0.2,1.6c-0.3,0.3-3,0.3-6.1,0.3c-2.1,0-5.4,0-5.6-0.2c-0.2-0.2-0.2-0.9-0.2-1.5c0-0.3-0.7-0.3-0.7,0
					c0,0.7,0,2.5,0,3.5c0,3.2-0.1,6.9-0.1,7.2c0,0.3,0.1,0.4,0.4,0.4c0.9-0.1,2-0.2,3-0.3c0.3,0,0.2-0.7,0-0.7c-2.2,0.1-2.7-1-2.7-4
					c0-0.7,0-1.7,0-2.3l5.3-0.1c0,0.4,0.1,1,0.1,1.5c0,2-0.3,2.3-2.4,2.4c-0.2,0-0.3,0.7,0.1,0.7c1.2,0,3.6-0.1,5.1,0
					c0.3,0,0.2-0.6,0-0.6c-1.8-0.2-2.2-0.9-2.2-2.3c0-0.6,0-1.6,0-1.6h4.2c1.2,0,1.8,0.3,1.8,1.7c0,0.9,0,3.6-0.6,4.2
					c-0.6,0.6-1.6,1-2.5,1.1c-0.3,0-0.2,0.6,0.1,0.6C253.6,556.3,255.9,556.2,255.9,556.2"/>
				<path id="path2890" class="st0" d="M243.7,570.4c0.3-0.3,0.9-0.4,1.8-0.4h10.3c0.3,0,0.3-1,0.1-1c-0.4,0-10.9-8.2-10.9-8.2h8.1
					c1.1,0,2,0.1,2.1,0.9c0.1,0.4,0.1,0.6,0.1,0.8c0,0.2,0.6,0.2,0.6,0v-2.1c0-0.6,0-1.6,0-2.3c0-0.2-0.7-0.2-0.7,0
					c0,0.4-0.1,1.1-0.3,1.3c-0.3,0.3-0.8,0.5-2.2,0.5h-7.9c-0.7,0-0.8-0.1-1.2-0.5c-0.2-0.2-0.3-0.7-0.3-1.1c0-0.2-0.7-0.2-0.7,0
					c0.1,0.7,0,3.1,0.1,3.3c0.1,0.2,9.5,7.5,9.7,7.6h-7c-1.1,0-1.9-0.1-2-0.9c-0.1-0.4-0.1-0.7-0.1-0.9c0-0.2-0.6-0.2-0.6,0v2
					c0,0.6,0,1.8-0.1,2.6c0,0.2,0.7,0.2,0.7,0C243.3,571.3,243.4,570.6,243.7,570.4"/>
				<path id="path2892" class="st0" d="M256.2,577.2c0-1.6-0.3-2.6-0.4-3c-0.1-0.4-0.2-0.7-0.5-0.7c-1-0.1-2.1-0.2-3-0.3
					c-0.3,0-0.3,0.7,0,0.7c2.1,0.3,3.2,1.3,3.2,3c0,1.8-1.1,2.9-2.5,2.9c-1.4,0-2.1-0.8-2.8-2.7c-1.1-2.9-2.3-3.7-4.1-3.7
					c-2.5,0-3.6,1.9-3.6,3.8c0,1.1,0.2,2.1,0.3,2.5c0.1,0.6,0.1,1.1,0.6,1.1c1.1,0,1.8,0,2.8,0c0.2,0,0.2-0.6,0-0.6
					c-1.9-0.3-3-1.1-3-2.8c0-1.7,1-2.5,2.2-2.5c1.2,0,1.9,0.6,2.6,2.5c1.1,2.7,1.9,4.1,4.4,4.1C254.8,581.6,256.2,579.5,256.2,577.2
					"/>
				<path id="path2894" class="st0" d="M251.3,601.5c0.2-0.2,0.4-0.2,0.7-0.2c0.8,0,2.4,0.2,2.6,0.1c0.2-0.1,0.3-0.8,0.7-1.8
					c0.4-0.9,0.8-2.3,0.8-3.7c0-4-2.7-6.8-6.9-6.8c-4.1,0-6.9,2.9-6.9,7c0,1.7,0.5,3.1,0.6,3.7c0.2,0.5,0.1,0.8-0.2,0.9
					c-0.4,0.1-0.3,0.7,0.1,0.6c1.2-0.2,2.6-0.3,3.9-0.3c0.2,0,0.2-0.6,0-0.6c-2.1-0.4-3.7-1.3-3.7-4.2c0-3.2,2.6-4.9,6.2-4.9
					c3.6,0,6.3,1.6,6.3,4.7c0,1.7-0.8,3.3-1.6,3.3c-0.8,0-2.4,0-2.5-0.2c-0.2-0.2-0.3-1.3-0.3-1.7c0-0.3-0.6-0.3-0.6,0
					c0,1.1,0,2.5,0,2.7c0,0.3-0.1,1.7-0.1,2.3c0,0.4,0.7,0.4,0.7,0C251,602.1,251.1,601.7,251.3,601.5"/>
				<path id="path2896" class="st0" d="M256.1,613.4c-0.2-1.2-0.9-2-3.3-1.8c-1.7,0.1-2.3,0-2.9-0.7c-0.4-0.6-0.6-1.5-0.6-1.9v-1.4
					l3.3,0c1.9,0,2.4,0.2,2.5,0.4c0.1,0.2,0.2,1.4,0.2,1.6c0,0.3,0.6,0.3,0.6,0v-3.3c0-0.9,0-1.9,0-2.5c0-0.3-0.6-0.3-0.6,0
					c0,0.4,0,1.3-0.2,1.5c-0.3,0.3-2.1,0.3-6,0.3c-3.9,0-5.3,0-5.6-0.2c-0.2-0.5-0.2-1.1-0.2-1.5c0-0.3-0.7-0.3-0.7,0
					c0,0.6,0.1,1.5,0.1,2.6c0,1.1,0,2.8-0.1,3.4c-0.1,2.1,0.9,4.1,3.1,4.1c2,0,3.1-1.2,3.2-3.2c0.2,2.2,1.5,3.1,3.3,3
					c2.2-0.1,2.6,0.1,2.8,0.6c0.2,0.5-0.3,1-0.7,1.2c-0.4,0.1-0.3,0.7,0.2,0.5C255.7,615.6,256.3,614.4,256.1,613.4 M243.2,608.7
					c0-0.2,0-0.8,0.1-1c0.2-0.1,5.3-0.2,5.3-0.2c0,0.3,0,0.6,0,0.8c0,2.4-0.6,3.5-2.8,3.5C243.9,611.8,243.2,610.3,243.2,608.7"/>
				<path id="path2898" class="st0" d="M256.2,623.4c0-3.4-2.1-6.7-6.7-6.7c-5,0-7.1,3.6-7.1,7c0,3.1,1.8,6.6,7,6.6
					C252.7,630.3,256.2,627.9,256.2,623.4 M243,623.7c0-2.8,2.2-4.7,6.2-4.7c3.9,0,6.3,1.5,6.3,4.4c0,2.9-2.4,4.7-6.3,4.7
					C245.3,628.1,243,626.5,243,623.7 M241.4,621.7c0-0.6-0.4-1.1-1.1-1.1c-0.7,0-1.1,0.5-1.1,1.1c0,0.5,0.4,1,1,1
					C241,622.7,241.4,622.3,241.4,621.7 M241.4,625.5c0-0.6-0.4-1.1-1.1-1.1c-0.7,0-1.1,0.5-1.1,1.1c0,0.5,0.4,1.1,1,1.1
					C241,626.5,241.4,626.1,241.4,625.5"/>
				<path id="path2900" class="st0" d="M256.2,636.3c0-1.6-0.3-2.6-0.4-3c-0.1-0.4-0.2-0.7-0.5-0.7c-1-0.1-2.1-0.2-3-0.3
					c-0.3,0-0.3,0.7,0,0.7c2.1,0.3,3.2,1.3,3.2,3c0,1.8-1.1,2.9-2.5,2.9c-1.4,0-2.1-0.8-2.8-2.7c-1.1-2.9-2.3-3.7-4.1-3.7
					c-2.5,0-3.6,1.9-3.6,3.8c0,1.1,0.2,2.1,0.3,2.5c0.1,0.6,0.1,1.1,0.6,1.1c1.1,0,1.8,0,2.8,0c0.2,0,0.2-0.6,0-0.6
					c-1.9-0.3-3-1.1-3-2.8c0-1.7,1-2.5,2.2-2.5c1.2,0,1.9,0.6,2.6,2.5c1.1,2.7,1.9,4.1,4.4,4.1C254.8,640.7,256.2,638.6,256.2,636.3
					"/>
				<path id="path2902" class="st0" d="M256.2,647c0-1.6-0.3-2.6-0.4-3c-0.1-0.4-0.2-0.7-0.5-0.7c-1-0.1-2.1-0.2-3-0.3
					c-0.3,0-0.3,0.7,0,0.7c2.1,0.3,3.2,1.3,3.2,3c0,1.8-1.1,2.9-2.5,2.9c-1.4,0-2.1-0.8-2.8-2.7c-1.1-2.9-2.3-3.7-4.1-3.7
					c-2.5,0-3.6,1.9-3.6,3.8c0,1.1,0.2,2.1,0.3,2.5c0.1,0.6,0.1,1.1,0.6,1.1c1.1,0,1.8,0,2.8,0c0.2,0,0.2-0.6,0-0.6
					c-1.9-0.3-3-1.1-3-2.8c0-1.7,1-2.5,2.2-2.5c1.2,0,1.9,0.6,2.6,2.5c1.1,2.7,1.9,4.1,4.4,4.1C254.8,651.4,256.2,649.3,256.2,647"
					/>
				<path id="path2904" class="st0" d="M246.1,663.9c-2-0.3-2.9-1-2.9-4.2c0.8,0,3.5,0,5.8,0c3.9,0,5.8,0,6,0.2
					c0.3,0.2,0.3,1.3,0.3,1.8c0,0.3,0.6,0.3,0.6,0c0-1.1,0-2.1,0-3c0-0.9,0-1.9,0-3c0-0.3-0.6-0.3-0.6,0c0,0.5,0,1.6-0.3,1.8
					c-0.3,0.2-3,0.2-6,0.2c-2.1,0-3.6,0-5.8,0c0-3.2,0.9-3.9,3.1-4.3c0.2,0,0.2-0.6,0-0.6c-1.2,0.1-3.5,0.1-3.6,0.2
					c-0.1,0.1,0,1.9,0,5.7c0,3.6-0.2,5.7-0.1,5.8c0.2,0.1,2.2,0.1,3.5,0.1C246.4,664.4,246.4,663.9,246.1,663.9"/>
				<path id="path2906" class="st0" d="M255.9,677.3c0.2-1.1,0-4.2,0-8.4c0-0.9,0-2.2,0-2.9c0-0.3-0.6-0.3-0.6,0
					c0,0.6,0,1.4-0.2,1.6c-0.3,0.3-3,0.3-6.1,0.3c-2.1,0-5.4,0-5.6-0.2c-0.2-0.2-0.2-0.9-0.2-1.5c0-0.3-0.7-0.3-0.7,0
					c0,0.7,0,2.5,0,3.5c0,3.2-0.1,6.9-0.1,7.2c0,0.3,0.1,0.4,0.4,0.4c0.9-0.1,2-0.2,3-0.3c0.3,0,0.2-0.7,0-0.7c-2.2,0.1-2.7-1-2.7-4
					c0-0.7,0-1.7,0-2.3l5.3-0.1c0,0.4,0.1,1,0.1,1.5c0,2-0.3,2.3-2.4,2.4c-0.2,0-0.3,0.7,0.1,0.7c1.2,0,3.6-0.1,5.1,0
					c0.3,0,0.2-0.6,0-0.6c-1.8-0.2-2.2-0.9-2.2-2.3c0-0.6,0-1.6,0-1.6h4.2c1.2,0,1.8,0.3,1.8,1.7c0,0.9,0,3.6-0.6,4.2
					c-0.6,0.6-1.6,1-2.5,1.1c-0.3,0-0.2,0.6,0.1,0.6C253.6,677.4,255.9,677.3,255.9,677.3"/>
				<path id="path2908" class="st0" d="M256,694.3c0.1-0.1-0.1-3.3-0.1-5.6c0-2.4,0.1-3.7,0.1-4.7c0-0.2-0.5-0.2-0.6,0
					c-0.4,0.5-12,8-12.1,8c0-0.3-0.1-2.5-0.1-4c0-1.6,0.8-2.7,2.9-3c0.2,0,0.2-0.6,0-0.6c-1.3,0-3.2,0.1-3.5,0.2
					c-0.2,0.1-0.1,2.9-0.1,5c0,2.1,0.1,4.6,0.1,4.8c0,0.2,0.6,0.2,0.7,0.1c0.4-0.4,1.1-0.9,2-1.5c1.6-1,6.4-4.2,10-6.6v4.3
					c0,1.7-1.2,3.1-3.2,3.4c-0.2,0-0.2,0.6,0,0.6C253.3,694.8,255.9,694.5,256,694.3"/>
				<path id="path2910" class="st0" d="M255.9,707.7c0.2-1.1,0-4.2,0-8.4c0-0.9,0-2.2,0-2.9c0-0.3-0.6-0.3-0.6,0
					c0,0.6,0,1.4-0.2,1.6c-0.3,0.3-3,0.3-6.1,0.3c-2.1,0-5.4,0-5.6-0.2c-0.2-0.2-0.2-0.9-0.2-1.5c0-0.3-0.7-0.3-0.7,0
					c0,0.7,0,2.5,0,3.5c0,3.2-0.1,6.9-0.1,7.2c0,0.3,0.1,0.4,0.4,0.4c0.9-0.1,2-0.2,3-0.3c0.3,0,0.2-0.7,0-0.7c-2.2,0.1-2.7-1-2.7-4
					c0-0.7,0-1.7,0-2.3l5.3-0.1c0,0.4,0.1,1,0.1,1.5c0,2-0.3,2.3-2.4,2.4c-0.2,0-0.3,0.7,0.1,0.7c1.2,0,3.6-0.1,5.1,0
					c0.3,0,0.2-0.6,0-0.6c-1.8-0.2-2.2-0.9-2.2-2.3c0-0.6,0-1.6,0-1.6h4.2c1.2,0,1.8,0.3,1.8,1.7c0,0.9,0,3.6-0.6,4.2
					c-0.6,0.6-1.6,1-2.5,1.1c-0.3,0-0.2,0.6,0.1,0.6C253.6,707.9,255.9,707.7,255.9,707.7"/>
				<path id="path2912" class="st0" d="M255.9,712.7c0-0.9,0-2.1,0-3c0-0.3-0.6-0.3-0.6,0c0,0.4-0.1,1.7-0.2,1.8
					c-0.2,0.1-3,0.1-6.1,0.1c-2.1,0-5.5,0-5.6-0.1c-0.1-0.2-0.2-1.1-0.2-1.7c0-0.2-0.7-0.3-0.7,0c0,0.8,0,1.9,0,2.8c0,0.9,0,2,0,2.9
					c0,0.4,0.7,0.3,0.7,0c0-0.5,0-1.6,0.2-1.7c0.2-0.1,1.6-0.2,5.6-0.2c3.9,0,5.9,0,6.1,0.1c0.1,0.1,0.2,1.4,0.2,1.8
					c0,0.3,0.6,0.3,0.6,0C255.9,714.7,255.9,713.6,255.9,712.7"/>
				<path id="path2914" class="st0" d="M246.1,728.3c-2-0.3-2.9-1-2.9-4.2c0.8,0,3.5,0,5.8,0c3.9,0,5.8,0,6,0.2
					c0.3,0.2,0.3,1.3,0.3,1.8c0,0.3,0.6,0.3,0.6,0c0-1.1,0-2.1,0-3c0-0.9,0-1.9,0-3c0-0.3-0.6-0.3-0.6,0c0,0.5,0,1.6-0.3,1.8
					c-0.3,0.2-3,0.2-6,0.2c-2.1,0-3.6,0-5.8,0c0-3.2,0.9-3.9,3.1-4.3c0.2,0,0.2-0.6,0-0.6c-1.2,0.1-3.5,0.1-3.6,0.2
					c-0.1,0.1,0,1.9,0,5.7c0,3.6-0.2,5.7-0.1,5.8c0.2,0.1,2.2,0.1,3.5,0.1C246.4,728.9,246.4,728.3,246.1,728.3"/>
				<path id="path2916" class="st0" d="M243.7,742.2c0.4-0.3,1.8-0.3,2.6-0.3h4.5c3.5,0,5.3-1.4,5.3-4.8c0-3.3-1.6-4.9-4.7-4.9
					c-1.7,0-7.9,0.1-8-0.1c-0.1-0.2-0.2-0.7-0.2-1.4c0-0.3-0.7-0.3-0.7,0c0,1.1,0.1,1.7,0.1,2.6c0,0.9,0,1.5,0,2.6
					c0,0.4,0.7,0.4,0.7,0c0-0.6,0-1.3,0.3-1.5c0.3-0.2,4-0.2,7.6-0.2c2.5,0,3.9,0.9,3.9,3.3c0,2.4-1.3,3.6-4,3.6l-4.8,0
					c-1.4,0-2.5,0-2.8-0.8c-0.2-0.4-0.2-0.9-0.2-1.2c0-0.2-0.6-0.2-0.6,0v2.1c0,0.6,0,1.7-0.1,2.5c0,0.2,0.7,0.2,0.7,0
					C243.3,743.2,243.5,742.4,243.7,742.2"/>
				<path id="path2918" class="st0" d="M243.7,757.7c0.3-0.3,0.9-0.4,1.8-0.4h10.3c0.3,0,0.3-1,0.1-1c-0.4,0-10.9-8.2-10.9-8.2h8.1
					c1.1,0,2,0.1,2.1,0.9c0.1,0.4,0.1,0.6,0.1,0.8c0,0.2,0.6,0.2,0.6,0v-2.1c0-0.6,0-1.6,0-2.3c0-0.2-0.7-0.2-0.7,0
					c0,0.4-0.1,1.1-0.3,1.3c-0.3,0.3-0.8,0.5-2.2,0.5h-7.9c-0.7,0-0.8-0.1-1.2-0.5c-0.2-0.2-0.3-0.7-0.3-1.1c0-0.2-0.7-0.2-0.7,0
					c0.1,0.7,0,3.1,0.1,3.3c0.1,0.2,9.5,7.5,9.7,7.6h-7c-1.1,0-1.9-0.1-2-0.9c-0.1-0.4-0.1-0.7-0.1-0.9c0-0.2-0.6-0.2-0.6,0v2
					c0,0.6,0,1.8-0.1,2.6c0,0.2,0.7,0.2,0.7,0C243.3,758.6,243.4,757.9,243.7,757.7"/>
				<path id="path2920" class="st0" d="M251.3,772.5c0.2-0.2,0.4-0.2,0.7-0.2c0.8,0,2.4,0.2,2.6,0.1c0.2-0.1,0.3-0.8,0.7-1.8
					c0.4-0.9,0.8-2.3,0.8-3.7c0-4-2.7-6.8-6.9-6.8c-4.1,0-6.9,2.9-6.9,7c0,1.7,0.5,3.1,0.6,3.7c0.2,0.5,0.1,0.8-0.2,0.9
					c-0.4,0.1-0.3,0.7,0.1,0.6c1.2-0.2,2.6-0.3,3.9-0.3c0.2,0,0.2-0.6,0-0.6c-2.1-0.4-3.7-1.3-3.7-4.2c0-3.2,2.6-4.9,6.2-4.9
					c3.6,0,6.3,1.6,6.3,4.7c0,1.7-0.8,3.3-1.6,3.3c-0.8,0-2.4,0-2.5-0.2c-0.2-0.2-0.3-1.3-0.3-1.7c0-0.3-0.6-0.3-0.6,0
					c0,1.1,0,2.4,0,2.7c0,0.3-0.1,1.7-0.1,2.3c0,0.4,0.7,0.4,0.7,0C251,773.2,251.1,772.7,251.3,772.5"/>
			</g>
		</g>
	</g>
</g>
</svg>
