<?xml version="1.0" encoding="utf-8"?>
<!-- Generator: Adobe Illustrator 24.1.3, SVG Export Plug-In . SVG Version: 6.00 Build 0)  -->
<svg version="1.1" id="Ebene_6" xmlns="http://www.w3.org/2000/svg" xmlns:xlink="http://www.w3.org/1999/xlink" x="0px" y="0px"
	 viewBox="0 0 500 154.5" style="enable-background:new 0 0 500 154.5;" xml:space="preserve">
<style type="text/css">
	.st0{fill:#FFFFFF;}
</style>
<path class="st0" d="M135.3,0H19.2C8.5,0,0,8.5,0,19.2v116.2c0,10.7,8.5,19.2,19.2,19.2h116.2c10.7,0,19.2-8.5,19.2-19.2V19.2
	C154.5,8.5,146,0,135.3,0z M74.8,53.4L46,79.2l28.8,25.8v34.2L27.4,93.7V64.9l47.4-46V53.4z M127.1,93.7L80,139.5v-34.2l28.8-25.8
	L80,53.7V18.9l47.4,45.8v29H127.1z"/>
<path class="st0" d="M206.8,107.7v-57h8.5v7.9c1.9-2.7,4.1-4.9,7.1-6.8c3-1.6,6.3-2.5,10.1-2.5c4.1,0,7.7,0.8,10.4,2.7
	c2.7,1.6,4.7,4.1,5.8,7.4c4.4-6.6,10.4-9.9,17.5-9.9c5.8,0,9.9,1.6,12.9,4.7s4.7,7.9,4.7,14.5v38.9h-9.6V71.8c0-3.8-0.3-6.6-0.8-8.2
	c-0.5-1.6-1.6-3-3.3-4.1c-1.6-1.1-3.6-1.6-5.8-1.6c-4.1,0-7.4,1.4-9.9,4.1c-2.7,2.7-3.8,6.8-3.8,12.9v33.2h-10.1V70.7
	c0-4.4-0.8-7.4-2.5-9.6c-1.6-2.2-4.1-3.3-7.7-3.3c-2.7,0-5.2,0.8-7.4,2.2c-2.2,1.4-3.8,3.6-4.9,6.3c-1.1,2.7-1.6,6.6-1.6,11.8v29.6
	L206.8,107.7z"/>
<path class="st0" d="M294,129.6l-1.1-9c2.2,0.5,3.8,0.8,5.5,0.8c2.2,0,3.8-0.3,5.2-1.1c1.4-0.8,2.5-1.6,3.3-3c0.5-1.1,1.6-3.3,3-7.1
	c0.3-0.5,0.5-1.4,0.8-2.5l-21.6-57h10.4l11.8,32.9c1.6,4.1,3,8.5,4.1,13.2c1.1-4.4,2.5-8.8,3.8-12.9l12.1-33.2h9.6l-21.6,57.8
	c-2.2,6.3-4.1,10.4-5.5,12.9c-1.6,3.3-3.6,5.5-5.8,6.8c-2.2,1.4-4.9,2.2-7.9,2.2C298.4,130.7,296.4,130.4,294,129.6z"/>
<path class="st0" d="M377.8,50.7v12.1h-10.4v23c0,4.7,0,7.4,0.3,8.2s0.5,1.4,1.4,1.9c0.8,0.5,1.6,0.8,2.5,0.8c1.4,0,3.3-0.5,6-1.4
	l1.4,11.8c-3.6,1.4-7.4,2.2-11.8,2.2c-2.7,0-5.2-0.5-7.4-1.4c-2.2-0.8-3.8-2.2-4.7-3.6s-1.6-3.3-2.2-5.8c-0.3-1.6-0.5-5.2-0.5-10.7
	V63.3h-6.8V51.2h6.8V40l15.1-8.8v20h10.4V50.7z"/>
<path class="st0" d="M399.5,68.2l-13.7-2.5c1.6-5.5,4.1-9.6,7.9-12.3c3.8-2.7,9.3-3.8,16.7-3.8c6.6,0,11.8,0.8,15.1,2.5
	s5.5,3.6,6.8,6s1.9,6.8,1.9,13.4L434,89c0,4.9,0.3,8.8,0.8,11c0.5,2.2,1.4,4.9,2.7,7.7h-14.8c-0.3-1.1-0.8-2.5-1.4-4.4
	c-0.3-0.8-0.5-1.4-0.5-1.6c-2.5,2.5-5.2,4.4-8.2,5.8c-3,1.4-6,1.9-9.3,1.9c-5.8,0-10.4-1.6-13.7-4.7s-4.9-7.1-4.9-12.1
	c0-3.3,0.8-6,2.2-8.5c1.4-2.5,3.6-4.4,6.6-5.8c3-1.4,6.8-2.5,12.1-3.6c7.1-1.4,11.8-2.5,14.5-3.6v-1.4c0-3-0.8-4.9-2.2-6.3
	c-1.4-1.4-4.1-1.9-7.9-1.9c-2.7,0-4.7,0.5-6.3,1.6C401.6,63.6,400.3,65.5,399.5,68.2z M419.5,80.3c-1.9,0.5-4.9,1.4-9,2.2
	s-6.8,1.6-8.2,2.7c-1.9,1.4-3,3.3-3,5.2c0,2.2,0.8,3.8,2.5,5.5c1.6,1.6,3.6,2.2,6,2.2c2.7,0,5.2-0.8,7.7-2.7c1.9-1.4,3-3,3.6-4.9
	c0.3-1.4,0.5-3.8,0.5-7.4L419.5,80.3L419.5,80.3z"/>
<path class="st0" d="M446.6,111.2l17.3,2.2c0.3,1.9,0.8,3.3,1.9,4.1c1.4,1.1,3.6,1.6,6.8,1.6c3.8,0,6.8-0.5,8.8-1.6
	c1.4-0.8,2.2-1.9,3-3.8c0.5-1.4,0.8-3.6,0.8-6.8v-8.2c-4.4,6-10.1,9.3-17,9.3c-7.7,0-13.7-3.3-18.1-9.6c-3.6-5.2-5.2-11.5-5.2-19.2
	c0-9.6,2.2-16.7,6.8-21.9c4.7-5.2,10.4-7.7,17-7.7c7.1,0,12.9,3,17.3,9.3V51h14v51c0,6.6-0.5,11.8-1.6,15.1s-2.7,6-4.7,7.9
	c-1.9,1.9-4.7,3.3-7.9,4.4c-3.3,1.1-7.7,1.6-12.6,1.6c-9.6,0-16.4-1.6-20.5-4.9c-4.1-3.3-6-7.4-6-12.6
	C446.6,112.6,446.6,112.1,446.6,111.2z M460,78.1c0,6,1.1,10.4,3.6,13.2c2.5,2.7,5.2,4.1,8.8,4.1c3.6,0,6.8-1.4,9.3-4.4
	s3.8-7.1,3.8-12.9s-1.1-10.1-3.6-13.2c-2.5-2.7-5.5-4.4-9.3-4.4c-3.6,0-6.6,1.4-9,4.1C461.1,67.9,460,72.3,460,78.1z"/>
</svg>
