<?xml version="1.0" encoding="utf-8"?>
<!-- Generator: Adobe Illustrator 24.1.3, SVG Export Plug-In . SVG Version: 6.00 Build 0)  -->
<svg version="1.1" id="Ebene_1" xmlns="http://www.w3.org/2000/svg" xmlns:xlink="http://www.w3.org/1999/xlink" x="0px" y="0px"
	 viewBox="0 0 500 350.6" style="enable-background:new 0 0 500 350.6;" xml:space="preserve">
<style type="text/css">
	.st0{fill:#FFFFFF;}
</style>
<g>
	<g>
		<path class="st0" d="M98.1,86.8c0-5.2,0.7-8.5,2.3-9.7c1.5-1.3,5.2-1.9,11.3-1.9c6.1,0,10,0.6,11.4,2c1.4,1.4,2.3,4.5,2.3,9.6v7.8
			h-11.9v-7.5c0-1.1-0.2-1.8-0.4-2.2c-0.3-0.4-0.8-0.5-1.5-0.5c-0.5,0-1,0.2-1.2,0.5c-0.2,0.4-0.4,1.1-0.4,2.3v32.9
			c0,1,0.1,1.8,0.4,2.2c0.3,0.5,0.7,0.6,1.4,0.6c0.5,0,1-0.2,1.3-0.5c0.3-0.4,0.5-0.8,0.5-1.4v-1v-12.2h11.9v12.5
			c0,5.1-0.7,8.4-2.3,9.7c-1.5,1.4-5.3,2-11.4,2c-6,0-9.9-0.7-11.4-2.1c-1.5-1.4-2.3-4.6-2.3-9.7L98.1,86.8L98.1,86.8z"/>
		<path class="st0" d="M130.1,131.8V75.6h11.8v20.7h3.5V75.6h11.9v56.2h-11.9v-26.3h-3.5v26.3H130.1z"/>
		<path class="st0" d="M162.5,131.8V75.6h18.9v9h-7v11.7h7v9.1h-7v17.1h7v9.1L162.5,131.8L162.5,131.8z"/>
		<path class="st0" d="M196.9,99.3v32.4h-10.7V75.5h14.4l4.1,28.5l4.1-28.5h14.4v56.2h-10.7V99.3l-4.5,32.4h-6.8L196.9,99.3z"/>
		<path class="st0" d="M228.5,131.8V75.6h11.1l6,28.8V75.6h10.3v56.2h-11.1l-6-27.5v27.5H228.5z"/>
		<path class="st0" d="M260.8,131.8V75.6h11.8v56.2H260.8z"/>
		<path class="st0" d="M282.3,131.8v-47h-6v-9.3h24v9.3h-6.1v47L282.3,131.8L282.3,131.8z"/>
		<path class="st0" d="M301.7,131.8V122l9.9-36.8H303v-9.6h21.1v9.6l-10,36.8h10v9.7H301.7z"/>
	</g>
	<g>
		<g>
			<path class="st0" d="M357.4,10.7C349.3,9.5,341.1,9,332.7,9c-2.5,0-5,0.1-7.4,0.2c-9.2,0.5-18.1,1.5-26.7,3.2
				c-3.6,0.7-7.2,1.6-10.7,2.5c-3.3,0.9-6.7,2-9.9,3.1c-6.8,2.3-13.3,5.1-19.6,8.3c-2.3,1.2-4.7,2.4-7,3.8
				c-15.2,8.7-28.8,19.8-40.9,33.2c0,0-3.8,3.6-1.3,4.1c3.9,0.7,9,0.2,9.8-0.1c1.5-0.3,13.3-13.3,27.4-23.7c0,0,7.2-5,27.8-1.4
				c11.4,2,30.5,9.5,40.6,13.9c3.8,1.6,8.6-3.1-3.2-9.9c-20.3-11.7-41.1-14.6-41.1-14.6c1.1-0.5,2.1-0.9,3.2-1.3
				c0.3-0.1,0.5-0.2,0.7-0.3c9.8-3.8,21.2-7.1,32.8-9.2c3.6-0.6,7.2-1.2,10.7-1.5c5.7-0.6,11.3-0.9,16.7-0.8
				c4.4,0.1,8.7,0.5,12.7,1.2c0.5,0.1,9,3.8,9.9,4.3c0.2,0.1,0.4,0.2,0.5,0.3c3.5,2.3,6.9,4.7,10.3,7.1c1.6,1.3,3.3,2.5,4.9,3.9
				c6,5,11.4,10.3,16.4,16c22.9,26.5,35.7,61.9,39.3,107.6c1.1,13.8-0.4,34.4-2.6,46.7c-26.1-5.3-33.4-30.5-47.9-62
				c-1.3-2.7-2.4-5.2-3.5-7.6c-8.2-17.2-13.2-24.3-22-38.8c-4.5-7.2-10.1-4.9-7.9,1.4c7.6,18.2,9.5,22.6,21.3,47.4
				c1,2,1.9,4,2.8,5.9c18.1,38.9,23.1,57.5,55.4,64.5l-0.5,1.2c-3.8,15.5-6.5,23.1-12.3,36.4c-31.4-6.3-49.7-13.8-74.6-32
				c-7.4-5.3-7.3-6.1-14-12c0,0-2.3-1.6-2.3,1c0.1,2.3-0.3,11.2,0.1,11.4c0.7,1.8,4.1,4.1,10.1,8.5c26.3,19,46.2,28.3,75.9,34
				c-5.8,9.7-7.8,11.9-14.3,20.6c0,0-11.1-10.6-49.8-3.1c-12.6,2.4-19.4,4.5-21.3,5.8c-0.9,0.6-0.3,7.1-0.3,7.1s-0.4,2.3,0.7,2.4
				c0.9,0.3,16-5.3,35.7-7.5c22.4-2.4,27.5,3.7,27.5,3.7c-16.7,16.4-35.6,29.5-62.4,31.6c0,0-1.4,0.9-1.5,1.7
				c-0.2,1.2-0.4,9.1-0.3,10.9c0,1.9-0.2,3.2,0.5,3.7c1,0.7,2.6,0.7,2.6,0.7c3.9,0.3,7.6,0,11-0.1c92.2-0.5,166-76.5,165.4-168.3
				C499.9,90.9,437.6,22.2,357.4,10.7z M408.1,59.2c-3.9-5.5-8.1-10.7-12.6-15.6c-1-1.1-2.1-2.2-3.2-3.2c-2.3-2.3-4.8-4.6-7.2-6.9
				c-4.1-3.5-8.2-6.9-12.6-9.8c7.1,2,13.4,4.1,19.2,6.3c13.3,5.1,23.6,10.7,32.5,17.2c9.3,6.8,17,14.3,25.3,23l4.6,5.7
				c1.4,3,2.7,6,3.9,8.9c0.2,0.4,0.3,0.7,0.5,1.1c0.4,1.1,0.7,2.1,1.1,3.2c1.5,4.3,2.7,8.6,3.6,12.8c2.8,12.2,3.5,23.7,3.4,33.4
				c-0.3,20.4-6.2,58.6-27.6,69.1l1.2-7.1c1.5-11.9,2.3-24.9,1.4-36.9C438.6,120.7,427.2,86.2,408.1,59.2z M392.7,312.3
				c-0.8,6.8-2.6,9.7-2.6,9.7c-14.6,6-34.3,9.5-50.1,10.9c22.7-6.3,36.7-15,52.4-29.2C392.3,303.8,393.3,306.8,392.7,312.3z
				 M402.3,316.3c0,0,1.5-4.6,1.4-9.6c-0.3-7.8-3.2-12.7-3.2-12.7l1.3-1.6c8.8-11.4,10.7-14.9,17.8-26.1c20,0.3,34.8-5.3,47.4-12
				l5.8-5.2C456.6,277.7,431.7,303.7,402.3,316.3z M483,220.8l-7.1,11.4c-22.2,24.4-51.4,22.6-51.4,22.6c6-14.6,7-18.2,11.2-32.4
				l1.3-5.2c29.8-9.2,38.8-46.8,40.6-69.1c1.8-22.2-3.4-43.9-3.4-44.7l5,14c6.3,16.8,11.6,36.3,11.2,55.4
				C489.4,201.4,488.5,203.6,483,220.8z"/>
		</g>
		<g>
			<path class="st0" d="M189,149.6c-5.7-5-19.6-7.6-41.7-7.6c-21.6,0-35.3,2.3-41.1,7.1c-5.8,4.8-8.7,16.8-8.7,36.1v7.3V203v10.9
				v14.4c0,13.3,2.7,23.3,8.1,30.1c5.4,6.8,13.5,10.1,24.3,10.1c5.1,0,9.6-0.8,13.6-2.4c4-1.6,7.4-4.1,10.2-7.2v47.5v3.6
				c0,2.1-0.5,3.7-1.6,4.9c-1.1,1.2-2.6,1.7-4.7,1.7c-2.3,0-4-0.7-4.9-2.3c-1-1.5-1.4-4.1-1.4-7.8V278H97.6v29.4
				c0,18.7,2.8,30.6,8.3,35.6c5.5,5,19.5,7.6,41.7,7.6c22,0,35.8-2.4,41.5-7.4c5.7-5,8.5-16.9,8.5-35.8V185.2
				C197.5,166.5,194.7,154.7,189,149.6z M153.9,220v3.7c0,2.1-0.5,3.6-1.6,4.7c-1.1,1.1-2.6,1.6-4.7,1.6c-2.3,0-4-0.7-4.9-2.3
				c-1-1.5-1.4-4.1-1.4-7.8v-33.4v-4.1c0-2,0.5-3.5,1.6-4.7c1.1-1.1,2.6-1.7,4.7-1.7c2.3,0,4,0.7,4.9,2.3c1,1.5,1.4,4.2,1.4,8.2V220
				z"/>
		</g>
		<g>
			<path class="st0" d="M305.4,149.6c-5.7-5-19.6-7.6-41.7-7.6c-21.6,0-35.3,2.3-41.1,7.1c-5.8,4.8-8.7,16.8-8.7,36.1v43.2
				c0,13.3,2.7,23.3,8.1,30.1c5.4,6.8,13.5,10.1,24.3,10.1c5.1,0,9.6-0.8,13.6-2.4s7.4-4.1,10.2-7.2v47.5v3.6c0,2.1-0.5,3.7-1.6,4.9
				s-2.6,1.7-4.7,1.7c-2.3,0-4-0.7-4.9-2.3c-1-1.5-1.4-4.1-1.4-7.8v-28.5h-43.6v29.3c0,18.7,2.8,30.6,8.3,35.6s19.5,7.6,41.7,7.6
				c22,0,35.8-2.4,41.5-7.4s8.5-16.9,8.5-35.8V185.2C313.9,166.5,311,154.7,305.4,149.6z M270.3,220v3.7c0,2.1-0.5,3.6-1.6,4.7
				c-1.1,1.1-2.6,1.6-4.7,1.6c-2.3,0-4-0.7-4.9-2.3c-1-1.5-1.4-4.1-1.4-7.8v-33.4v-4.1c0-2,0.5-3.5,1.6-4.7c1.1-1.1,2.6-1.7,4.7-1.7
				c2.3,0,4,0.7,4.9,2.3c1,1.5,1.4,4.2,1.4,8.2V220z"/>
		</g>
		<g>
			<path class="st0" d="M245.1,22.6c-17.6,0.5-35,2-51.7,4.6c-22.4,3.4-43.2,8.7-62.1,15.5c-18.5,6.8-34.6,14.9-47.8,24.2
				C70.3,76.2,60.4,86.4,54,97.3c-6.5,11.1-9.2,22.5-7.8,34.2c0.4,3.1,1,6,1.9,9.1C45.6,85.9,128.4,39.6,237.9,33.9
				c3.2-2.2,6.6-4.1,9.9-6c3.2-1.8,6.6-3.6,9.9-5.2c-0.6,0-1.3,0-1.8,0C252.3,22.5,248.6,22.5,245.1,22.6z"/>
			<path class="st0" d="M32.7,175.5c-10.3-8.2-18.4-16.9-24.2-26c1.1,2.6,2.4,5.2,3.9,7.8c11.7,20,35.6,38.7,70.5,54.6v-8.2
				l-0.7-0.3C62.7,195.4,46,186.1,32.7,175.5z"/>
			<path class="st0" d="M219.4,0.2C91.3,3.6-6.8,56.7,0.4,118.7c0.7,6,2.3,12,5,17.8c11.2,24.9,39.1,46.4,77.6,62.1v-13.1
				c-17.2-11.4-29.9-24.6-36.7-39c-2.7-5.8-4.4-11.7-5.1-17.9c-5.7-49.1,58-92.3,149-106.3c16.5-2.5,33.9-4.1,51.8-4.6
				c5.6-0.2,11.2-0.2,16.8-0.1c3.1-1.4,6.2-2.7,9.5-3.9c2.7-1,5.4-2,8.1-2.9c7.4-2.4,15.1-4.3,22.8-5.7
				C273.9,1.2,246.9-0.6,219.4,0.2z"/>
		</g>
	</g>
</g>
</svg>
