<?xml version="1.0" encoding="utf-8"?>
<!-- Generator: Adobe Illustrator 24.3.0, SVG Export Plug-In . SVG Version: 6.00 Build 0)  -->
<svg version="1.1" id="Layer_1" xmlns="http://www.w3.org/2000/svg" xmlns:xlink="http://www.w3.org/1999/xlink" x="0px" y="0px"
	 viewBox="0 0 170.1 53.4" style="enable-background:new 0 0 170.1 53.4;" xml:space="preserve">
<style type="text/css">
	.st0{fill:#FFFFFF;}
</style>
<g id="Ebene_1">
	<g>
		<path class="st0" d="M73.4,13.6h-4.5v7.8h-2.3V2.6h7.1c3.8,0,6.3,2.1,6.3,5.5c0,2.7-1.5,4.5-4.1,5.3l5.3,8h-2.7L73.4,13.6z
			 M69,11.5h4.8c2.7,0,4-1.1,4-3.4s-1.3-3.4-4-3.4H69V11.5z"/>
		<path class="st0" d="M95.6,15.2H84.9c0.3,2.9,2.1,4.5,4.6,4.5c2.1,0,3.5-0.7,4-2.1l1.9,1c-1,2-2.9,3.1-5.9,3.1
			c-4.3,0-6.9-2.8-6.9-7.4s2.4-7.4,6.7-7.4c4.1,0,6.4,3,6.4,6.7C95.7,14.2,95.7,14.8,95.6,15.2z M85,13.1h8.7
			c-0.3-2.6-1.8-4.2-4.2-4.2C86.8,8.9,85.3,10.4,85,13.1z"/>
		<path class="st0" d="M111.4,12.3v9.1h-2.3V13c0-3.2-1.5-4.2-3.5-4.2c-2.1,0-4.4,1.3-4.4,5v7.5h-2.3V7.1h2l0.1,2.3
			c1-1.8,2.8-2.5,4.7-2.5C108.9,6.9,111.4,8.6,111.4,12.3z"/>
		<path class="st0" d="M123.9,20.4c-0.9,0.8-2.1,1.2-3.7,1.2c-2.1,0-3.9-1-3.9-3.8V9.1h-2.8v-2h2.9V3.7l2.3-0.6v4h5.3v2h-5.3v8.4
			c0,1.4,0.9,2.1,2.2,2.1c1,0,1.8-0.4,2.4-1L123.9,20.4z"/>
		<path class="st0" d="M138.1,15.2h-10.7c0.3,2.9,2.1,4.5,4.6,4.5c2.1,0,3.5-0.7,4-2.1l1.9,1c-1,2-2.9,3.1-5.9,3.1
			c-4.3,0-6.9-2.8-6.9-7.4s2.4-7.4,6.7-7.4c4.1,0,6.4,3,6.4,6.7C138.2,14.2,138.1,14.8,138.1,15.2z M127.4,13.1h8.7
			c-0.3-2.6-1.8-4.2-4.2-4.2C129.2,8.9,127.7,10.4,127.4,13.1z"/>
		<path class="st0" d="M153.8,12.3v9.1h-2.3V13c0-3.2-1.5-4.2-3.5-4.2c-2.1,0-4.4,1.3-4.4,5v7.5h-2.3V7.1h2l0.1,2.3
			c1-1.8,2.8-2.5,4.7-2.5C151.3,6.9,153.8,8.6,153.8,12.3z"/>
		<path class="st0" d="M65.7,26.3h9.2c4.6,0,6.8,1.8,6.8,5.1c0,2.2-1.2,3.8-3.8,4.2l0,0c2.9,0.4,4.3,2.2,4.3,4.4
			c0,3.2-2.3,5.1-6.8,5.1h-9.6V26.3H65.7z M74,34c1.8,0,2.7-0.7,2.7-2.1s-0.9-2.1-2.7-2.1h-3.5V34H74z M74.5,41.7
			c1.8,0,2.7-0.7,2.7-2.1s-0.9-2.1-2.7-2.1h-4v4.1H74.5z"/>
		<path class="st0" d="M98.6,38c0,4.6-2.8,7.4-7.5,7.4c-4.7,0-7.5-2.7-7.5-7.4s2.8-7.4,7.5-7.4S98.6,33.3,98.6,38z M88.4,38
			c0,2.8,0.9,3.9,2.7,3.9c1.8,0,2.7-1.1,2.7-3.9c0-2.8-0.9-3.9-2.7-3.9C89.3,34,88.4,35.2,88.4,38z"/>
		<path class="st0" d="M115.1,38c0,4.6-2.8,7.4-7.5,7.4c-4.7,0-7.5-2.7-7.5-7.4s2.8-7.4,7.5-7.4S115.1,33.3,115.1,38z M104.9,38
			c0,2.8,0.9,3.9,2.7,3.9s2.7-1.1,2.7-3.9c0-2.8-0.9-3.9-2.7-3.9S104.9,35.2,104.9,38z"/>
		<path class="st0" d="M116.2,42.9l2.5-2.7c0.8,1.4,2.4,2.1,4.2,2.1c1.3,0,2.2-0.4,2.2-1c0-0.5-0.7-0.9-2.6-1.2
			c-4.3-0.8-5.9-2.3-5.9-4.5c0-2.4,2.3-4.7,6.8-4.7c3.4,0,5.3,1,6.5,2.7l-2.6,2.6c-0.8-1.4-2.1-2.1-3.7-2.1c-1.4,0-2.2,0.5-2.2,1
			c0,0.6,0.6,0.9,2.6,1.3c4.2,0.7,5.9,2.1,5.9,4.5c0,2.6-2.2,4.6-6.8,4.6C120.1,45.4,117.8,44.7,116.2,42.9z"/>
		<path class="st0" d="M142.2,44.3c-0.9,0.6-2.6,1-4,1c-3.2,0-5.2-1.2-5.3-4.5v-6.5h-2.5v-3.4h2.5v-3.2l4.8-1.3v4.5h4.2v3.4h-4.2V40
			c0,1.3,0.7,1.9,1.9,1.9c0.9,0,1.4-0.2,2.1-0.6L142.2,44.3z"/>
		<path class="st0" d="M157.4,39.4h-9.7c0.3,1.9,1.3,2.6,3,2.6c1.4,0,2.3-0.6,2.6-1.5l3.9,1.2c-0.8,2.5-3.2,3.7-6.5,3.7
			c-5,0-7.6-2.7-7.6-7.4c0-4.6,2.7-7.4,7.4-7.4c4.6,0,7.1,2.7,7.1,7.2C157.6,38.3,157.5,39,157.4,39.4z M147.7,36.7h5.4
			c-0.2-1.9-1.1-2.8-2.6-2.8C148.9,33.9,148,34.9,147.7,36.7z"/>
		<path class="st0" d="M170.1,30.8l-0.5,4.1c-0.4-0.2-1-0.4-1.8-0.4c-1.8,0-3.2,1.1-3.2,3.4v7.1h-4.8V30.8h4.2l0.2,3.1
			c0.7-2.1,2.1-3.4,4.3-3.4C169.3,30.5,169.8,30.7,170.1,30.8z"/>
	</g>
	<path class="st0" d="M45.7,43.8c0.1-0.1,0.2-0.3,0.4-0.5c0.4-0.6,0.9-1.3,1.4-2.2c0.9-1.5,2-3.5,2.7-5.9c0.8-2.4,1.3-5.2,1.3-8.1
		c0.1-6-2.1-13.2-7.1-18.7c-0.7-0.6-1.2-1.3-2.1-2c-0.7-0.5-1.1-1-2.1-1.7c-1.7-1.1-3.3-2.1-5.1-2.8C31.8,0.6,28-0.1,24.1,0
		c-3.8,0.2-7.5,1.1-10.7,2.9C10.1,4.5,7.3,7,5.3,9.6c-4.3,5.5-5.7,12.1-5.2,17.3c0.2,2.7,0.8,5.1,1.8,7c0.8,2,1.9,3.5,2.7,4.8
		c0.9,1.2,1.7,2.1,2.3,2.7c0.5,0.6,0.8,0.9,0.8,0.9s-0.3-0.3-0.8-0.9c-0.5-0.6-1.2-1.5-2.1-2.8c-0.7-1.3-1.5-2.9-2.2-4.8
		s-1-4.2-1-6.7c-0.1-5,1.8-10.8,5.9-15.2C11.6,7.4,17.8,4.9,24,5.2c3.1,0.2,6.1,1,8.7,2.4c1.3,0.6,2.6,1.5,3.5,2.4
		c0.5,0.3,1.1,1,1.7,1.7c0.4,0.3,0.8,1,1.3,1.5c3.4,4.4,4.4,9.7,3.9,13.9c-0.2,2.1-0.7,4-1.4,5.6c-0.6,1.5-1.4,2.8-2.2,3.8
		c0,0,0,0.1-0.1,0.1L29.3,23.4c-1.8-3-5.6-3.2-7.8-0.9s-2.1,6.1,0.5,8l29.5,22.9l0.9-0.9L45.7,43.8z"/>
</g>
</svg>
