<?xml version="1.0" encoding="utf-8"?>
<!-- Generator: Adobe Illustrator 24.1.3, SVG Export Plug-In . SVG Version: 6.00 Build 0)  -->
<svg version="1.1" id="Layer_1" xmlns="http://www.w3.org/2000/svg" xmlns:xlink="http://www.w3.org/1999/xlink" x="0px" y="0px"
	 viewBox="0 0 500 512.1" style="enable-background:new 0 0 500 512.1;" xml:space="preserve">
<style type="text/css">
	.st0{display:none;}
	.st1{display:inline;fill:#FFFFFF;stroke:#000000;}
	.st2{fill-rule:evenodd;clip-rule:evenodd;fill:#FFFFFF;}
</style>
<g id="_x0036_40_x_480" class="st0">
	<rect x="17.9" y="23.7" class="st1" width="640" height="480"/>
</g>
<g id="Original">
	<g>
		<polygon class="st2" points="224.4,12 211.5,12 211.5,67.9 164.6,67.9 164.6,12 151.1,12 151.1,67.9 104.8,67.9 104.8,12 91.3,12 
			91.3,80.8 224.4,80.8 		"/>
		<path class="st2" d="M186.4,162.4v12.2c12.2-0.6,22.5-3.9,29.6-10.9c7.7-6.4,10.9-15.4,10.9-26.4c0-11.6-3.9-21.2-11.6-27.6
			c-7.7-7.1-18-10.9-31.5-10.9c-8.4,0-15.4,1.9-20.6,5.8c-5.1,3.9-9.6,9.6-12.2,18.6c-1.3,1.9-1.9,5.8-3.9,10.3
			c-1.9,8.4-4.5,13.5-6.4,16.1s-4.5,5.1-7.1,5.8c-1.9,1.3-5.1,1.9-9,1.9c-6.4,0-12.2-1.9-16.1-6.4c-4.5-4.5-6.4-9.6-6.4-16.7
			c0-5.8,1.9-10.9,5.8-14.1c3.9-3.9,9.6-5.8,16.7-6.4v-12.2c-10.9,0.6-19.9,3.9-25.7,9.6c-6.4,5.8-9.6,14.1-9.6,23.8
			c0,10.9,3.9,19.3,10.3,25.7c6.4,6.4,15.4,9.6,25.7,9.6c8.4,0,15.4-1.9,19.9-6.4c5.1-4.5,9.6-11.6,12.9-21.2c0-0.6,0.6-1.9,0.6-3.9
			c6.4-18.6,15.4-27.6,27-27.6c8.4,0,15.4,1.9,19.9,6.4c4.5,4.5,7.1,10.9,7.1,18c0,7.1-2.6,12.9-7.7,17.4
			C201.2,159.8,194.8,162.4,186.4,162.4z"/>
		<polygon class="st2" points="91.3,434.3 151.1,434.3 151.1,496.7 91.3,496.7 91.3,510.2 224.4,510.2 224.4,496.7 163.9,496.7 
			163.9,434.3 224.4,434.3 224.4,420.8 91.3,420.8 		"/>
		<path class="st2" d="M90,148.3l-22.5-8.4v-32.1L90,99.4v-7.7l-72,27.6v8.4L90,156V148.3z M61.1,137.3l-36-13.5l36-13.5V137.3z"/>
		<path class="st2" d="M90,54.4H25.1V44.1c0-5.1,0.6-9,0.6-10.9c0.6-1.9,1.9-3.9,2.6-5.1c1.9-1.9,3.9-2.6,5.8-3.9
			c1.9-0.6,3.9-1.3,6.4-1.3c3.9,0,7.7,1.3,10.3,3.9c2.6,3.2,3.9,6.4,3.9,10.9v6.4l34.7-21.2v-7.7L61.1,32.5
			c-0.6-5.1-2.6-9.6-6.4-12.2c-3.2-3.9-8.4-5.1-13.5-5.1c-3.9,0-7.7,0.6-10.9,1.9c-3.9,1.9-6.4,3.9-7.7,7.1
			c-1.3,2.6-2.6,4.5-3.2,7.1C18,33.8,18,37.7,18,41.5v19.3h72V54.4z"/>
		<polygon class="st2" points="25.1,201.6 90,201.6 90,194.5 25.1,194.5 25.1,179.8 18,179.8 18,215.8 25.1,215.8 		"/>
		<rect x="18" y="249.2" class="st2" width="72" height="7.1"/>
		<path class="st2" d="M85.5,478.1c-4.5-3.9-10.3-5.8-16.7-5.8c-5.1,0-8.4,0.6-10.9,3.2c-3.2,1.9-5.8,5.1-7.7,9.6
			c-0.6,1.3-0.6,3.2-1.9,5.8c-1.3,3.9-2.6,7.1-3.9,8.4c-1.3,1.9-2.6,2.6-3.9,3.9c-1.3,0.6-2.6,1.3-4.5,1.3c-3.9,0-6.4-1.3-8.4-3.9
			c-2.6-1.9-3.9-5.1-3.9-8.4c0-3.9,0.6-6.4,3.2-8.4c1.9-1.9,5.1-3.2,9-3.9v-6.4c-5.8,0.6-10.9,1.9-14.1,5.1
			c-3.9,3.2-5.1,7.7-5.1,12.9c0,5.1,1.9,10.3,5.1,14.1c3.9,3.9,8.4,5.1,14.1,5.1c4.5,0,8.4-1.3,10.9-3.9c2.6-1.9,5.1-6.4,6.4-11.6
			c0.6,0,0.6-0.6,0.6-1.3c3.2-10.3,8.4-15.4,14.8-15.4c4.5,0,8.4,0.6,10.3,3.9c2.6,1.9,3.9,5.8,3.9,9.6s-1.3,7.1-3.9,9.6
			c-2.6,2.6-5.8,3.9-10.3,3.9v6.4c6.4,0,11.6-1.9,15.4-5.8c3.9-3.9,6.4-8.4,6.4-14.1C91.3,487.1,89.4,481.9,85.5,478.1z"/>
		<path class="st2" d="M90,437.6l-22.5-8.4v-32.1l22.5-8.4V381l-72,28.3v8.4l72,27.6V437.6z M61.1,426.6l-36-13.5l36-14.1V426.6z"/>
		<rect x="0" y="129.6" class="st2" width="8.4" height="6.4"/>
		<rect x="0" y="111" class="st2" width="8.4" height="6.4"/>
		<polygon class="st2" points="90,343.1 27,343.7 90,304.5 90,296.1 18,296.1 18,303.2 81,302.6 18,341.8 18,349.5 90,349.5 		"/>
		<path class="st2" d="M496.3,112.3c5.1-15.4,11.6-50.1-31.5-40.5c-41.1,3.9-92.6,54-123.4,98.4c12.2-33.4,28.3-124.7-10.9-155.6
			c-3.9-9-24.4-27.6-43.1,0c-14.8,16.7-43.1,70.1-24.4,154.3c-14.8,0.6-52.7,46.3-12.2,91.9c-4.5,10.9-7.1,19.9-10.9,37.3
			c-5.8,0-11.6-1.9-17.4-5.8v-4.5l-17.4-6.4c-5.1-3.9-10.3-7.1-15.4-9.6c2.6,1.9,4.5,3.9,5.8,6.4l-14.8-5.8v-59.1l41.8-16.1V183
			L90,234.4v15.4l123.4,48.2l0,0l-23.1,9c-9-5.1-18-9.6-26.4-14.1c7.7,6.4,11.6,12.2,17.4,18l-90.6,35.4v15.4l132.4,52.1v-14.1
			l-41.8-16.1v-42.4c6.4,4.5,14.8,8.4,28.3,12.2c9.6,1.9,15.4-1.9,19.9-3.2c-14.8-7.1-32.1-12.9-48.2-19.3v-6.4l10.3-3.9
			c4.5,3.9,10.9,7.1,19.3,10.9c9.6,3.2,15.4,0.6,20.6-0.6c-8.4-5.8-17.4-10.9-26.4-16.1l18-7.1v-2.6c3.2,2.6,7.1,5.1,12.2,7.7
			c40.5,9.6,73.9,12.2,118.3,8.4c47.6,0.6,60.4,23.8,54.6,52.1c-11.6,30.2-35.4,32.1-51.4,37.3c-70.7,2.6-91.3-39.2-100.9-64.9
			c-0.6,5.1,0.6,14.8,1.3,18c5.1,22.5,18,34.7,40.5,47.6c-36-5.1-75.9-26.4-111.9-46.3c10.9,17.4,50.1,37.3,72,46.9
			c-16.7,46.3,18.6,64.9,36,69.4c2.6,27,20.6,29.6,27,30.2c21.2-8.4,25.7-9,48.2-27.6c12.2,1.9,18-1.9,24.4-5.1
			c4.5,8.4,9.6,10.9,14.1,11.6c8.4,1.9,12.2,0.6,18-3.9c14.1-16.1,27.6-45.6,16.7-73.9c9.6-8.4,19.3-16.7,27-37.9
			c12.9-55.3-21.2-65.6-57.9-57.9c-3.9,0-8.4,1.9-11.6,1.9c-0.6-12.2-28.3-54-47.6-47.6c-10.3,2.6-6.4,28.9-5.1,37.3
			c-9.6-9.6-30.2-60.4,9-57.2c21.2,1.9,47.6,28.9,55.9,64.9c-3.9-17.4-8.4-33.4-13.5-50.1c48.9-9.6,64.3-18.6,82.9-43.7
			c6.4-20.6-8.4-18-13.5-15.4c-27.6,25.7-57.2,27.6-78.4,29.6c-1.3-3.9-1.9-7.7-3.9-12.2C423,199,460.9,179.1,496.3,112.3z
			 M170.4,267.8l-66.2-25.1l66.2-25.1C170.4,217.7,170.4,267.8,170.4,267.8z M170.4,378.4l-66.2-25.1l64.9-23.8
			c0.6,0.6,1.3,1.3,1.9,1.3v47.6H170.4z M257.2,254.3c-25.7-37.3-7.1-68.8,8.4-79.7c5.8,19.9,14.8,25.7,23.1,37.3
			C273.9,220.9,264.2,240.2,257.2,254.3z M295.1,464.6c-39.9-9.6-29.6-39.9-27-50.1c9.6,2.6,19.3,6.4,28.9,6.4
			C297.7,431.8,295.7,444.6,295.1,464.6z M320.2,498c-10.3-1.9-12.2-14.1-13.5-21.2c22.5-3.2,41.8-9.6,61.1-19.9
			C361.9,483.8,325.9,496.1,320.2,498z M305.4,463.3c0.6-13.5,3.2-28.3,1.3-41.1c3.9-0.6,14.1,1.9,18,0.6c11.6,3.2,23.8,0,35.4,0
			c9,3.9,8.4,14.1,9.6,21.2C350.4,454.3,325.9,465.2,305.4,463.3z M379.3,472.3c1.9-15.4,6.4-37.9-3.9-52.1
			c4.5-1.9,8.4-3.9,12.2-7.1C397.9,412.5,415.3,456.2,379.3,472.3z M417.9,480.6c-5.1-0.6-14.1-1.9-18-9.6
			c5.1-6.4,9.6-12.9,10.9-18.6c8.4-0.6,15.4-1.9,24.4-5.1C434.6,456.2,424.9,476.1,417.9,480.6z M435.9,437.6
			c-7.7,1.9-16.7,3.9-23.8,3.9c-0.6-7.1,0.6-16.7-6.4-25.7c9.6,1.3,19.9,0,29.6-1.3C437.8,422.1,437.8,429.8,435.9,437.6z
			 M464.2,361.1c-15.4,9.6-30.9,13.5-45.6,14.8c4.5-40.5-15.4-45.6-24.4-52.1C415.9,321.8,471.2,303.8,464.2,361.1z M361.9,283.9
			c3.9,0,7.7,3.9,7.7,8.4c0,5.1-3.9,9-7.7,9s-7.1-3.9-7.1-9C354.9,287.8,358.1,283.9,361.9,283.9z M320.2,206.8
			c-30.9-89.4-22.5-132.4-18-176.8c9.6-25.7,23.8-11.6,26.4-1.9C361.3,76.3,339.4,171.4,320.2,206.8z M387.7,242.8
			c37.3,5.1,34.7,0,86.8-31.5c7.1-3.9,4.5,9.6-1.9,14.8c-31.5,27.6-47.6,27-75.9,34.1c-18-17.4-46.9-41.8-70.1-44.4
			c7.1-13.5,10.9-28.3,15.4-41.8C358.7,183.6,376.1,208,387.7,242.8z M383.2,216.4c-3.2-6.4-6.4-12.9-9.6-19.3
			c50.1-78.4,64.9-82.9,93.2-106.1c28.9-21.2,21.9,3.9,19.9,10.9C448.1,181.7,415.3,193.3,383.2,216.4z"/>
		<path class="st2" d="M430.1,349.5c5.1,0,9.6-5.1,9.6-11.6s-4.5-11.6-9.6-11.6c-5.8,0-10.3,5.1-10.3,11.6
			C419.8,344.3,424.3,349.5,430.1,349.5z"/>
	</g>
</g>
</svg>
