<?xml version="1.0" encoding="utf-8"?>
<!-- Generator: Adobe Illustrator 25.0.0, SVG Export Plug-In . SVG Version: 6.00 Build 0)  -->
<svg version="1.1" id="Ebene_1" xmlns="http://www.w3.org/2000/svg" xmlns:xlink="http://www.w3.org/1999/xlink" x="0px" y="0px"
	 viewBox="0 0 935.4 382.7" style="enable-background:new 0 0 935.4 382.7;" xml:space="preserve">
<style type="text/css">
	.st0{fill:#FFFFFF;}
</style>
<g>
	<path class="st0" d="M866.5,382.7H69c-26.6,0-45.5-6.5-56.1-19.3c-13.5-16.3-13.4-32.7-12.7-39l0.1-0.5L33,103.6
		c5.6-60.4,66.1-61.1,68.7-61.1h132.1L297.6,0l63.8,42.5h472.3c2.6,0,63.3,1,68.7,61l0.1,0.5l32.7,220.2c0.5,4.6,0.9,21.1-12.7,39.2
		C912.9,376.2,894.1,382.7,866.5,382.7L866.5,382.7z M7.3,324.8v0.3c-0.6,5.4-0.7,19.5,11.1,33.8c9.2,11.1,26.2,16.7,50.6,16.7
		h797.5c25.2,0,42.2-5.5,50.4-16.5c12-15.9,11.7-30,11.3-34.1l-32.7-220.2l-0.1-0.7c-4.9-53.7-59.4-54.6-61.7-54.6H359.2L297.6,8.4
		L236,49.5H101.7c-2.3,0-56.7,0.6-61.7,54.7v0.2L7.3,324.8L7.3,324.8z"/>
	<path class="st0" d="M355.1,166.6c0-9.7-3.6-17.6-17.1-25.1l-14.8-8.2c-8-4.4-10.1-6.9-10.1-10.9c0-5.5,3.8-8.7,12.9-8.7
		c8,0,16.1,0.5,24.2,1.2c0.1,0,0.1,0,0.2,0c1.2,0,2.1-1,2.1-2.2v-9.1c0-1.2-1-2.1-2.2-2.3c-4.2-1-15.5-2.2-23.6-2.2
		c-22.9,0-30.8,9.8-30.8,23.4c0,8.6,3.1,15.7,14.5,22.5l16.2,9.7c8.1,4.8,10.5,7.3,10.5,12.1c0,7.1-3.3,11.1-14.3,11.1
		c-4.6,0-16.9-0.6-21.8-1.2c-0.1,0-0.1,0-0.2,0c-1.2,0-2.3,1-2.3,2.3v8.9c0,1.4,1.1,2.2,2.3,2.5c5.9,1.4,12.5,2.2,21.8,2.2
		C347.3,192.3,355.1,179,355.1,166.6L355.1,166.6z M433.6,153.9v-16.6c0-27.1-14.8-38.4-35.1-38.4c-20.3,0-35.1,11.3-35.1,38.4v16.6
		c0,27.1,14.8,38.4,35.1,38.4S433.6,181,433.6,153.9L433.6,153.9z M416.4,153.9c0,16.2-5.8,23.5-17.8,23.5
		c-12.1,0-17.8-7.3-17.8-23.5v-16.6c0-16.2,5.8-23.5,17.8-23.5c12.1,0,17.8,7.3,17.8,23.5V153.9L416.4,153.9z M532.1,187.3V146
		c0-1.4-1.1-2.5-2.5-2.5h-12.2c-1.4,0-2.3,1.1-2.3,2.5v31.4c-3.8,0.2-7.6,0.4-12.2,0.4c-7.3,0-15.7-5.7-15.7-23.1v-17.9
		c0-17.5,7.9-23.2,16.1-23.2c11.8,0,20.3,0.5,26,1c0.1,0,0.2,0,0.4,0c2,0,2.5-0.9,2.5-2.6v-8.2c0-1.6-0.7-2.2-2.3-2.6
		c-4.1-0.7-14.6-2.2-26.4-2.2c-14.6,0-33.3,8.7-33.3,37.9v17.7c0,29,19.7,37.8,33,37.8c12.7,0,20.7-0.9,26.8-2.1
		C531.4,189.8,532.1,188.9,532.1,187.3L532.1,187.3z M600.9,188v-7.9c0-1.4-1.1-2.5-2.5-2.5h-25.1c-7.1,0-9.7-2.5-9.7-10.6v-15.9
		h33.3c1.4,0,2.5-1.1,2.5-2.5v-8.9c0-1.4-1.1-2.5-2.5-2.5h-33.3v-13.3c0-8.1,2.6-10.6,9.7-10.6h25.1c1.4,0,2.5-1.1,2.5-2.5v-7.9
		c0-1.7-0.6-2.3-2.5-2.6c-3.9-0.6-8.7-1.7-23.4-1.7c-16,0-28.4,4.3-28.4,25.2v42.9c0,20.9,12.4,25.2,28.4,25.2
		c14.6,0,19.4-1.1,23.4-1.7C600.2,190.3,600.9,189.7,600.9,188L600.9,188z M682.6,188.9v-86.6c0-1.4-1.1-2.3-2.5-2.3h-12.2
		c-1.4,0-2.5,1-2.5,2.3v33.9h-34.9v-33.9c0-1.4-1.1-2.3-2.5-2.3h-12.2c-1.4,0-2.5,1-2.5,2.3v86.6c0,1.4,1.1,2.5,2.5,2.5H628
		c1.4,0,2.5-1.1,2.5-2.5v-37.6h34.9v37.6c0,1.4,1.1,2.5,2.5,2.5h12.2C681.5,191.3,682.6,190.2,682.6,188.9L682.6,188.9z M756.1,112
		v-9.7c0-1.4-1.1-2.3-2.5-2.3h-60.1c-1.4,0-2.5,1-2.5,2.3v9.7c0,1.4,1.1,2.2,2.5,2.2H715v74.7c0,1.4,1.1,2.5,2.5,2.5h12.2
		c1.4,0,2.5-1.1,2.5-2.5v-74.7h21.5C755,114.2,756.1,113.3,756.1,112L756.1,112z"/>
	<path class="st0" d="M143.5,297.2c0-11.8-4.4-21.4-20.9-30.6l-18-10c-9.8-5.4-12.3-8.4-12.3-13.4c0-6.7,4.7-10.6,15.8-10.6
		c9.8,0,19.7,0.6,29.6,1.5c0.1,0,0.1,0,0.3,0c1.5,0,2.6-1.2,2.6-2.7v-11.1c0-1.5-1.2-2.6-2.7-2.8c-5.1-1.2-18.9-2.7-28.8-2.7
		c-27.9,0-37.5,12-37.5,28.5c0,10.5,3.8,19.2,17.7,27.5l19.8,11.8c9.9,5.8,12.8,8.8,12.8,14.7c0,8.7-4.1,13.5-17.4,13.5
		c-5.5,0-20.5-0.8-26.5-1.5c-0.1,0-0.1,0-0.3,0c-1.5,0-2.8,1.2-2.8,2.9v10.6c0,1.7,1.3,2.7,2.8,3c7.2,1.7,15.3,2.7,26.5,2.7
		C134.1,328.5,143.5,312.3,143.5,297.2L143.5,297.2z M242.5,324.8c0-0.2-0.2-0.5-0.2-0.8l-24.5-94c-3.6-13.9-14.4-15.3-20.9-15.3
		s-17.2,1.4-20.9,15.3l-24.6,94.1c0,0.3-0.1,0.6-0.1,0.8c0,1.5,1.2,2.5,2.7,2.5h15.9c1.4,0,2.5-1.2,2.9-2.5l6.9-28.5h34.5l6.9,28.5
		c0.3,1.3,1.5,2.5,2.9,2.5h15.8C241.3,327.3,242.5,326.3,242.5,324.8L242.5,324.8z M210.1,279.2h-26.4l10.8-44.5
		c0.4-1.8,0.9-2.4,2.4-2.4s1.9,0.6,2.4,2.4L210.1,279.2L210.1,279.2z M220.3,203.7v-13.2c0-1.6-1.5-3-3.1-3h-10.8
		c-1.6,0-3.1,1.4-3.1,3v13.2c0,1.7,1.5,3,3.1,3h10.8C218.8,206.7,220.3,205.4,220.3,203.7L220.3,203.7z M190.3,203.7v-13.2
		c0-1.6-1.5-3-3.1-3h-10.8c-1.6,0-3.1,1.4-3.1,3v13.2c0,1.7,1.5,3,3.1,3h10.8C188.8,206.7,190.3,205.4,190.3,203.7L190.3,203.7z
		 M320.1,322.7v-10c0-1.8-0.8-3.2-3-3.2c0,0-0.1,0-0.3,0c-5.2,0.4-15.5,1.2-23.4,1.2c-12.6,0-21.8-7.2-21.8-28v-22.1
		c0-21.3,9.2-28,21.8-28c8,0,18.2,0.8,23.4,1.2c0.1,0,0.3,0,0.3,0c2.2,0,3-1.3,3-3.2v-10c0-2.1-1.4-2.9-3.3-3.5
		c-2.2-0.6-12.2-2.4-23.7-2.4c-18,0-42.5,8.2-42.5,45.9v22.1c0,37,24.5,45.9,42.5,45.9c11.5,0,21.5-1.8,23.7-2.4
		C318.7,325.5,320.1,324.8,320.1,322.7L320.1,322.7z M422.4,324.3V218.7c0-1.7-1.3-2.8-3-2.8h-14.8c-1.7,0-3,1.2-3,2.8v41.4H359
		v-41.4c0-1.7-1.4-2.8-3-2.8h-14.9c-1.6,0-3,1.2-3,2.8v105.6c0,1.7,1.4,3,3,3H356c1.6,0,3-1.3,3-3v-45.9h42.6v45.9c0,1.7,1.3,3,3,3
		h14.8C421,327.3,422.4,326,422.4,324.3L422.4,324.3z M512.4,297.2c0-11.8-4.4-21.4-20.9-30.6l-18-10c-9.8-5.4-12.3-8.4-12.3-13.4
		c0-6.7,4.6-10.6,15.8-10.6c9.8,0,19.7,0.6,29.5,1.5c0.2,0,0.2,0,0.3,0c1.5,0,2.5-1.2,2.5-2.7v-11.1c0-1.5-1.2-2.6-2.7-2.8
		c-5.1-1.2-18.9-2.7-28.8-2.7c-27.9,0-37.5,12-37.5,28.5c0,10.5,3.8,19.2,17.7,27.5l19.8,11.8c9.9,5.8,12.8,8.8,12.8,14.7
		c0,8.7-4.1,13.5-17.4,13.5c-5.6,0-20.6-0.8-26.6-1.5c-0.2,0-0.2,0-0.3,0c-1.5,0-2.9,1.2-2.9,2.9v10.6c0,1.7,1.4,2.7,2.9,3
		c7.2,1.7,15.3,2.7,26.6,2.7C502.9,328.5,512.4,312.3,512.4,297.2L512.4,297.2z M551.2,324.3V218.7c0-1.7-1.3-2.8-3-2.8h-14.8
		c-1.7,0-3,1.2-3,2.8v105.6c0,1.7,1.3,3,3,3h14.8C549.9,327.3,551.2,326,551.2,324.3L551.2,324.3z M641.2,297.2
		c0-11.8-4.3-21.4-20.8-30.6l-18-10c-9.8-5.4-12.3-8.4-12.3-13.4c0-6.7,4.7-10.6,15.8-10.6c9.8,0,19.7,0.6,29.6,1.5
		c0.1,0,0.1,0,0.3,0c1.5,0,2.5-1.2,2.5-2.7v-11.1c0-1.5-1.2-2.6-2.7-2.8c-5.1-1.2-18.9-2.7-28.8-2.7c-27.9,0-37.5,12-37.5,28.5
		c0,10.5,3.8,19.2,17.7,27.5l19.8,11.8c9.9,5.8,12.8,8.8,12.8,14.7c0,8.7-4,13.5-17.4,13.5c-5.5,0-20.5-0.8-26.5-1.5
		c-0.1,0-0.1,0-0.3,0c-1.5,0-2.8,1.2-2.8,2.9v10.6c0,1.7,1.3,2.7,2.8,3c7.2,1.7,15.3,2.7,26.5,2.7
		C631.8,328.5,641.2,312.3,641.2,297.2L641.2,297.2z M725.7,322.7v-10c0-1.8-0.8-3.2-3-3.2c0,0-0.2,0-0.3,0
		c-5.2,0.4-15.5,1.2-23.4,1.2c-12.6,0-21.8-7.2-21.8-28v-22.1c0-21.3,9.2-28,21.8-28c8,0,18.2,0.8,23.4,1.2c0.1,0,0.3,0,0.3,0
		c2.2,0,3-1.3,3-3.2v-10c0-2.1-1.4-2.9-3.3-3.5c-2.2-0.6-12.2-2.4-23.7-2.4c-18,0-42.5,8.2-42.5,45.9v22.1c0,37,24.5,45.9,42.5,45.9
		c11.5,0,21.5-1.8,23.7-2.4C724.3,325.5,725.7,324.8,725.7,322.7L725.7,322.7z M828,324.3V218.7c0-1.7-1.4-2.8-3-2.8h-14.9
		c-1.6,0-3,1.2-3,2.8v41.4h-42.6v-41.4c0-1.7-1.3-2.8-3-2.8h-14.8c-1.7,0-3,1.2-3,2.8v105.6c0,1.7,1.3,3,3,3h14.8c1.7,0,3-1.3,3-3
		v-45.9h42.6v45.9c0,1.7,1.4,3,3,3H825C826.6,327.3,828,326,828,324.3L828,324.3z M860.8,324.3v-16.9c0-1.7-1.3-2.8-3-2.8h-13.3
		c-1.7,0-3,1.2-3,2.8v16.9c0,1.7,1.3,3,3,3h13.3C859.5,327.3,860.8,326,860.8,324.3L860.8,324.3z"/>
</g>
</svg>
