<?xml version="1.0" encoding="utf-8"?>
<!-- Generator: Adobe Illustrator 24.3.0, SVG Export Plug-In . SVG Version: 6.00 Build 0)  -->
<svg version="1.1" id="Ebene_1" xmlns="http://www.w3.org/2000/svg" xmlns:xlink="http://www.w3.org/1999/xlink" x="0px" y="0px"
	 viewBox="0 0 255.1 110.3" style="enable-background:new 0 0 255.1 110.3;" xml:space="preserve">
<style type="text/css">
	.st0{fill:#FFFFFF;}
	.st1{fill-rule:evenodd;clip-rule:evenodd;fill:#FFFFFF;}
</style>
<g>
	<path class="st0" d="M92,108.8l-1.3-3.2c-0.6,0.3-1.4,0.5-2.4,0.7c-1,0.2-2.2,0.3-3.5,0.3c-2.8,0-5-0.9-6.5-2.7
		c-1.5-1.8-2.2-4.6-2.2-8.3c0-2,0.2-3.7,0.6-5.3c0.4-1.5,1.1-2.7,2-3.7c0.7-0.7,1.5-1.3,2.5-1.7c1-0.4,2.2-0.6,3.5-0.6
		c1.4,0,2.6,0.2,3.6,0.5c1.1,0.3,1.9,0.6,2.6,0.9v-3.5c-0.4-0.2-1.2-0.5-2.4-0.7c-1.2-0.3-2.6-0.4-4.3-0.5c-4.1,0-7.3,1.3-9.5,3.9
		c-2.2,2.6-3.2,6.2-3.3,10.8c0,4.7,1.1,8.3,3.2,10.8c2.1,2.5,5.3,3.8,9.5,3.8c1.6,0,3-0.2,4.3-0.4C89.9,109.6,91,109.2,92,108.8
		L92,108.8z"/>
	<path class="st0" d="M113.5,109.8V95.4c0-2.1-0.6-3.8-1.7-5c-1.1-1.2-2.8-1.8-5-1.8c-1.5,0-2.9,0.3-3.9,0.9
		c-1.1,0.6-1.9,1.3-2.5,2.3V79.7h-3.9v30.2h3.9V97.8c0-1.6,0.5-2.9,1.5-4c1-1.1,2.2-1.6,3.7-1.7c1.3,0,2.3,0.4,3,1.1s1,1.9,1,3.4
		v13.3h3.8V109.8z"/>
	<path class="st1" d="M136.7,98.3c0-3.1-0.7-5.6-2.1-7.2c-1.4-1.6-3.5-2.5-6.3-2.5c-3,0-5.3,1-6.9,3c-1.6,2-2.3,4.7-2.3,7.9
		c0,3.3,0.9,6,2.6,7.9c1.7,1.9,4.1,2.9,7.4,2.9c1.3,0,2.5-0.1,3.5-0.2c1-0.1,1.9-0.3,2.8-0.6l-0.8-3c-0.6,0.2-1.4,0.3-2.2,0.4
		c-0.9,0.1-1.8,0.2-2.7,0.2c-2,0-3.5-0.6-4.6-1.7c-1-1.1-1.6-2.7-1.8-4.9h13.3c0-0.3,0-0.7,0.1-1.1
		C136.7,99.1,136.7,98.7,136.7,98.3L136.7,98.3z M132.5,97.8h-9.3c0.1-2,0.6-3.5,1.4-4.7c0.8-1.1,2-1.6,3.5-1.7
		c1.4,0,2.5,0.5,3.2,1.4c0.7,0.9,1,2.2,1,3.9v1H132.5z"/>
	<path class="st0" d="M170.8,109.8V95.2c0-2.1-0.5-3.7-1.6-4.9s-2.6-1.7-4.7-1.7c-1.4,0-2.7,0.3-3.8,0.9c-1.1,0.6-2,1.4-2.7,2.5
		c-0.4-1.1-1.1-1.9-2.1-2.5c-1-0.6-2.2-0.9-3.6-0.9c-1.4,0-2.6,0.3-3.6,0.8c-1,0.6-1.8,1.3-2.4,2.3L146,89h-3.8v20.8h3.9V97.6
		c0-1.6,0.5-2.9,1.3-3.9c0.9-1,2-1.6,3.4-1.6c1.2,0,2.1,0.3,2.7,1c0.5,0.7,0.8,1.8,0.8,3.3v13.5h3.9V97.7c0-1.6,0.5-2.9,1.4-3.9
		s2-1.6,3.4-1.6c1.2,0,2.1,0.3,2.6,1c0.6,0.7,0.8,1.8,0.8,3.3V110h4.1V109.8z"/>
	<path class="st0" d="M194.7,109.8V95.4c0-2.1-0.6-3.8-1.7-5c-1.1-1.1-2.8-1.8-5-1.8c-1.5,0-2.8,0.3-3.9,0.9
		c-1.1,0.6-1.9,1.4-2.6,2.4l-0.1-2.9h-3.8v20.8h3.9V97.7c0-1.6,0.5-2.9,1.5-4c1-1.1,2.2-1.6,3.7-1.7c1.3,0,2.3,0.4,3,1.1
		c0.7,0.7,1,1.9,1,3.4v13.3L194.7,109.8L194.7,109.8z"/>
	<path class="st1" d="M205.7,109.8V89H199v2.6c0.4,0,0.9,0.1,1.4,0.1c0.5,0.1,0.9,0.1,1.3,0.2v17.9L205.7,109.8L205.7,109.8z
		 M205.8,82.4c0-0.7-0.3-1.3-0.8-1.8s-1.1-0.7-1.8-0.7c-0.7,0-1.3,0.3-1.8,0.7c-0.5,0.5-0.7,1-0.8,1.8c0,0.7,0.3,1.3,0.8,1.7
		c0.5,0.5,1.1,0.7,1.8,0.7c0.7,0,1.3-0.3,1.8-0.7S205.8,83.1,205.8,82.4L205.8,82.4z"/>
	<path class="st0" d="M223.8,109.6l-0.7-2.9c-0.3,0.1-0.6,0.2-1.1,0.2c-0.5,0.1-1,0.1-1.5,0.1c-1,0-1.8-0.3-2.3-0.8
		s-0.7-1.4-0.7-2.6V92.1h5.4V89h-5.4v-6.5c-0.7,0.4-1.4,0.7-2.1,1c-0.7,0.3-1.3,0.6-1.9,0.8V89h-3.2v3.1h3.2V104
		c0,1.9,0.4,3.4,1.3,4.6c0.9,1.1,2.4,1.6,4.4,1.6c0.8,0,1.6-0.1,2.4-0.2C222.4,110,223.1,109.8,223.8,109.6L223.8,109.6z"/>
	<path class="st0" d="M242.1,109.8v-3.1h-12c0.6-0.9,1.4-2,2.4-3.3c1-1.3,2-2.6,3.1-4c1.3-1.5,2.4-3,3.5-4.3
		c1.1-1.3,1.9-2.3,2.4-2.8v-3h-15.7v3.1h10.8c-0.5,0.5-1.1,1.3-2.1,2.4c-0.9,1.1-1.9,2.3-3,3.8c-1.3,1.7-2.6,3.4-3.6,5
		c-1.1,1.5-1.9,2.6-2.4,3.4v3h16.6V109.8z"/>
	<path class="st0" d="M91,54.3c0-1.8-0.4-3.2-1.1-4.3S88.2,48,87,47.3c-1.2-0.6-2.5-1.2-3.9-1.7c-1.9-0.6-3.4-1.3-4.7-2
		s-1.8-1.7-1.8-3c0-1.4,0.5-2.4,1.5-3.1c1-0.7,2.4-1.1,4.1-1.1c1.6,0,3.1,0.2,4.3,0.5c1.3,0.3,2.2,0.6,2.7,0.8V34
		c-0.6-0.2-1.4-0.4-2.6-0.6S84,33,82.2,33c-3,0-5.5,0.7-7.2,2.1c-1.7,1.4-2.6,3.3-2.6,5.8c0,1.7,0.5,3.1,1.3,4.1
		c0.8,1,1.8,1.8,2.9,2.4c1.1,0.6,2.2,1,3.3,1.4c1.8,0.6,3.3,1.2,4.6,2c1.3,0.7,1.9,1.9,2,3.4c0,1.4-0.4,2.5-1.3,3.3
		c-0.9,0.9-2.6,1.3-5,1.3c-1.7,0-3.3-0.3-4.8-0.7c-1.4-0.4-2.3-0.7-2.7-1l-1.1,3.3c0.6,0.3,1.6,0.7,3.2,1.1c1.5,0.4,3.5,0.7,5.9,0.7
		c3.2,0,5.8-0.7,7.5-2.1C90.1,59.1,91,57,91,54.3L91,54.3z"/>
	<path class="st1" d="M114.5,51.4c0-3.4-0.7-6.1-2.1-7.8c-1.4-1.8-3.4-2.7-6-2.7c-1.7,0-3,0.4-4,1.1c-1,0.7-1.7,1.5-2.1,2.3l-0.1-3
		h-3.8v29.1h3.9v-9.5c0.6,0.5,1.3,0.9,2.2,1.2c0.9,0.3,1.9,0.4,3,0.5c2.9,0,5.2-1,6.7-2.9C113.7,57.7,114.5,55,114.5,51.4
		L114.5,51.4L114.5,51.4z M110.2,51.5c0,0.8,0,1.5-0.1,2.2c-0.1,0.7-0.2,1.3-0.4,1.9c-0.3,1.1-0.9,2-1.7,2.6s-1.9,1-3.2,1
		c-0.9,0-1.7-0.2-2.4-0.5c-0.7-0.3-1.4-0.8-2-1.4V52c0-2.3,0.4-4.1,1.3-5.6c0.9-1.4,2.1-2.1,3.7-2.1c1.8,0,3,0.7,3.8,2
		C109.8,47.6,110.2,49.3,110.2,51.5L110.2,51.5L110.2,51.5z"/>
	<path class="st1" d="M135.2,62.1V47.8c0-2.4-0.6-4.1-1.9-5.3c-1.3-1.1-3.3-1.6-6.1-1.6c-1.3,0-2.5,0.1-3.5,0.3c-1,0.2-2,0.4-3,0.7
		v3.2c0.9-0.3,1.8-0.6,2.7-0.8c1-0.2,2-0.3,3.1-0.3c1.8,0,3,0.3,3.8,0.9c0.7,0.6,1.1,1.6,1,2.9V49c-0.2,0-0.5,0-1,0s-0.9,0-1,0
		c-1.2,0-2.3,0.1-3.3,0.3s-1.9,0.4-2.6,0.7c-1.4,0.5-2.4,1.3-3.2,2.4c-0.7,1-1.1,2.3-1.1,3.9c0,2.2,0.7,3.8,1.9,4.9s2.7,1.4,4.6,1.4
		c1.4,0,2.6-0.3,3.7-0.7c1-0.5,1.8-0.9,2.3-1.4l0.1,1.7h3.5V62.1z M131.2,57.5c-0.5,0.5-1.2,1-2,1.3c-0.8,0.4-1.8,0.6-2.8,0.6
		c-1.3,0-2.2-0.4-2.7-1c-0.5-0.7-0.8-1.4-0.8-2.3c0-1.5,0.6-2.6,1.7-3.2c1.1-0.6,2.8-0.9,5.2-0.9h1.5V57.5L131.2,57.5z"/>
	<path class="st1" d="M153.1,45.1v-3.7c-0.1,0-0.3,0-0.6-0.1c-0.3,0-0.6,0-1,0c-1.3,0-2.5,0.4-3.5,1.1c-1,0.7-1.8,1.7-2.3,2.9
		l-0.1-3.9h-3.8v20.8h3.9V50.9c0-0.9,0.2-1.8,0.6-2.7c0.4-0.9,1.1-1.6,1.9-2.2c0.9-0.6,2-0.9,3.3-0.9c0.3,0,0.6,0,0.9,0
		C152.9,45,153,45.1,153.1,45.1L153.1,45.1L153.1,45.1z"/>
	<path class="st0" d="M174.6,62.1c-1.4-2.1-2.9-4.2-4.6-6.4c-1.7-2.1-3.4-3.9-5.2-5.5l8.8-9h-4.9l-7.8,8.1V31.9h-3.9v30.2h3.9V51.9
		c1.6,1.6,3.2,3.3,4.7,5.2c1.4,1.8,2.7,3.5,3.8,5.1H174.6L174.6,62.1z"/>
	<path class="st1" d="M192.8,62.1V47.8c0-2.4-0.6-4.1-1.9-5.3c-1.3-1.1-3.3-1.6-6.1-1.6c-1.3,0-2.5,0.1-3.5,0.3c-1,0.2-2,0.4-3,0.7
		v3.2c0.8-0.3,1.8-0.6,2.7-0.8c1-0.2,2-0.3,3.1-0.3c1.8,0,3,0.3,3.8,0.9c0.7,0.6,1.1,1.6,1,2.9V49c-0.2,0-0.5,0-1,0s-0.9,0-1,0
		c-1.2,0-2.3,0.1-3.3,0.3s-1.9,0.4-2.6,0.7c-1.4,0.5-2.4,1.3-3.2,2.4c-0.7,1-1.1,2.3-1.1,3.9c0.1,2.2,0.7,3.8,1.9,4.9
		c1.2,1,2.7,1.4,4.6,1.4c1.4,0,2.6-0.3,3.7-0.7c1-0.5,1.8-0.9,2.3-1.4l0.1,1.7h3.5V62.1z M188.9,57.5c-0.5,0.5-1.2,1-2,1.3
		c-0.8,0.4-1.8,0.6-2.8,0.6c-1.3,0-2.2-0.4-2.7-1c-0.5-0.7-0.8-1.4-0.8-2.3c0-1.5,0.6-2.6,1.7-3.2c1.1-0.6,2.8-0.9,5.2-0.9h1.5V57.5
		L188.9,57.5z"/>
	<path class="st0" d="M213.7,56.2c0-1.9-0.6-3.2-1.7-4.1c-1.1-0.9-2.6-1.6-4.6-2.1c-1.6-0.5-2.8-0.9-3.6-1.3
		c-0.9-0.4-1.3-1.1-1.3-1.9c0-0.9,0.3-1.5,1-1.9c0.7-0.4,1.7-0.6,3-0.6c1.1,0,2.2,0.1,3.2,0.3c1,0.2,1.9,0.4,2.7,0.7v-3.5
		c-0.7-0.2-1.6-0.4-2.6-0.6c-1-0.2-2.2-0.2-3.5-0.2c-2.3,0-4.2,0.5-5.6,1.5c-1.4,1-2.1,2.5-2.1,4.6c0,1.7,0.6,3,1.7,3.9
		c1.1,0.8,2.5,1.5,4.2,2c1.4,0.4,2.7,0.9,3.7,1.3c1,0.5,1.5,1.2,1.6,2.2c0,0.9-0.3,1.6-1,2.1c-0.7,0.5-1.9,0.7-3.5,0.7
		c-1.5,0-2.8-0.2-3.8-0.5c-1-0.3-1.8-0.5-2.2-0.7l-1.1,3c0.6,0.3,1.5,0.6,2.7,0.9c1.2,0.3,2.8,0.5,4.7,0.5c2.6,0,4.7-0.5,6.2-1.5
		C212.9,60,213.7,58.3,213.7,56.2L213.7,56.2z"/>
	<path class="st0" d="M233,56.2c0-1.9-0.6-3.2-1.7-4.1c-1.1-0.9-2.6-1.6-4.6-2.1c-1.6-0.5-2.8-0.9-3.6-1.3c-0.9-0.4-1.3-1.1-1.3-1.9
		c0-0.9,0.3-1.5,1-1.9c0.7-0.4,1.7-0.6,3-0.6c1.1,0,2.2,0.1,3.2,0.3c1,0.2,1.9,0.4,2.7,0.7v-3.5c-0.7-0.2-1.6-0.4-2.6-0.6
		c-1-0.2-2.2-0.2-3.5-0.2c-2.3,0-4.2,0.5-5.6,1.5c-1.4,1-2.1,2.5-2.1,4.6c0,1.7,0.6,3,1.7,3.9c1.1,0.8,2.5,1.5,4.2,2
		c1.4,0.4,2.7,0.9,3.7,1.3c1,0.5,1.5,1.2,1.6,2.2c0,0.9-0.3,1.6-1,2.1c-0.7,0.5-1.9,0.7-3.5,0.7c-1.5,0-2.8-0.2-3.8-0.5
		c-1-0.3-1.8-0.5-2.2-0.7l-1.1,3c0.6,0.3,1.5,0.6,2.7,0.9c1.2,0.3,2.8,0.5,4.7,0.5c2.6,0,4.7-0.5,6.2-1.5
		C232.2,60,233,58.3,233,56.2L233,56.2z"/>
	<path class="st1" d="M255,50.6c0-3.1-0.7-5.6-2.1-7.2c-1.4-1.6-3.5-2.5-6.3-2.5c-3,0-5.3,1.1-6.9,3c-1.6,2-2.3,4.7-2.3,7.9
		c0,3.3,0.9,6,2.6,7.9c1.7,1.9,4.1,2.9,7.4,2.9c1.3,0,2.5-0.1,3.5-0.2s2-0.3,2.8-0.6l-0.8-3c-0.6,0.2-1.4,0.3-2.2,0.4
		c-0.9,0.1-1.8,0.2-2.7,0.2c-2,0-3.5-0.6-4.6-1.7c-1-1.1-1.6-2.7-1.8-4.9H255c0-0.3,0-0.7,0.1-1.1C255,51.4,255,51,255,50.6
		L255,50.6z M250.9,50.1h-9.3c0.1-2,0.6-3.5,1.4-4.7c0.8-1.1,2-1.6,3.5-1.7c1.4,0,2.5,0.5,3.2,1.4c0.7,0.9,1,2.2,1,3.9v1H250.9z"/>
	<path class="st1" d="M8,62.1h32c2.2-0.1,4.1-0.8,5.7-2.3c1.5-1.5,2.2-3.3,2.3-5.7V36.6H11.1v-4.8h36.7v-3.1
		c-0.1-2.2-0.8-4.1-2.3-5.7s-3.3-2.2-5.7-2.3H8c-2.2,0.1-4.1,0.8-5.7,2.3S0.1,26.4,0,28.7v17.6h36.6v4.8H0v3.1
		c0.1,2.2,0.8,4.1,2.3,5.7C3.8,61.3,5.7,62.1,8,62.1L8,62.1z M15.9,8c0.1,2.2,0.8,4.1,2.3,5.7s3.3,2.2,5.7,2.3
		c2.2-0.1,4.1-0.8,5.7-2.3s2.2-3.3,2.3-5.7c-0.1-2.2-0.8-4.1-2.3-5.7S26.2,0.1,23.9,0c-2.2,0.1-4.1,0.8-5.7,2.3
		C16.8,3.8,16,5.7,15.9,8L15.9,8z"/>
</g>
</svg>
