<?xml version="1.0" encoding="utf-8"?>
<!-- Generator: Adobe Illustrator 24.1.3, SVG Export Plug-In . SVG Version: 6.00 Build 0)  -->
<svg version="1.1" id="Layer_1" xmlns="http://www.w3.org/2000/svg" xmlns:xlink="http://www.w3.org/1999/xlink" x="0px" y="0px"
	 viewBox="0 0 170.1 98.6" style="enable-background:new 0 0 170.1 98.6;" xml:space="preserve">
<style type="text/css">
	.st0{fill:#FFFFFF;}
</style>
<g>
	<g>
		<path class="st0" d="M10.3,93.6c0,1.5-0.5,2.8-1.4,3.7c-1,1-2.2,1.5-3.8,1.5c-1.6,0-2.8-0.5-3.8-1.5C0.5,96.4,0,95.1,0,93.6V78.4
			h3.2v15.1c0,1.7,0.7,2.5,2,2.5c1.3,0,2-0.8,2-2.5V78.4h3.2V93.6z"/>
		<path class="st0" d="M23.8,98.6H21l-4.8-12v12h-3.2V78.4h2.8l4.7,12v-12h3.2V98.6z"/>
		<path class="st0" d="M33.5,86.8l4.7,11.9h-3.4l-3.3-8.3l-1.5,3.1v5.2h-3.2V78.4h3.2v9.5l4.4-9.5h3.2L33.5,86.8z"/>
		<path class="st0" d="M50.4,98.6h-2.8l-4.8-12v12h-3.2V78.4h2.8l4.7,12v-12h3.2V98.6z"/>
		<path class="st0" d="M54.3,97.1c-1.3-1.6-1.5-3.8-1.5-8.6s0.1-7,1.5-8.6c0.8-1,2-1.7,3.9-1.7c1.9,0,3.1,0.7,3.9,1.7
			c1.4,1.6,1.5,3.8,1.5,8.6s-0.1,7-1.5,8.6c-0.8,1-2,1.7-3.9,1.7C56.3,98.8,55.1,98.1,54.3,97.1z M59.7,95.2c0.6-1,0.7-3,0.7-6.7
			c0-3.7-0.1-5.7-0.7-6.7C59.5,81.3,59,81,58.2,81c-0.8,0-1.2,0.3-1.5,0.8c-0.6,1-0.7,3-0.7,6.7c0,3.7,0.1,5.7,0.7,6.7
			c0.3,0.5,0.7,0.8,1.5,0.8C59,96,59.5,95.7,59.7,95.2z"/>
		<path class="st0" d="M68.1,78.4l2,15.4l2.8-15.4h3.5l2.8,15.4l2-15.4h3.5l-3.8,20.2h-3.3l-2.9-15.4l-2.9,15.4h-3.3l-3.8-20.2H68.1
			z"/>
		<path class="st0" d="M96.8,98.6H94l-4.8-12v12H86V78.4h2.8l4.7,12v-12h3.2V98.6z"/>
		<path class="st0" d="M109.3,78.4c1.9,0,3.1,0.4,3.9,1.3c0.9,0.9,1.3,2,1.3,4.2c0,1.5-0.2,2.6-1.2,3.5c-0.3,0.3-0.6,0.5-1.1,0.7
			c0.4,0.2,0.8,0.5,1.1,0.7c0.9,1,1.2,2.2,1.2,4.1c0,2.4-0.3,3.5-1.3,4.5c-0.9,0.9-2.1,1.3-4,1.3h-5V78.4H109.3z M107.4,81.2v5.5
			h1.6c1.6,0,2.3-0.8,2.3-2.8c0-2-0.7-2.7-2.3-2.7H107.4z M107.4,89.4v6.3h1.5c1.7,0,2.4-0.8,2.4-3.2c0-2.2-0.7-3.2-2.4-3.2H107.4z"
			/>
		<path class="st0" d="M128.5,98.6h-3.3l-0.8-4h-4.7l-0.8,4h-3.4l5-20.2h3.1L128.5,98.6z M120.3,91.7h3.5l-1.7-8.5L120.3,91.7z"/>
		<path class="st0" d="M138.2,79.4c1.1,1,1.4,2.5,1.4,4.4h-3.2c0-0.9-0.1-1.6-0.5-2.2c-0.3-0.4-0.7-0.6-1.4-0.6
			c-0.7,0-1.1,0.2-1.4,0.6c-0.4,0.4-0.5,1.1-0.5,2c0,1.6,0.3,2.2,1.7,2.7l2.4,1c2.4,1,3.1,2.3,3.1,5.7c0,2.1-0.3,3.5-1.3,4.5
			c-0.8,0.8-2.2,1.3-4,1.3c-1.8,0-3.1-0.5-3.9-1.3c-1-1-1.3-2.2-1.3-4.4h3.2c0,1.1,0.1,1.8,0.6,2.3c0.3,0.3,0.8,0.5,1.5,0.5
			c0.7,0,1.2-0.2,1.5-0.6c0.4-0.5,0.5-1.2,0.5-2.2c0-2.2-0.3-2.7-1.9-3.3l-2.4-1c-2-0.9-2.8-2-2.8-5.1c0-1.8,0.5-3.3,1.6-4.3
			c0.9-0.8,2-1.2,3.5-1.2C136.2,78.2,137.4,78.6,138.2,79.4z"/>
		<path class="st0" d="M145.2,98.6H142V78.4h3.2V98.6z"/>
		<path class="st0" d="M156.5,79.5c1,0.9,1.6,2.5,1.6,4.3H155c0-0.7-0.1-1.5-0.5-2c-0.3-0.5-0.7-0.7-1.5-0.7c-0.8,0-1.2,0.3-1.5,0.8
			c-0.6,1-0.7,3-0.7,6.7c0,3.7,0.1,5.7,0.7,6.7c0.3,0.5,0.7,0.8,1.5,0.8c0.8,0,1.2-0.3,1.5-0.7c0.3-0.5,0.5-1.3,0.5-2h3.2
			c-0.1,1.8-0.7,3.4-1.7,4.3c-0.9,0.9-2,1.3-3.5,1.3c-1.9,0-3.1-0.7-3.9-1.7c-1.3-1.6-1.5-3.8-1.5-8.6s0.1-7,1.5-8.6
			c0.8-1,2-1.7,3.9-1.7C154.5,78.1,155.6,78.6,156.5,79.5z"/>
		<path class="st0" d="M168.5,79.4c1.1,1,1.4,2.5,1.4,4.4h-3.2c0-0.9-0.1-1.6-0.5-2.2c-0.3-0.4-0.7-0.6-1.4-0.6
			c-0.7,0-1.1,0.2-1.4,0.6c-0.4,0.4-0.5,1.1-0.5,2c0,1.6,0.3,2.2,1.7,2.7l2.4,1c2.4,1,3.1,2.3,3.1,5.7c0,2.1-0.3,3.5-1.3,4.5
			c-0.8,0.8-2.2,1.3-4,1.3c-1.8,0-3.1-0.5-3.9-1.3c-1-1-1.3-2.2-1.3-4.4h3.2c0,1.1,0.1,1.8,0.6,2.3c0.3,0.3,0.8,0.5,1.5,0.5
			c0.7,0,1.2-0.2,1.5-0.6c0.4-0.5,0.5-1.2,0.5-2.2c0-2.2-0.3-2.7-1.9-3.3l-2.4-1c-2-0.9-2.8-2-2.8-5.1c0-1.8,0.5-3.3,1.6-4.3
			c0.9-0.8,2-1.2,3.5-1.2C166.5,78.2,167.7,78.6,168.5,79.4z"/>
	</g>
	<path class="st0" d="M52.3,0v64.5h64.5V0H52.3z M75.9,3.2h15l-15,15V3.2z M55.5,61.4V37.5l15.9,23.8H55.5z M72.7,57.7L56.9,33.9
		h15.9V57.7z M72.7,30.7H55.5V3.2h17.3V30.7z M75.9,22.7l6.5-6.5l10.5,16l-17,25.4V22.7z M93.2,61.4H77.3l15.9-23.8V61.4z
		 M93.2,26.9l-8.5-13l8.5-8.5V26.9z M96.4,61.4V37.5l15.9,23.8H96.4z M113.6,57.7L97.8,33.9l15.9,0V57.7z M113.6,30.7l-17.3,0V3.2
		h17.3V30.7z"/>
</g>
</svg>
