<?xml version="1.0" encoding="utf-8"?>
<!-- Generator: Adobe Illustrator 24.1.3, SVG Export Plug-In . SVG Version: 6.00 Build 0)  -->
<svg version="1.1" id="Layer_1" xmlns="http://www.w3.org/2000/svg" xmlns:xlink="http://www.w3.org/1999/xlink" x="0px" y="0px"
	 viewBox="0 0 500 70.9" style="enable-background:new 0 0 500 70.9;" xml:space="preserve">
<style type="text/css">
	.st0{fill:#FFFFFF;}
</style>
<g>
	<g id="BG">
	</g>
	<g id="Wortmarke">
		<g>
			<path class="st0" d="M0,10.7h7.4c0.8,0,1.5,0.2,2,0.6c0.5,0.4,0.9,0.9,1.1,1.5L22.2,43c0.4,1,0.8,2.1,1.1,3.2
				c0.4,1.2,0.7,2.4,1,3.7c0.5-2.6,1.2-4.9,2-7l11.6-30.2c0.2-0.5,0.6-1,1.1-1.4c0.5-0.4,1.2-0.7,2-0.7h7.4l-20,49.6H20L0,10.7z"/>
			<path class="st0" d="M62.1,60.2h-9.3V10.7h9.3L62.1,60.2L62.1,60.2z"/>
			<path class="st0" d="M112.4,35.4c0,3.6-0.6,7-1.8,10s-2.9,5.7-5.1,7.8c-2.2,2.2-4.8,3.9-7.9,5.1s-6.5,1.8-10.2,1.8H68.4V10.7
				h18.9c3.7,0,7.2,0.6,10.2,1.8s5.7,2.9,7.9,5.1c2.2,2.2,3.9,4.8,5.1,7.8C111.8,28.5,112.4,31.8,112.4,35.4z M103,35.4
				c0-2.7-0.4-5.2-1.1-7.3c-0.7-2.2-1.8-4-3.1-5.5c-1.3-1.5-3-2.6-4.9-3.4c-1.9-0.8-4.1-1.2-6.5-1.2h-9.6v34.9h9.6
				c2.4,0,4.6-0.4,6.5-1.2c1.9-0.8,3.6-1.9,4.9-3.4c1.3-1.5,2.4-3.3,3.1-5.5C102.6,40.6,103,38.2,103,35.4z"/>
			<path class="st0" d="M148.8,10.7V18h-22v13.7h17.3v7.1h-17.3v14h22v7.4h-31.3V10.7H148.8z"/>
			<path class="st0" d="M201.6,35.4c0,3.6-0.6,7-1.8,10.1s-2.9,5.8-5.1,8c-2.2,2.3-4.8,4-7.9,5.3c-3.1,1.3-6.5,1.9-10.2,1.9
				c-3.7,0-7.2-0.6-10.3-1.9c-3.1-1.3-5.7-3-8-5.3c-2.2-2.3-3.9-4.9-5.1-8c-1.2-3.1-1.8-6.5-1.8-10.1c0-3.6,0.6-7,1.8-10.1
				s2.9-5.8,5.1-8c2.2-2.3,4.9-4,8-5.3c3.1-1.3,6.5-1.9,10.3-1.9c3.7,0,7.2,0.6,10.2,1.9s5.7,3,7.9,5.3c2.2,2.3,3.9,4.9,5.1,8
				C201,28.5,201.6,31.8,201.6,35.4z M192.1,35.4c0-2.7-0.4-5.2-1.1-7.3s-1.8-4-3.1-5.5c-1.3-1.5-3-2.7-4.9-3.5
				c-1.9-0.8-4.1-1.2-6.5-1.2s-4.6,0.4-6.5,1.2c-1.9,0.8-3.6,2-5,3.5c-1.4,1.5-2.4,3.3-3.1,5.5c-0.7,2.2-1.1,4.6-1.1,7.3
				s0.4,5.2,1.1,7.3c0.7,2.2,1.8,4,3.1,5.5c1.4,1.5,3,2.6,5,3.4c1.9,0.8,4.1,1.2,6.5,1.2c2.4,0,4.6-0.4,6.5-1.2
				c1.9-0.8,3.6-1.9,4.9-3.4c1.3-1.5,2.4-3.3,3.1-5.5C191.8,40.6,192.1,38.2,192.1,35.4z"/>
			<path class="st0" d="M201.8,11.7h2.8c0.3,0,0.6,0.1,0.8,0.3c0.2,0.2,0.4,0.4,0.5,0.7l16.5,40.2c0.4,1.1,0.8,2.2,1.1,3.4
				c0.3-1.2,0.6-2.4,1-3.4l16.5-40.2c0.1-0.3,0.3-0.5,0.5-0.7c0.2-0.2,0.5-0.3,0.8-0.3h2.7l-20,48.5h-3.1L201.8,11.7z"/>
			<path class="st0" d="M254.9,60.2h-3.5V11.7h3.5V60.2z"/>
			<path class="st0" d="M289.7,17.6c-0.2,0.4-0.5,0.6-0.9,0.6c-0.3,0-0.7-0.2-1.2-0.6c-0.5-0.4-1.1-0.9-1.9-1.4
				c-0.8-0.5-1.8-1-3-1.4c-1.2-0.4-2.7-0.7-4.5-0.7s-3.3,0.3-4.7,0.8c-1.3,0.5-2.5,1.2-3.4,2.1c-0.9,0.9-1.6,1.9-2.1,3
				c-0.5,1.1-0.7,2.3-0.7,3.6c0,1.6,0.4,3,1,4.1c0.7,1.1,1.6,2,2.8,2.7c1.1,0.8,2.4,1.4,3.9,1.9c1.5,0.5,2.9,1,4.5,1.5
				s3,1.1,4.5,1.7c1.5,0.6,2.8,1.4,3.9,2.3c1.1,0.9,2.1,2,2.8,3.4c0.7,1.3,1,3,1,5c0,2-0.3,3.9-1,5.7c-0.7,1.8-1.7,3.4-3,4.7
				c-1.3,1.3-2.9,2.4-4.9,3.1c-1.9,0.8-4.1,1.1-6.6,1.1c-3.2,0-5.9-0.6-8.3-1.7c-2.3-1.1-4.3-2.7-6.1-4.6l1-1.5
				c0.3-0.3,0.6-0.5,1-0.5c0.2,0,0.5,0.1,0.8,0.4c0.3,0.3,0.7,0.6,1.2,1c0.5,0.4,1,0.8,1.6,1.3c0.6,0.5,1.4,0.9,2.2,1.3
				c0.8,0.4,1.8,0.7,2.9,1c1.1,0.3,2.3,0.4,3.7,0.4c1.9,0,3.6-0.3,5.1-0.9c1.5-0.6,2.8-1.4,3.8-2.4c1-1,1.8-2.2,2.4-3.6
				c0.6-1.4,0.8-2.9,0.8-4.4c0-1.7-0.4-3.1-1-4.2c-0.7-1.1-1.6-2-2.8-2.8c-1.1-0.7-2.4-1.4-3.9-1.9c-1.5-0.5-2.9-1-4.5-1.5
				c-1.5-0.5-3-1-4.5-1.6c-1.5-0.6-2.8-1.4-3.9-2.3s-2.1-2.1-2.8-3.5c-0.7-1.4-1-3.1-1-5.2c0-1.6,0.3-3.2,0.9-4.7
				c0.6-1.5,1.5-2.8,2.7-4c1.2-1.2,2.7-2.1,4.4-2.8c1.8-0.7,3.7-1,6-1c2.5,0,4.8,0.4,6.8,1.2c2,0.8,3.8,2,5.5,3.7L289.7,17.6z"/>
			<path class="st0" d="M302.8,60.2h-3.5V11.7h3.5V60.2z"/>
			<path class="st0" d="M355.8,36c0,3.7-0.6,7.1-1.7,10.2c-1.1,3-2.7,5.7-4.7,7.8c-2,2.2-4.5,3.8-7.3,5s-6,1.8-9.4,1.8
				c-3.4,0-6.5-0.6-9.4-1.8c-2.8-1.2-5.3-2.8-7.3-5c-2-2.2-3.6-4.8-4.7-7.8c-1.1-3.1-1.7-6.4-1.7-10.2c0-3.7,0.6-7.1,1.7-10.2
				c1.1-3,2.7-5.7,4.7-7.8c2-2.2,4.5-3.8,7.3-5c2.8-1.2,5.9-1.8,9.4-1.8c3.4,0,6.6,0.6,9.4,1.8c2.8,1.2,5.3,2.9,7.3,5
				c2,2.2,3.6,4.8,4.7,7.8C355.2,28.9,355.8,32.2,355.8,36z M352.1,36c0-3.4-0.5-6.4-1.4-9.1c-0.9-2.7-2.3-5-4-6.9
				c-1.7-1.9-3.8-3.3-6.1-4.3c-2.4-1-5.1-1.5-8-1.5c-2.9,0-5.5,0.5-7.9,1.5c-2.4,1-4.4,2.4-6.2,4.3c-1.7,1.9-3.1,4.2-4,6.9
				c-0.9,2.7-1.4,5.7-1.4,9.1c0,3.4,0.5,6.4,1.4,9.1c0.9,2.7,2.3,5,4,6.8c1.7,1.9,3.8,3.3,6.2,4.3c2.4,1,5,1.5,7.9,1.5
				c2.9,0,5.6-0.5,8-1.5c2.4-1,4.4-2.4,6.1-4.3c1.7-1.9,3-4.2,4-6.8C351.7,42.4,352.1,39.4,352.1,36z"/>
			<path class="st0" d="M364.9,11.9c0.2,0.1,0.4,0.3,0.6,0.5l31.4,42c-0.1-0.7-0.1-1.3-0.1-2V11.7h3.1v48.5h-1.7
				c-0.5,0-0.9-0.2-1.3-0.7l-31.5-42.1c0.1,0.7,0.1,1.3,0.1,2v40.8h-3.1V11.7h1.7C364.5,11.7,364.7,11.8,364.9,11.9z"/>
		</g>
	</g>
	<g id="Bildmarke">
		<path class="st0" d="M439.3,0.4c-1.5,1.2-2.6,6.7-3.3,14.1l24.9,43.1L482.6,20C466,9.2,442.8-2.3,439.3,0.4z M439.3,70.5
			c1.8,1.5,8.8-0.9,17.6-5.1L435.3,28C434.9,46.5,436.2,67.8,439.3,70.5z M488.7,24.1l-20.4,35.4c15.7-8.7,31.7-19.9,31.7-24.1
			C500,33.2,495.4,28.9,488.7,24.1z"/>
	</g>
	<g id="Stilisierte_Wortmarke">
	</g>
	<g id="Helper">
	</g>
</g>
</svg>
